<?xml version="1.0" encoding="utf-8" standalone="no"?>
<!DOCTYPE svg PUBLIC "-//W3C//DTD SVG 1.1//EN"
  "http://www.w3.org/Graphics/SVG/1.1/DTD/svg11.dtd">
<!-- Created with matplotlib (https://matplotlib.org/) -->
<svg height="1080pt" version="1.1" viewBox="0 0 1440 1080" width="1440pt" xmlns="http://www.w3.org/2000/svg" xmlns:xlink="http://www.w3.org/1999/xlink">
 <defs>
  <style type="text/css">
*{stroke-linecap:butt;stroke-linejoin:round;}
  </style>
 </defs>
 <g id="figure_1">
  <g id="patch_1">
   <path d="M 0 1080 
L 1440 1080 
L 1440 0 
L 0 0 
z
" style="fill:#ffffff;"/>
  </g>
  <g id="axes_1">
   <g id="patch_2">
    <path d="M 180 491.165217 
L 665.217391 491.165217 
L 665.217391 129.6 
L 180 129.6 
z
" style="fill:#ffffff;"/>
   </g>
   <g id="patch_3">
    <path clip-path="url(#p9b622ae51a)" d="M 202.055336 491.165217 
L 219.699605 491.165217 
L 219.699605 491.165217 
L 202.055336 491.165217 
z
" style="fill:#1f77b4;"/>
   </g>
   <g id="patch_4">
    <path clip-path="url(#p9b622ae51a)" d="M 219.699605 491.165217 
L 237.343874 491.165217 
L 237.343874 491.165217 
L 219.699605 491.165217 
z
" style="fill:#1f77b4;"/>
   </g>
   <g id="patch_5">
    <path clip-path="url(#p9b622ae51a)" d="M 237.343874 491.165217 
L 254.988142 491.165217 
L 254.988142 491.165217 
L 237.343874 491.165217 
z
" style="fill:#1f77b4;"/>
   </g>
   <g id="patch_6">
    <path clip-path="url(#p9b622ae51a)" d="M 254.988142 491.165217 
L 272.632411 491.165217 
L 272.632411 491.165217 
L 254.988142 491.165217 
z
" style="fill:#1f77b4;"/>
   </g>
   <g id="patch_7">
    <path clip-path="url(#p9b622ae51a)" d="M 272.632411 491.165217 
L 290.27668 491.165217 
L 290.27668 491.165217 
L 272.632411 491.165217 
z
" style="fill:#1f77b4;"/>
   </g>
   <g id="patch_8">
    <path clip-path="url(#p9b622ae51a)" d="M 290.27668 491.165217 
L 307.920949 491.165217 
L 307.920949 478.411594 
L 290.27668 478.411594 
z
" style="fill:#1f77b4;"/>
   </g>
   <g id="patch_9">
    <path clip-path="url(#p9b622ae51a)" d="M 307.920949 491.165217 
L 325.565217 491.165217 
L 325.565217 452.904348 
L 307.920949 452.904348 
z
" style="fill:#1f77b4;"/>
   </g>
   <g id="patch_10">
    <path clip-path="url(#p9b622ae51a)" d="M 325.565217 491.165217 
L 343.209486 491.165217 
L 343.209486 427.397101 
L 325.565217 427.397101 
z
" style="fill:#1f77b4;"/>
   </g>
   <g id="patch_11">
    <path clip-path="url(#p9b622ae51a)" d="M 343.209486 491.165217 
L 360.853755 491.165217 
L 360.853755 363.628986 
L 343.209486 363.628986 
z
" style="fill:#1f77b4;"/>
   </g>
   <g id="patch_12">
    <path clip-path="url(#p9b622ae51a)" d="M 360.853755 491.165217 
L 378.498024 491.165217 
L 378.498024 312.614493 
L 360.853755 312.614493 
z
" style="fill:#1f77b4;"/>
   </g>
   <g id="patch_13">
    <path clip-path="url(#p9b622ae51a)" d="M 378.498024 491.165217 
L 396.142292 491.165217 
L 396.142292 146.817391 
L 378.498024 146.817391 
z
" style="fill:#1f77b4;"/>
   </g>
   <g id="patch_14">
    <path clip-path="url(#p9b622ae51a)" d="M 396.142292 491.165217 
L 413.786561 491.165217 
L 413.786561 236.092754 
L 396.142292 236.092754 
z
" style="fill:#1f77b4;"/>
   </g>
   <g id="patch_15">
    <path clip-path="url(#p9b622ae51a)" d="M 413.786561 491.165217 
L 431.43083 491.165217 
L 431.43083 376.382609 
L 413.786561 376.382609 
z
" style="fill:#1f77b4;"/>
   </g>
   <g id="patch_16">
    <path clip-path="url(#p9b622ae51a)" d="M 431.43083 491.165217 
L 449.075099 491.165217 
L 449.075099 376.382609 
L 431.43083 376.382609 
z
" style="fill:#1f77b4;"/>
   </g>
   <g id="patch_17">
    <path clip-path="url(#p9b622ae51a)" d="M 449.075099 491.165217 
L 466.719368 491.165217 
L 466.719368 478.411594 
L 449.075099 478.411594 
z
" style="fill:#1f77b4;"/>
   </g>
   <g id="patch_18">
    <path clip-path="url(#p9b622ae51a)" d="M 466.719368 491.165217 
L 484.363636 491.165217 
L 484.363636 478.411594 
L 466.719368 478.411594 
z
" style="fill:#1f77b4;"/>
   </g>
   <g id="patch_19">
    <path clip-path="url(#p9b622ae51a)" d="M 484.363636 491.165217 
L 502.007905 491.165217 
L 502.007905 491.165217 
L 484.363636 491.165217 
z
" style="fill:#1f77b4;"/>
   </g>
   <g id="patch_20">
    <path clip-path="url(#p9b622ae51a)" d="M 502.007905 491.165217 
L 519.652174 491.165217 
L 519.652174 491.165217 
L 502.007905 491.165217 
z
" style="fill:#1f77b4;"/>
   </g>
   <g id="patch_21">
    <path clip-path="url(#p9b622ae51a)" d="M 519.652174 491.165217 
L 537.296443 491.165217 
L 537.296443 491.165217 
L 519.652174 491.165217 
z
" style="fill:#1f77b4;"/>
   </g>
   <g id="patch_22">
    <path clip-path="url(#p9b622ae51a)" d="M 537.296443 491.165217 
L 554.940711 491.165217 
L 554.940711 491.165217 
L 537.296443 491.165217 
z
" style="fill:#1f77b4;"/>
   </g>
   <g id="patch_23">
    <path clip-path="url(#p9b622ae51a)" d="M 554.940711 491.165217 
L 572.58498 491.165217 
L 572.58498 491.165217 
L 554.940711 491.165217 
z
" style="fill:#1f77b4;"/>
   </g>
   <g id="patch_24">
    <path clip-path="url(#p9b622ae51a)" d="M 572.58498 491.165217 
L 590.229249 491.165217 
L 590.229249 491.165217 
L 572.58498 491.165217 
z
" style="fill:#1f77b4;"/>
   </g>
   <g id="patch_25">
    <path clip-path="url(#p9b622ae51a)" d="M 590.229249 491.165217 
L 607.873518 491.165217 
L 607.873518 491.165217 
L 590.229249 491.165217 
z
" style="fill:#1f77b4;"/>
   </g>
   <g id="patch_26">
    <path clip-path="url(#p9b622ae51a)" d="M 607.873518 491.165217 
L 625.517787 491.165217 
L 625.517787 491.165217 
L 607.873518 491.165217 
z
" style="fill:#1f77b4;"/>
   </g>
   <g id="patch_27">
    <path clip-path="url(#p9b622ae51a)" d="M 625.517787 491.165217 
L 643.162055 491.165217 
L 643.162055 491.165217 
L 625.517787 491.165217 
z
" style="fill:#1f77b4;"/>
   </g>
   <g id="matplotlib.axis_1">
    <g id="xtick_1">
     <g id="line2d_1">
      <defs>
       <path d="M 0 0 
L 0 3.5 
" id="m8ac0bbf6b6" style="stroke:#000000;stroke-width:0.8;"/>
      </defs>
      <g>
       <use style="stroke:#000000;stroke-width:0.8;" x="202.055336" xlink:href="#m8ac0bbf6b6" y="491.165217"/>
      </g>
     </g>
     <g id="text_1">
      <!-- 0 -->
      <defs>
       <path d="M 31.78125 66.40625 
Q 24.171875 66.40625 20.328125 58.90625 
Q 16.5 51.421875 16.5 36.375 
Q 16.5 21.390625 20.328125 13.890625 
Q 24.171875 6.390625 31.78125 6.390625 
Q 39.453125 6.390625 43.28125 13.890625 
Q 47.125 21.390625 47.125 36.375 
Q 47.125 51.421875 43.28125 58.90625 
Q 39.453125 66.40625 31.78125 66.40625 
z
M 31.78125 74.21875 
Q 44.046875 74.21875 50.515625 64.515625 
Q 56.984375 54.828125 56.984375 36.375 
Q 56.984375 17.96875 50.515625 8.265625 
Q 44.046875 -1.421875 31.78125 -1.421875 
Q 19.53125 -1.421875 13.0625 8.265625 
Q 6.59375 17.96875 6.59375 36.375 
Q 6.59375 54.828125 13.0625 64.515625 
Q 19.53125 74.21875 31.78125 74.21875 
z
" id="DejaVuSans-48"/>
      </defs>
      <g transform="translate(198.874086 505.763655)scale(0.1 -0.1)">
       <use xlink:href="#DejaVuSans-48"/>
      </g>
     </g>
    </g>
    <g id="xtick_2">
     <g id="line2d_2">
      <g>
       <use style="stroke:#000000;stroke-width:0.8;" x="286.883551" xlink:href="#m8ac0bbf6b6" y="491.165217"/>
      </g>
     </g>
     <g id="text_2">
      <!-- 5 -->
      <defs>
       <path d="M 10.796875 72.90625 
L 49.515625 72.90625 
L 49.515625 64.59375 
L 19.828125 64.59375 
L 19.828125 46.734375 
Q 21.96875 47.46875 24.109375 47.828125 
Q 26.265625 48.1875 28.421875 48.1875 
Q 40.625 48.1875 47.75 41.5 
Q 54.890625 34.8125 54.890625 23.390625 
Q 54.890625 11.625 47.5625 5.09375 
Q 40.234375 -1.421875 26.90625 -1.421875 
Q 22.3125 -1.421875 17.546875 -0.640625 
Q 12.796875 0.140625 7.71875 1.703125 
L 7.71875 11.625 
Q 12.109375 9.234375 16.796875 8.0625 
Q 21.484375 6.890625 26.703125 6.890625 
Q 35.15625 6.890625 40.078125 11.328125 
Q 45.015625 15.765625 45.015625 23.390625 
Q 45.015625 31 40.078125 35.4375 
Q 35.15625 39.890625 26.703125 39.890625 
Q 22.75 39.890625 18.8125 39.015625 
Q 14.890625 38.140625 10.796875 36.28125 
z
" id="DejaVuSans-53"/>
      </defs>
      <g transform="translate(283.702301 505.763655)scale(0.1 -0.1)">
       <use xlink:href="#DejaVuSans-53"/>
      </g>
     </g>
    </g>
    <g id="xtick_3">
     <g id="line2d_3">
      <g>
       <use style="stroke:#000000;stroke-width:0.8;" x="371.711766" xlink:href="#m8ac0bbf6b6" y="491.165217"/>
      </g>
     </g>
     <g id="text_3">
      <!-- 10 -->
      <defs>
       <path d="M 12.40625 8.296875 
L 28.515625 8.296875 
L 28.515625 63.921875 
L 10.984375 60.40625 
L 10.984375 69.390625 
L 28.421875 72.90625 
L 38.28125 72.90625 
L 38.28125 8.296875 
L 54.390625 8.296875 
L 54.390625 0 
L 12.40625 0 
z
" id="DejaVuSans-49"/>
      </defs>
      <g transform="translate(365.349266 505.763655)scale(0.1 -0.1)">
       <use xlink:href="#DejaVuSans-49"/>
       <use x="63.623047" xlink:href="#DejaVuSans-48"/>
      </g>
     </g>
    </g>
    <g id="xtick_4">
     <g id="line2d_4">
      <g>
       <use style="stroke:#000000;stroke-width:0.8;" x="456.539982" xlink:href="#m8ac0bbf6b6" y="491.165217"/>
      </g>
     </g>
     <g id="text_4">
      <!-- 15 -->
      <g transform="translate(450.177482 505.763655)scale(0.1 -0.1)">
       <use xlink:href="#DejaVuSans-49"/>
       <use x="63.623047" xlink:href="#DejaVuSans-53"/>
      </g>
     </g>
    </g>
    <g id="xtick_5">
     <g id="line2d_5">
      <g>
       <use style="stroke:#000000;stroke-width:0.8;" x="541.368197" xlink:href="#m8ac0bbf6b6" y="491.165217"/>
      </g>
     </g>
     <g id="text_5">
      <!-- 20 -->
      <defs>
       <path d="M 19.1875 8.296875 
L 53.609375 8.296875 
L 53.609375 0 
L 7.328125 0 
L 7.328125 8.296875 
Q 12.9375 14.109375 22.625 23.890625 
Q 32.328125 33.6875 34.8125 36.53125 
Q 39.546875 41.84375 41.421875 45.53125 
Q 43.3125 49.21875 43.3125 52.78125 
Q 43.3125 58.59375 39.234375 62.25 
Q 35.15625 65.921875 28.609375 65.921875 
Q 23.96875 65.921875 18.8125 64.3125 
Q 13.671875 62.703125 7.8125 59.421875 
L 7.8125 69.390625 
Q 13.765625 71.78125 18.9375 73 
Q 24.125 74.21875 28.421875 74.21875 
Q 39.75 74.21875 46.484375 68.546875 
Q 53.21875 62.890625 53.21875 53.421875 
Q 53.21875 48.921875 51.53125 44.890625 
Q 49.859375 40.875 45.40625 35.40625 
Q 44.1875 33.984375 37.640625 27.21875 
Q 31.109375 20.453125 19.1875 8.296875 
z
" id="DejaVuSans-50"/>
      </defs>
      <g transform="translate(535.005697 505.763655)scale(0.1 -0.1)">
       <use xlink:href="#DejaVuSans-50"/>
       <use x="63.623047" xlink:href="#DejaVuSans-48"/>
      </g>
     </g>
    </g>
    <g id="xtick_6">
     <g id="line2d_6">
      <g>
       <use style="stroke:#000000;stroke-width:0.8;" x="626.196412" xlink:href="#m8ac0bbf6b6" y="491.165217"/>
      </g>
     </g>
     <g id="text_6">
      <!-- 25 -->
      <g transform="translate(619.833912 505.763655)scale(0.1 -0.1)">
       <use xlink:href="#DejaVuSans-50"/>
       <use x="63.623047" xlink:href="#DejaVuSans-53"/>
      </g>
     </g>
    </g>
    <g id="text_7">
     <!-- Scores -->
     <defs>
      <path d="M 53.515625 70.515625 
L 53.515625 60.890625 
Q 47.90625 63.578125 42.921875 64.890625 
Q 37.9375 66.21875 33.296875 66.21875 
Q 25.25 66.21875 20.875 63.09375 
Q 16.5 59.96875 16.5 54.203125 
Q 16.5 49.359375 19.40625 46.890625 
Q 22.3125 44.4375 30.421875 42.921875 
L 36.375 41.703125 
Q 47.40625 39.59375 52.65625 34.296875 
Q 57.90625 29 57.90625 20.125 
Q 57.90625 9.515625 50.796875 4.046875 
Q 43.703125 -1.421875 29.984375 -1.421875 
Q 24.8125 -1.421875 18.96875 -0.25 
Q 13.140625 0.921875 6.890625 3.21875 
L 6.890625 13.375 
Q 12.890625 10.015625 18.65625 8.296875 
Q 24.421875 6.59375 29.984375 6.59375 
Q 38.421875 6.59375 43.015625 9.90625 
Q 47.609375 13.234375 47.609375 19.390625 
Q 47.609375 24.75 44.3125 27.78125 
Q 41.015625 30.8125 33.5 32.328125 
L 27.484375 33.5 
Q 16.453125 35.6875 11.515625 40.375 
Q 6.59375 45.0625 6.59375 53.421875 
Q 6.59375 63.09375 13.40625 68.65625 
Q 20.21875 74.21875 32.171875 74.21875 
Q 37.3125 74.21875 42.625 73.28125 
Q 47.953125 72.359375 53.515625 70.515625 
z
" id="DejaVuSans-83"/>
      <path d="M 48.78125 52.59375 
L 48.78125 44.1875 
Q 44.96875 46.296875 41.140625 47.34375 
Q 37.3125 48.390625 33.40625 48.390625 
Q 24.65625 48.390625 19.8125 42.84375 
Q 14.984375 37.3125 14.984375 27.296875 
Q 14.984375 17.28125 19.8125 11.734375 
Q 24.65625 6.203125 33.40625 6.203125 
Q 37.3125 6.203125 41.140625 7.25 
Q 44.96875 8.296875 48.78125 10.40625 
L 48.78125 2.09375 
Q 45.015625 0.34375 40.984375 -0.53125 
Q 36.96875 -1.421875 32.421875 -1.421875 
Q 20.0625 -1.421875 12.78125 6.34375 
Q 5.515625 14.109375 5.515625 27.296875 
Q 5.515625 40.671875 12.859375 48.328125 
Q 20.21875 56 33.015625 56 
Q 37.15625 56 41.109375 55.140625 
Q 45.0625 54.296875 48.78125 52.59375 
z
" id="DejaVuSans-99"/>
      <path d="M 30.609375 48.390625 
Q 23.390625 48.390625 19.1875 42.75 
Q 14.984375 37.109375 14.984375 27.296875 
Q 14.984375 17.484375 19.15625 11.84375 
Q 23.34375 6.203125 30.609375 6.203125 
Q 37.796875 6.203125 41.984375 11.859375 
Q 46.1875 17.53125 46.1875 27.296875 
Q 46.1875 37.015625 41.984375 42.703125 
Q 37.796875 48.390625 30.609375 48.390625 
z
M 30.609375 56 
Q 42.328125 56 49.015625 48.375 
Q 55.71875 40.765625 55.71875 27.296875 
Q 55.71875 13.875 49.015625 6.21875 
Q 42.328125 -1.421875 30.609375 -1.421875 
Q 18.84375 -1.421875 12.171875 6.21875 
Q 5.515625 13.875 5.515625 27.296875 
Q 5.515625 40.765625 12.171875 48.375 
Q 18.84375 56 30.609375 56 
z
" id="DejaVuSans-111"/>
      <path d="M 41.109375 46.296875 
Q 39.59375 47.171875 37.8125 47.578125 
Q 36.03125 48 33.890625 48 
Q 26.265625 48 22.1875 43.046875 
Q 18.109375 38.09375 18.109375 28.8125 
L 18.109375 0 
L 9.078125 0 
L 9.078125 54.6875 
L 18.109375 54.6875 
L 18.109375 46.1875 
Q 20.953125 51.171875 25.484375 53.578125 
Q 30.03125 56 36.53125 56 
Q 37.453125 56 38.578125 55.875 
Q 39.703125 55.765625 41.0625 55.515625 
z
" id="DejaVuSans-114"/>
      <path d="M 56.203125 29.59375 
L 56.203125 25.203125 
L 14.890625 25.203125 
Q 15.484375 15.921875 20.484375 11.0625 
Q 25.484375 6.203125 34.421875 6.203125 
Q 39.59375 6.203125 44.453125 7.46875 
Q 49.3125 8.734375 54.109375 11.28125 
L 54.109375 2.78125 
Q 49.265625 0.734375 44.1875 -0.34375 
Q 39.109375 -1.421875 33.890625 -1.421875 
Q 20.796875 -1.421875 13.15625 6.1875 
Q 5.515625 13.8125 5.515625 26.8125 
Q 5.515625 40.234375 12.765625 48.109375 
Q 20.015625 56 32.328125 56 
Q 43.359375 56 49.78125 48.890625 
Q 56.203125 41.796875 56.203125 29.59375 
z
M 47.21875 32.234375 
Q 47.125 39.59375 43.09375 43.984375 
Q 39.0625 48.390625 32.421875 48.390625 
Q 24.90625 48.390625 20.390625 44.140625 
Q 15.875 39.890625 15.1875 32.171875 
z
" id="DejaVuSans-101"/>
      <path d="M 44.28125 53.078125 
L 44.28125 44.578125 
Q 40.484375 46.53125 36.375 47.5 
Q 32.28125 48.484375 27.875 48.484375 
Q 21.1875 48.484375 17.84375 46.4375 
Q 14.5 44.390625 14.5 40.28125 
Q 14.5 37.15625 16.890625 35.375 
Q 19.28125 33.59375 26.515625 31.984375 
L 29.59375 31.296875 
Q 39.15625 29.25 43.1875 25.515625 
Q 47.21875 21.78125 47.21875 15.09375 
Q 47.21875 7.46875 41.1875 3.015625 
Q 35.15625 -1.421875 24.609375 -1.421875 
Q 20.21875 -1.421875 15.453125 -0.5625 
Q 10.6875 0.296875 5.421875 2 
L 5.421875 11.28125 
Q 10.40625 8.6875 15.234375 7.390625 
Q 20.0625 6.109375 24.8125 6.109375 
Q 31.15625 6.109375 34.5625 8.28125 
Q 37.984375 10.453125 37.984375 14.40625 
Q 37.984375 18.0625 35.515625 20.015625 
Q 33.0625 21.96875 24.703125 23.78125 
L 21.578125 24.515625 
Q 13.234375 26.265625 9.515625 29.90625 
Q 5.8125 33.546875 5.8125 39.890625 
Q 5.8125 47.609375 11.28125 51.796875 
Q 16.75 56 26.8125 56 
Q 31.78125 56 36.171875 55.265625 
Q 40.578125 54.546875 44.28125 53.078125 
z
" id="DejaVuSans-115"/>
     </defs>
     <g transform="translate(405.890727 519.44178)scale(0.1 -0.1)">
      <use xlink:href="#DejaVuSans-83"/>
      <use x="63.476562" xlink:href="#DejaVuSans-99"/>
      <use x="118.457031" xlink:href="#DejaVuSans-111"/>
      <use x="179.638672" xlink:href="#DejaVuSans-114"/>
      <use x="220.720703" xlink:href="#DejaVuSans-101"/>
      <use x="282.244141" xlink:href="#DejaVuSans-115"/>
     </g>
    </g>
   </g>
   <g id="matplotlib.axis_2">
    <g id="ytick_1">
     <g id="line2d_7">
      <defs>
       <path d="M 0 0 
L -3.5 0 
" id="mbdf2af6003" style="stroke:#000000;stroke-width:0.8;"/>
      </defs>
      <g>
       <use style="stroke:#000000;stroke-width:0.8;" x="180" xlink:href="#mbdf2af6003" y="491.165217"/>
      </g>
     </g>
     <g id="text_8">
      <!-- 0.00 -->
      <defs>
       <path d="M 10.6875 12.40625 
L 21 12.40625 
L 21 0 
L 10.6875 0 
z
" id="DejaVuSans-46"/>
      </defs>
      <g transform="translate(150.734375 494.964436)scale(0.1 -0.1)">
       <use xlink:href="#DejaVuSans-48"/>
       <use x="63.623047" xlink:href="#DejaVuSans-46"/>
       <use x="95.410156" xlink:href="#DejaVuSans-48"/>
       <use x="159.033203" xlink:href="#DejaVuSans-48"/>
      </g>
     </g>
    </g>
    <g id="ytick_2">
     <g id="line2d_8">
      <g>
       <use style="stroke:#000000;stroke-width:0.8;" x="180" xlink:href="#mbdf2af6003" y="424.846377"/>
      </g>
     </g>
     <g id="text_9">
      <!-- 0.05 -->
      <g transform="translate(150.734375 428.645596)scale(0.1 -0.1)">
       <use xlink:href="#DejaVuSans-48"/>
       <use x="63.623047" xlink:href="#DejaVuSans-46"/>
       <use x="95.410156" xlink:href="#DejaVuSans-48"/>
       <use x="159.033203" xlink:href="#DejaVuSans-53"/>
      </g>
     </g>
    </g>
    <g id="ytick_3">
     <g id="line2d_9">
      <g>
       <use style="stroke:#000000;stroke-width:0.8;" x="180" xlink:href="#mbdf2af6003" y="358.527536"/>
      </g>
     </g>
     <g id="text_10">
      <!-- 0.10 -->
      <g transform="translate(150.734375 362.326755)scale(0.1 -0.1)">
       <use xlink:href="#DejaVuSans-48"/>
       <use x="63.623047" xlink:href="#DejaVuSans-46"/>
       <use x="95.410156" xlink:href="#DejaVuSans-49"/>
       <use x="159.033203" xlink:href="#DejaVuSans-48"/>
      </g>
     </g>
    </g>
    <g id="ytick_4">
     <g id="line2d_10">
      <g>
       <use style="stroke:#000000;stroke-width:0.8;" x="180" xlink:href="#mbdf2af6003" y="292.208696"/>
      </g>
     </g>
     <g id="text_11">
      <!-- 0.15 -->
      <g transform="translate(150.734375 296.007914)scale(0.1 -0.1)">
       <use xlink:href="#DejaVuSans-48"/>
       <use x="63.623047" xlink:href="#DejaVuSans-46"/>
       <use x="95.410156" xlink:href="#DejaVuSans-49"/>
       <use x="159.033203" xlink:href="#DejaVuSans-53"/>
      </g>
     </g>
    </g>
    <g id="ytick_5">
     <g id="line2d_11">
      <g>
       <use style="stroke:#000000;stroke-width:0.8;" x="180" xlink:href="#mbdf2af6003" y="225.889855"/>
      </g>
     </g>
     <g id="text_12">
      <!-- 0.20 -->
      <g transform="translate(150.734375 229.689074)scale(0.1 -0.1)">
       <use xlink:href="#DejaVuSans-48"/>
       <use x="63.623047" xlink:href="#DejaVuSans-46"/>
       <use x="95.410156" xlink:href="#DejaVuSans-50"/>
       <use x="159.033203" xlink:href="#DejaVuSans-48"/>
      </g>
     </g>
    </g>
    <g id="ytick_6">
     <g id="line2d_12">
      <g>
       <use style="stroke:#000000;stroke-width:0.8;" x="180" xlink:href="#mbdf2af6003" y="159.571014"/>
      </g>
     </g>
     <g id="text_13">
      <!-- 0.25 -->
      <g transform="translate(150.734375 163.370233)scale(0.1 -0.1)">
       <use xlink:href="#DejaVuSans-48"/>
       <use x="63.623047" xlink:href="#DejaVuSans-46"/>
       <use x="95.410156" xlink:href="#DejaVuSans-50"/>
       <use x="159.033203" xlink:href="#DejaVuSans-53"/>
      </g>
     </g>
    </g>
    <g id="text_14">
     <!-- Probability Density -->
     <defs>
      <path d="M 19.671875 64.796875 
L 19.671875 37.40625 
L 32.078125 37.40625 
Q 38.96875 37.40625 42.71875 40.96875 
Q 46.484375 44.53125 46.484375 51.125 
Q 46.484375 57.671875 42.71875 61.234375 
Q 38.96875 64.796875 32.078125 64.796875 
z
M 9.8125 72.90625 
L 32.078125 72.90625 
Q 44.34375 72.90625 50.609375 67.359375 
Q 56.890625 61.8125 56.890625 51.125 
Q 56.890625 40.328125 50.609375 34.8125 
Q 44.34375 29.296875 32.078125 29.296875 
L 19.671875 29.296875 
L 19.671875 0 
L 9.8125 0 
z
" id="DejaVuSans-80"/>
      <path d="M 48.6875 27.296875 
Q 48.6875 37.203125 44.609375 42.84375 
Q 40.53125 48.484375 33.40625 48.484375 
Q 26.265625 48.484375 22.1875 42.84375 
Q 18.109375 37.203125 18.109375 27.296875 
Q 18.109375 17.390625 22.1875 11.75 
Q 26.265625 6.109375 33.40625 6.109375 
Q 40.53125 6.109375 44.609375 11.75 
Q 48.6875 17.390625 48.6875 27.296875 
z
M 18.109375 46.390625 
Q 20.953125 51.265625 25.265625 53.625 
Q 29.59375 56 35.59375 56 
Q 45.5625 56 51.78125 48.09375 
Q 58.015625 40.1875 58.015625 27.296875 
Q 58.015625 14.40625 51.78125 6.484375 
Q 45.5625 -1.421875 35.59375 -1.421875 
Q 29.59375 -1.421875 25.265625 0.953125 
Q 20.953125 3.328125 18.109375 8.203125 
L 18.109375 0 
L 9.078125 0 
L 9.078125 75.984375 
L 18.109375 75.984375 
z
" id="DejaVuSans-98"/>
      <path d="M 34.28125 27.484375 
Q 23.390625 27.484375 19.1875 25 
Q 14.984375 22.515625 14.984375 16.5 
Q 14.984375 11.71875 18.140625 8.90625 
Q 21.296875 6.109375 26.703125 6.109375 
Q 34.1875 6.109375 38.703125 11.40625 
Q 43.21875 16.703125 43.21875 25.484375 
L 43.21875 27.484375 
z
M 52.203125 31.203125 
L 52.203125 0 
L 43.21875 0 
L 43.21875 8.296875 
Q 40.140625 3.328125 35.546875 0.953125 
Q 30.953125 -1.421875 24.3125 -1.421875 
Q 15.921875 -1.421875 10.953125 3.296875 
Q 6 8.015625 6 15.921875 
Q 6 25.140625 12.171875 29.828125 
Q 18.359375 34.515625 30.609375 34.515625 
L 43.21875 34.515625 
L 43.21875 35.40625 
Q 43.21875 41.609375 39.140625 45 
Q 35.0625 48.390625 27.6875 48.390625 
Q 23 48.390625 18.546875 47.265625 
Q 14.109375 46.140625 10.015625 43.890625 
L 10.015625 52.203125 
Q 14.9375 54.109375 19.578125 55.046875 
Q 24.21875 56 28.609375 56 
Q 40.484375 56 46.34375 49.84375 
Q 52.203125 43.703125 52.203125 31.203125 
z
" id="DejaVuSans-97"/>
      <path d="M 9.421875 54.6875 
L 18.40625 54.6875 
L 18.40625 0 
L 9.421875 0 
z
M 9.421875 75.984375 
L 18.40625 75.984375 
L 18.40625 64.59375 
L 9.421875 64.59375 
z
" id="DejaVuSans-105"/>
      <path d="M 9.421875 75.984375 
L 18.40625 75.984375 
L 18.40625 0 
L 9.421875 0 
z
" id="DejaVuSans-108"/>
      <path d="M 18.3125 70.21875 
L 18.3125 54.6875 
L 36.8125 54.6875 
L 36.8125 47.703125 
L 18.3125 47.703125 
L 18.3125 18.015625 
Q 18.3125 11.328125 20.140625 9.421875 
Q 21.96875 7.515625 27.59375 7.515625 
L 36.8125 7.515625 
L 36.8125 0 
L 27.59375 0 
Q 17.1875 0 13.234375 3.875 
Q 9.28125 7.765625 9.28125 18.015625 
L 9.28125 47.703125 
L 2.6875 47.703125 
L 2.6875 54.6875 
L 9.28125 54.6875 
L 9.28125 70.21875 
z
" id="DejaVuSans-116"/>
      <path d="M 32.171875 -5.078125 
Q 28.375 -14.84375 24.75 -17.8125 
Q 21.140625 -20.796875 15.09375 -20.796875 
L 7.90625 -20.796875 
L 7.90625 -13.28125 
L 13.1875 -13.28125 
Q 16.890625 -13.28125 18.9375 -11.515625 
Q 21 -9.765625 23.484375 -3.21875 
L 25.09375 0.875 
L 2.984375 54.6875 
L 12.5 54.6875 
L 29.59375 11.921875 
L 46.6875 54.6875 
L 56.203125 54.6875 
z
" id="DejaVuSans-121"/>
      <path id="DejaVuSans-32"/>
      <path d="M 19.671875 64.796875 
L 19.671875 8.109375 
L 31.59375 8.109375 
Q 46.6875 8.109375 53.6875 14.9375 
Q 60.6875 21.78125 60.6875 36.53125 
Q 60.6875 51.171875 53.6875 57.984375 
Q 46.6875 64.796875 31.59375 64.796875 
z
M 9.8125 72.90625 
L 30.078125 72.90625 
Q 51.265625 72.90625 61.171875 64.09375 
Q 71.09375 55.28125 71.09375 36.53125 
Q 71.09375 17.671875 61.125 8.828125 
Q 51.171875 0 30.078125 0 
L 9.8125 0 
z
" id="DejaVuSans-68"/>
      <path d="M 54.890625 33.015625 
L 54.890625 0 
L 45.90625 0 
L 45.90625 32.71875 
Q 45.90625 40.484375 42.875 44.328125 
Q 39.84375 48.1875 33.796875 48.1875 
Q 26.515625 48.1875 22.3125 43.546875 
Q 18.109375 38.921875 18.109375 30.90625 
L 18.109375 0 
L 9.078125 0 
L 9.078125 54.6875 
L 18.109375 54.6875 
L 18.109375 46.1875 
Q 21.34375 51.125 25.703125 53.5625 
Q 30.078125 56 35.796875 56 
Q 45.21875 56 50.046875 50.171875 
Q 54.890625 44.34375 54.890625 33.015625 
z
" id="DejaVuSans-110"/>
     </defs>
     <g transform="translate(144.654687 357.606827)rotate(-90)scale(0.1 -0.1)">
      <use xlink:href="#DejaVuSans-80"/>
      <use x="60.287109" xlink:href="#DejaVuSans-114"/>
      <use x="101.369141" xlink:href="#DejaVuSans-111"/>
      <use x="162.550781" xlink:href="#DejaVuSans-98"/>
      <use x="226.027344" xlink:href="#DejaVuSans-97"/>
      <use x="287.306641" xlink:href="#DejaVuSans-98"/>
      <use x="350.783203" xlink:href="#DejaVuSans-105"/>
      <use x="378.566406" xlink:href="#DejaVuSans-108"/>
      <use x="406.349609" xlink:href="#DejaVuSans-105"/>
      <use x="434.132812" xlink:href="#DejaVuSans-116"/>
      <use x="473.341797" xlink:href="#DejaVuSans-121"/>
      <use x="532.521484" xlink:href="#DejaVuSans-32"/>
      <use x="564.308594" xlink:href="#DejaVuSans-68"/>
      <use x="641.310547" xlink:href="#DejaVuSans-101"/>
      <use x="702.833984" xlink:href="#DejaVuSans-110"/>
      <use x="766.212891" xlink:href="#DejaVuSans-115"/>
      <use x="818.3125" xlink:href="#DejaVuSans-105"/>
      <use x="846.095703" xlink:href="#DejaVuSans-116"/>
      <use x="885.304688" xlink:href="#DejaVuSans-121"/>
     </g>
    </g>
   </g>
   <g id="patch_28">
    <path d="M 180 491.165217 
L 180 129.6 
" style="fill:none;stroke:#000000;stroke-linecap:square;stroke-linejoin:miter;stroke-width:0.8;"/>
   </g>
   <g id="patch_29">
    <path d="M 665.217391 491.165217 
L 665.217391 129.6 
" style="fill:none;stroke:#000000;stroke-linecap:square;stroke-linejoin:miter;stroke-width:0.8;"/>
   </g>
   <g id="patch_30">
    <path d="M 180 491.165217 
L 665.217391 491.165217 
" style="fill:none;stroke:#000000;stroke-linecap:square;stroke-linejoin:miter;stroke-width:0.8;"/>
   </g>
   <g id="patch_31">
    <path d="M 180 129.6 
L 665.217391 129.6 
" style="fill:none;stroke:#000000;stroke-linecap:square;stroke-linejoin:miter;stroke-width:0.8;"/>
   </g>
   <g id="text_15">
    <!-- 2 Players (100 Iterations) $\mu=11.08,\ \sigma=1.8691174387929719$ -->
    <defs>
     <path d="M 31 75.875 
Q 24.46875 64.65625 21.28125 53.65625 
Q 18.109375 42.671875 18.109375 31.390625 
Q 18.109375 20.125 21.3125 9.0625 
Q 24.515625 -2 31 -13.1875 
L 23.1875 -13.1875 
Q 15.875 -1.703125 12.234375 9.375 
Q 8.59375 20.453125 8.59375 31.390625 
Q 8.59375 42.28125 12.203125 53.3125 
Q 15.828125 64.359375 23.1875 75.875 
z
" id="DejaVuSans-40"/>
     <path d="M 9.8125 72.90625 
L 19.671875 72.90625 
L 19.671875 0 
L 9.8125 0 
z
" id="DejaVuSans-73"/>
     <path d="M 8.015625 75.875 
L 15.828125 75.875 
Q 23.140625 64.359375 26.78125 53.3125 
Q 30.421875 42.28125 30.421875 31.390625 
Q 30.421875 20.453125 26.78125 9.375 
Q 23.140625 -1.703125 15.828125 -13.1875 
L 8.015625 -13.1875 
Q 14.5 -2 17.703125 9.0625 
Q 20.90625 20.125 20.90625 31.390625 
Q 20.90625 42.671875 17.703125 53.65625 
Q 14.5 64.65625 8.015625 75.875 
z
" id="DejaVuSans-41"/>
     <path d="M -1.3125 -20.796875 
L 13.375 54.6875 
L 22.40625 54.6875 
L 15.765625 20.65625 
Q 15.578125 19.625 15.421875 18.359375 
Q 15.28125 17.09375 15.28125 15.828125 
Q 15.28125 11.28125 18.140625 8.828125 
Q 21 6.390625 26.3125 6.390625 
Q 33.546875 6.390625 37.984375 10.484375 
Q 42.4375 14.59375 44 22.796875 
L 50.203125 54.6875 
L 59.1875 54.6875 
L 51.03125 12.640625 
Q 50.828125 11.71875 50.75 11.03125 
Q 50.6875 10.359375 50.6875 9.8125 
Q 50.6875 8.296875 51.296875 7.59375 
Q 51.90625 6.890625 53.21875 6.890625 
Q 53.71875 6.890625 54.5625 7.125 
Q 55.421875 7.375 56.984375 8.015625 
L 55.609375 0.78125 
Q 53.46875 -0.296875 51.515625 -0.859375 
Q 49.5625 -1.421875 47.703125 -1.421875 
Q 44.484375 -1.421875 42.65625 0.625 
Q 40.828125 2.6875 40.828125 6.296875 
Q 38.09375 2.390625 34.296875 0.484375 
Q 30.515625 -1.421875 25.390625 -1.421875 
Q 20.84375 -1.421875 17.453125 0.671875 
Q 14.0625 2.78125 12.984375 6.203125 
L 7.71875 -20.796875 
z
" id="DejaVuSans-Oblique-956"/>
     <path d="M 10.59375 45.40625 
L 73.1875 45.40625 
L 73.1875 37.203125 
L 10.59375 37.203125 
z
M 10.59375 25.484375 
L 73.1875 25.484375 
L 73.1875 17.1875 
L 10.59375 17.1875 
z
" id="DejaVuSans-61"/>
     <path d="M 31.78125 34.625 
Q 24.75 34.625 20.71875 30.859375 
Q 16.703125 27.09375 16.703125 20.515625 
Q 16.703125 13.921875 20.71875 10.15625 
Q 24.75 6.390625 31.78125 6.390625 
Q 38.8125 6.390625 42.859375 10.171875 
Q 46.921875 13.96875 46.921875 20.515625 
Q 46.921875 27.09375 42.890625 30.859375 
Q 38.875 34.625 31.78125 34.625 
z
M 21.921875 38.8125 
Q 15.578125 40.375 12.03125 44.71875 
Q 8.5 49.078125 8.5 55.328125 
Q 8.5 64.0625 14.71875 69.140625 
Q 20.953125 74.21875 31.78125 74.21875 
Q 42.671875 74.21875 48.875 69.140625 
Q 55.078125 64.0625 55.078125 55.328125 
Q 55.078125 49.078125 51.53125 44.71875 
Q 48 40.375 41.703125 38.8125 
Q 48.828125 37.15625 52.796875 32.3125 
Q 56.78125 27.484375 56.78125 20.515625 
Q 56.78125 9.90625 50.3125 4.234375 
Q 43.84375 -1.421875 31.78125 -1.421875 
Q 19.734375 -1.421875 13.25 4.234375 
Q 6.78125 9.90625 6.78125 20.515625 
Q 6.78125 27.484375 10.78125 32.3125 
Q 14.796875 37.15625 21.921875 38.8125 
z
M 18.3125 54.390625 
Q 18.3125 48.734375 21.84375 45.5625 
Q 25.390625 42.390625 31.78125 42.390625 
Q 38.140625 42.390625 41.71875 45.5625 
Q 45.3125 48.734375 45.3125 54.390625 
Q 45.3125 60.0625 41.71875 63.234375 
Q 38.140625 66.40625 31.78125 66.40625 
Q 25.390625 66.40625 21.84375 63.234375 
Q 18.3125 60.0625 18.3125 54.390625 
z
" id="DejaVuSans-56"/>
     <path d="M 11.71875 12.40625 
L 22.015625 12.40625 
L 22.015625 4 
L 14.015625 -11.625 
L 7.71875 -11.625 
L 11.71875 4 
z
" id="DejaVuSans-44"/>
     <path d="M 34.671875 47.5625 
Q 27.25 47.5625 22.21875 42.1875 
Q 16.890625 36.578125 15.140625 27.296875 
Q 13.1875 17.484375 16.3125 11.8125 
Q 19.390625 6.203125 26.65625 6.203125 
Q 33.84375 6.203125 39.109375 11.859375 
Q 44.4375 17.53125 46.34375 27.296875 
Q 48.046875 36.234375 45.015625 42.1875 
Q 42.1875 47.5625 34.671875 47.5625 
z
M 36.078125 54.734375 
L 65.921875 54.6875 
L 64.15625 45.703125 
L 54.109375 45.703125 
Q 57.90625 38.09375 55.859375 27.296875 
Q 53.21875 13.875 45.0625 6.25 
Q 36.859375 -1.421875 25.140625 -1.421875 
Q 13.375 -1.421875 8.203125 6.25 
Q 3.03125 13.875 5.671875 27.296875 
Q 8.25 40.765625 16.40625 48.390625 
Q 23.1875 54.734375 36.078125 54.734375 
z
" id="DejaVuSans-Oblique-963"/>
     <path d="M 33.015625 40.375 
Q 26.375 40.375 22.484375 35.828125 
Q 18.609375 31.296875 18.609375 23.390625 
Q 18.609375 15.53125 22.484375 10.953125 
Q 26.375 6.390625 33.015625 6.390625 
Q 39.65625 6.390625 43.53125 10.953125 
Q 47.40625 15.53125 47.40625 23.390625 
Q 47.40625 31.296875 43.53125 35.828125 
Q 39.65625 40.375 33.015625 40.375 
z
M 52.59375 71.296875 
L 52.59375 62.3125 
Q 48.875 64.0625 45.09375 64.984375 
Q 41.3125 65.921875 37.59375 65.921875 
Q 27.828125 65.921875 22.671875 59.328125 
Q 17.53125 52.734375 16.796875 39.40625 
Q 19.671875 43.65625 24.015625 45.921875 
Q 28.375 48.1875 33.59375 48.1875 
Q 44.578125 48.1875 50.953125 41.515625 
Q 57.328125 34.859375 57.328125 23.390625 
Q 57.328125 12.15625 50.6875 5.359375 
Q 44.046875 -1.421875 33.015625 -1.421875 
Q 20.359375 -1.421875 13.671875 8.265625 
Q 6.984375 17.96875 6.984375 36.375 
Q 6.984375 53.65625 15.1875 63.9375 
Q 23.390625 74.21875 37.203125 74.21875 
Q 40.921875 74.21875 44.703125 73.484375 
Q 48.484375 72.75 52.59375 71.296875 
z
" id="DejaVuSans-54"/>
     <path d="M 10.984375 1.515625 
L 10.984375 10.5 
Q 14.703125 8.734375 18.5 7.8125 
Q 22.3125 6.890625 25.984375 6.890625 
Q 35.75 6.890625 40.890625 13.453125 
Q 46.046875 20.015625 46.78125 33.40625 
Q 43.953125 29.203125 39.59375 26.953125 
Q 35.25 24.703125 29.984375 24.703125 
Q 19.046875 24.703125 12.671875 31.3125 
Q 6.296875 37.9375 6.296875 49.421875 
Q 6.296875 60.640625 12.9375 67.421875 
Q 19.578125 74.21875 30.609375 74.21875 
Q 43.265625 74.21875 49.921875 64.515625 
Q 56.59375 54.828125 56.59375 36.375 
Q 56.59375 19.140625 48.40625 8.859375 
Q 40.234375 -1.421875 26.421875 -1.421875 
Q 22.703125 -1.421875 18.890625 -0.6875 
Q 15.09375 0.046875 10.984375 1.515625 
z
M 30.609375 32.421875 
Q 37.25 32.421875 41.125 36.953125 
Q 45.015625 41.5 45.015625 49.421875 
Q 45.015625 57.28125 41.125 61.84375 
Q 37.25 66.40625 30.609375 66.40625 
Q 23.96875 66.40625 20.09375 61.84375 
Q 16.21875 57.28125 16.21875 49.421875 
Q 16.21875 41.5 20.09375 36.953125 
Q 23.96875 32.421875 30.609375 32.421875 
z
" id="DejaVuSans-57"/>
     <path d="M 8.203125 72.90625 
L 55.078125 72.90625 
L 55.078125 68.703125 
L 28.609375 0 
L 18.3125 0 
L 43.21875 64.59375 
L 8.203125 64.59375 
z
" id="DejaVuSans-55"/>
     <path d="M 37.796875 64.3125 
L 12.890625 25.390625 
L 37.796875 25.390625 
z
M 35.203125 72.90625 
L 47.609375 72.90625 
L 47.609375 25.390625 
L 58.015625 25.390625 
L 58.015625 17.1875 
L 47.609375 17.1875 
L 47.609375 0 
L 37.796875 0 
L 37.796875 17.1875 
L 4.890625 17.1875 
L 4.890625 26.703125 
z
" id="DejaVuSans-52"/>
     <path d="M 40.578125 39.3125 
Q 47.65625 37.796875 51.625 33 
Q 55.609375 28.21875 55.609375 21.1875 
Q 55.609375 10.40625 48.1875 4.484375 
Q 40.765625 -1.421875 27.09375 -1.421875 
Q 22.515625 -1.421875 17.65625 -0.515625 
Q 12.796875 0.390625 7.625 2.203125 
L 7.625 11.71875 
Q 11.71875 9.328125 16.59375 8.109375 
Q 21.484375 6.890625 26.8125 6.890625 
Q 36.078125 6.890625 40.9375 10.546875 
Q 45.796875 14.203125 45.796875 21.1875 
Q 45.796875 27.640625 41.28125 31.265625 
Q 36.765625 34.90625 28.71875 34.90625 
L 20.21875 34.90625 
L 20.21875 43.015625 
L 29.109375 43.015625 
Q 36.375 43.015625 40.234375 45.921875 
Q 44.09375 48.828125 44.09375 54.296875 
Q 44.09375 59.90625 40.109375 62.90625 
Q 36.140625 65.921875 28.71875 65.921875 
Q 24.65625 65.921875 20.015625 65.03125 
Q 15.375 64.15625 9.8125 62.3125 
L 9.8125 71.09375 
Q 15.4375 72.65625 20.34375 73.4375 
Q 25.25 74.21875 29.59375 74.21875 
Q 40.828125 74.21875 47.359375 69.109375 
Q 53.90625 64.015625 53.90625 55.328125 
Q 53.90625 49.265625 50.4375 45.09375 
Q 46.96875 40.921875 40.578125 39.3125 
z
" id="DejaVuSans-51"/>
    </defs>
    <g transform="translate(233.248696 123.6)scale(0.12 -0.12)">
     <use transform="translate(0 0.015625)" xlink:href="#DejaVuSans-50"/>
     <use transform="translate(63.623047 0.015625)" xlink:href="#DejaVuSans-32"/>
     <use transform="translate(95.410156 0.015625)" xlink:href="#DejaVuSans-80"/>
     <use transform="translate(155.712891 0.015625)" xlink:href="#DejaVuSans-108"/>
     <use transform="translate(183.496094 0.015625)" xlink:href="#DejaVuSans-97"/>
     <use transform="translate(244.775391 0.015625)" xlink:href="#DejaVuSans-121"/>
     <use transform="translate(303.955078 0.015625)" xlink:href="#DejaVuSans-101"/>
     <use transform="translate(365.478516 0.015625)" xlink:href="#DejaVuSans-114"/>
     <use transform="translate(406.591797 0.015625)" xlink:href="#DejaVuSans-115"/>
     <use transform="translate(458.691406 0.015625)" xlink:href="#DejaVuSans-32"/>
     <use transform="translate(490.478516 0.015625)" xlink:href="#DejaVuSans-40"/>
     <use transform="translate(529.492188 0.015625)" xlink:href="#DejaVuSans-49"/>
     <use transform="translate(593.115234 0.015625)" xlink:href="#DejaVuSans-48"/>
     <use transform="translate(656.738281 0.015625)" xlink:href="#DejaVuSans-48"/>
     <use transform="translate(720.361328 0.015625)" xlink:href="#DejaVuSans-32"/>
     <use transform="translate(752.148438 0.015625)" xlink:href="#DejaVuSans-73"/>
     <use transform="translate(781.640625 0.015625)" xlink:href="#DejaVuSans-116"/>
     <use transform="translate(820.849609 0.015625)" xlink:href="#DejaVuSans-101"/>
     <use transform="translate(882.373047 0.015625)" xlink:href="#DejaVuSans-114"/>
     <use transform="translate(923.486328 0.015625)" xlink:href="#DejaVuSans-97"/>
     <use transform="translate(984.765625 0.015625)" xlink:href="#DejaVuSans-116"/>
     <use transform="translate(1023.974609 0.015625)" xlink:href="#DejaVuSans-105"/>
     <use transform="translate(1051.757812 0.015625)" xlink:href="#DejaVuSans-111"/>
     <use transform="translate(1112.939453 0.015625)" xlink:href="#DejaVuSans-110"/>
     <use transform="translate(1176.318359 0.015625)" xlink:href="#DejaVuSans-115"/>
     <use transform="translate(1228.417969 0.015625)" xlink:href="#DejaVuSans-41"/>
     <use transform="translate(1267.431641 0.015625)" xlink:href="#DejaVuSans-32"/>
     <use transform="translate(1299.21875 0.015625)" xlink:href="#DejaVuSans-Oblique-956"/>
     <use transform="translate(1382.324219 0.015625)" xlink:href="#DejaVuSans-61"/>
     <use transform="translate(1485.595703 0.015625)" xlink:href="#DejaVuSans-49"/>
     <use transform="translate(1549.21875 0.015625)" xlink:href="#DejaVuSans-49"/>
     <use transform="translate(1612.841797 0.015625)" xlink:href="#DejaVuSans-46"/>
     <use transform="translate(1644.628906 0.015625)" xlink:href="#DejaVuSans-48"/>
     <use transform="translate(1708.251953 0.015625)" xlink:href="#DejaVuSans-56"/>
     <use transform="translate(1771.875 0.015625)" xlink:href="#DejaVuSans-44"/>
     <use transform="translate(1855.61491 0.015625)" xlink:href="#DejaVuSans-Oblique-963"/>
     <use transform="translate(1938.476238 0.015625)" xlink:href="#DejaVuSans-61"/>
     <use transform="translate(2041.747722 0.015625)" xlink:href="#DejaVuSans-49"/>
     <use transform="translate(2105.370769 0.015625)" xlink:href="#DejaVuSans-46"/>
     <use transform="translate(2137.126628 0.015625)" xlink:href="#DejaVuSans-56"/>
     <use transform="translate(2200.749675 0.015625)" xlink:href="#DejaVuSans-54"/>
     <use transform="translate(2264.372722 0.015625)" xlink:href="#DejaVuSans-57"/>
     <use transform="translate(2327.995769 0.015625)" xlink:href="#DejaVuSans-49"/>
     <use transform="translate(2391.618816 0.015625)" xlink:href="#DejaVuSans-49"/>
     <use transform="translate(2455.241863 0.015625)" xlink:href="#DejaVuSans-55"/>
     <use transform="translate(2518.86491 0.015625)" xlink:href="#DejaVuSans-52"/>
     <use transform="translate(2582.487957 0.015625)" xlink:href="#DejaVuSans-51"/>
     <use transform="translate(2646.111003 0.015625)" xlink:href="#DejaVuSans-56"/>
     <use transform="translate(2709.73405 0.015625)" xlink:href="#DejaVuSans-55"/>
     <use transform="translate(2773.357097 0.015625)" xlink:href="#DejaVuSans-57"/>
     <use transform="translate(2836.964519 0.015625)" xlink:href="#DejaVuSans-50"/>
     <use transform="translate(2900.571941 0.015625)" xlink:href="#DejaVuSans-57"/>
     <use transform="translate(2964.194988 0.015625)" xlink:href="#DejaVuSans-55"/>
     <use transform="translate(3027.818035 0.015625)" xlink:href="#DejaVuSans-49"/>
     <use transform="translate(3091.441082 0.015625)" xlink:href="#DejaVuSans-57"/>
    </g>
   </g>
  </g>
  <g id="axes_2">
   <g id="patch_32">
    <path d="M 810.782609 491.165217 
L 1296 491.165217 
L 1296 129.6 
L 810.782609 129.6 
z
" style="fill:#ffffff;"/>
   </g>
   <g id="patch_33">
    <path clip-path="url(#pf517d0e96c)" d="M 832.837945 491.165217 
L 850.482213 491.165217 
L 850.482213 491.165217 
L 832.837945 491.165217 
z
" style="fill:#1f77b4;"/>
   </g>
   <g id="patch_34">
    <path clip-path="url(#pf517d0e96c)" d="M 850.482213 491.165217 
L 868.126482 491.165217 
L 868.126482 491.165217 
L 850.482213 491.165217 
z
" style="fill:#1f77b4;"/>
   </g>
   <g id="patch_35">
    <path clip-path="url(#pf517d0e96c)" d="M 868.126482 491.165217 
L 885.770751 491.165217 
L 885.770751 491.165217 
L 868.126482 491.165217 
z
" style="fill:#1f77b4;"/>
   </g>
   <g id="patch_36">
    <path clip-path="url(#pf517d0e96c)" d="M 885.770751 491.165217 
L 903.41502 491.165217 
L 903.41502 491.165217 
L 885.770751 491.165217 
z
" style="fill:#1f77b4;"/>
   </g>
   <g id="patch_37">
    <path clip-path="url(#pf517d0e96c)" d="M 903.41502 491.165217 
L 921.059289 491.165217 
L 921.059289 491.165217 
L 903.41502 491.165217 
z
" style="fill:#1f77b4;"/>
   </g>
   <g id="patch_38">
    <path clip-path="url(#pf517d0e96c)" d="M 921.059289 491.165217 
L 938.703557 491.165217 
L 938.703557 491.165217 
L 921.059289 491.165217 
z
" style="fill:#1f77b4;"/>
   </g>
   <g id="patch_39">
    <path clip-path="url(#pf517d0e96c)" d="M 938.703557 491.165217 
L 956.347826 491.165217 
L 956.347826 491.165217 
L 938.703557 491.165217 
z
" style="fill:#1f77b4;"/>
   </g>
   <g id="patch_40">
    <path clip-path="url(#pf517d0e96c)" d="M 956.347826 491.165217 
L 973.992095 491.165217 
L 973.992095 394.747826 
L 956.347826 394.747826 
z
" style="fill:#1f77b4;"/>
   </g>
   <g id="patch_41">
    <path clip-path="url(#pf517d0e96c)" d="M 973.992095 491.165217 
L 991.636364 491.165217 
L 991.636364 325.878261 
L 973.992095 325.878261 
z
" style="fill:#1f77b4;"/>
   </g>
   <g id="patch_42">
    <path clip-path="url(#pf517d0e96c)" d="M 991.636364 491.165217 
L 1009.280632 491.165217 
L 1009.280632 353.426087 
L 991.636364 353.426087 
z
" style="fill:#1f77b4;"/>
   </g>
   <g id="patch_43">
    <path clip-path="url(#pf517d0e96c)" d="M 1009.280632 491.165217 
L 1026.924901 491.165217 
L 1026.924901 160.591304 
L 1009.280632 160.591304 
z
" style="fill:#1f77b4;"/>
   </g>
   <g id="patch_44">
    <path clip-path="url(#pf517d0e96c)" d="M 1026.924901 491.165217 
L 1044.56917 491.165217 
L 1044.56917 146.817391 
L 1026.924901 146.817391 
z
" style="fill:#1f77b4;"/>
   </g>
   <g id="patch_45">
    <path clip-path="url(#pf517d0e96c)" d="M 1044.56917 491.165217 
L 1062.213439 491.165217 
L 1062.213439 298.330435 
L 1044.56917 298.330435 
z
" style="fill:#1f77b4;"/>
   </g>
   <g id="patch_46">
    <path clip-path="url(#pf517d0e96c)" d="M 1062.213439 491.165217 
L 1079.857708 491.165217 
L 1079.857708 408.521739 
L 1062.213439 408.521739 
z
" style="fill:#1f77b4;"/>
   </g>
   <g id="patch_47">
    <path clip-path="url(#pf517d0e96c)" d="M 1079.857708 491.165217 
L 1097.501976 491.165217 
L 1097.501976 463.617391 
L 1079.857708 463.617391 
z
" style="fill:#1f77b4;"/>
   </g>
   <g id="patch_48">
    <path clip-path="url(#pf517d0e96c)" d="M 1097.501976 491.165217 
L 1115.146245 491.165217 
L 1115.146245 491.165217 
L 1097.501976 491.165217 
z
" style="fill:#1f77b4;"/>
   </g>
   <g id="patch_49">
    <path clip-path="url(#pf517d0e96c)" d="M 1115.146245 491.165217 
L 1132.790514 491.165217 
L 1132.790514 491.165217 
L 1115.146245 491.165217 
z
" style="fill:#1f77b4;"/>
   </g>
   <g id="patch_50">
    <path clip-path="url(#pf517d0e96c)" d="M 1132.790514 491.165217 
L 1150.434783 491.165217 
L 1150.434783 491.165217 
L 1132.790514 491.165217 
z
" style="fill:#1f77b4;"/>
   </g>
   <g id="patch_51">
    <path clip-path="url(#pf517d0e96c)" d="M 1150.434783 491.165217 
L 1168.079051 491.165217 
L 1168.079051 491.165217 
L 1150.434783 491.165217 
z
" style="fill:#1f77b4;"/>
   </g>
   <g id="patch_52">
    <path clip-path="url(#pf517d0e96c)" d="M 1168.079051 491.165217 
L 1185.72332 491.165217 
L 1185.72332 491.165217 
L 1168.079051 491.165217 
z
" style="fill:#1f77b4;"/>
   </g>
   <g id="patch_53">
    <path clip-path="url(#pf517d0e96c)" d="M 1185.72332 491.165217 
L 1203.367589 491.165217 
L 1203.367589 491.165217 
L 1185.72332 491.165217 
z
" style="fill:#1f77b4;"/>
   </g>
   <g id="patch_54">
    <path clip-path="url(#pf517d0e96c)" d="M 1203.367589 491.165217 
L 1221.011858 491.165217 
L 1221.011858 491.165217 
L 1203.367589 491.165217 
z
" style="fill:#1f77b4;"/>
   </g>
   <g id="patch_55">
    <path clip-path="url(#pf517d0e96c)" d="M 1221.011858 491.165217 
L 1238.656126 491.165217 
L 1238.656126 491.165217 
L 1221.011858 491.165217 
z
" style="fill:#1f77b4;"/>
   </g>
   <g id="patch_56">
    <path clip-path="url(#pf517d0e96c)" d="M 1238.656126 491.165217 
L 1256.300395 491.165217 
L 1256.300395 491.165217 
L 1238.656126 491.165217 
z
" style="fill:#1f77b4;"/>
   </g>
   <g id="patch_57">
    <path clip-path="url(#pf517d0e96c)" d="M 1256.300395 491.165217 
L 1273.944664 491.165217 
L 1273.944664 491.165217 
L 1256.300395 491.165217 
z
" style="fill:#1f77b4;"/>
   </g>
   <g id="matplotlib.axis_3">
    <g id="xtick_7">
     <g id="line2d_13">
      <g>
       <use style="stroke:#000000;stroke-width:0.8;" x="832.837945" xlink:href="#m8ac0bbf6b6" y="491.165217"/>
      </g>
     </g>
     <g id="text_16">
      <!-- 0 -->
      <g transform="translate(829.656695 505.763655)scale(0.1 -0.1)">
       <use xlink:href="#DejaVuSans-48"/>
      </g>
     </g>
    </g>
    <g id="xtick_8">
     <g id="line2d_14">
      <g>
       <use style="stroke:#000000;stroke-width:0.8;" x="917.66616" xlink:href="#m8ac0bbf6b6" y="491.165217"/>
      </g>
     </g>
     <g id="text_17">
      <!-- 5 -->
      <g transform="translate(914.48491 505.763655)scale(0.1 -0.1)">
       <use xlink:href="#DejaVuSans-53"/>
      </g>
     </g>
    </g>
    <g id="xtick_9">
     <g id="line2d_15">
      <g>
       <use style="stroke:#000000;stroke-width:0.8;" x="1002.494375" xlink:href="#m8ac0bbf6b6" y="491.165217"/>
      </g>
     </g>
     <g id="text_18">
      <!-- 10 -->
      <g transform="translate(996.131875 505.763655)scale(0.1 -0.1)">
       <use xlink:href="#DejaVuSans-49"/>
       <use x="63.623047" xlink:href="#DejaVuSans-48"/>
      </g>
     </g>
    </g>
    <g id="xtick_10">
     <g id="line2d_16">
      <g>
       <use style="stroke:#000000;stroke-width:0.8;" x="1087.32259" xlink:href="#m8ac0bbf6b6" y="491.165217"/>
      </g>
     </g>
     <g id="text_19">
      <!-- 15 -->
      <g transform="translate(1080.96009 505.763655)scale(0.1 -0.1)">
       <use xlink:href="#DejaVuSans-49"/>
       <use x="63.623047" xlink:href="#DejaVuSans-53"/>
      </g>
     </g>
    </g>
    <g id="xtick_11">
     <g id="line2d_17">
      <g>
       <use style="stroke:#000000;stroke-width:0.8;" x="1172.150806" xlink:href="#m8ac0bbf6b6" y="491.165217"/>
      </g>
     </g>
     <g id="text_20">
      <!-- 20 -->
      <g transform="translate(1165.788306 505.763655)scale(0.1 -0.1)">
       <use xlink:href="#DejaVuSans-50"/>
       <use x="63.623047" xlink:href="#DejaVuSans-48"/>
      </g>
     </g>
    </g>
    <g id="xtick_12">
     <g id="line2d_18">
      <g>
       <use style="stroke:#000000;stroke-width:0.8;" x="1256.979021" xlink:href="#m8ac0bbf6b6" y="491.165217"/>
      </g>
     </g>
     <g id="text_21">
      <!-- 25 -->
      <g transform="translate(1250.616521 505.763655)scale(0.1 -0.1)">
       <use xlink:href="#DejaVuSans-50"/>
       <use x="63.623047" xlink:href="#DejaVuSans-53"/>
      </g>
     </g>
    </g>
    <g id="text_22">
     <!-- Scores -->
     <g transform="translate(1036.673336 519.44178)scale(0.1 -0.1)">
      <use xlink:href="#DejaVuSans-83"/>
      <use x="63.476562" xlink:href="#DejaVuSans-99"/>
      <use x="118.457031" xlink:href="#DejaVuSans-111"/>
      <use x="179.638672" xlink:href="#DejaVuSans-114"/>
      <use x="220.720703" xlink:href="#DejaVuSans-101"/>
      <use x="282.244141" xlink:href="#DejaVuSans-115"/>
     </g>
    </g>
   </g>
   <g id="matplotlib.axis_4">
    <g id="ytick_7">
     <g id="line2d_19">
      <g>
       <use style="stroke:#000000;stroke-width:0.8;" x="810.782609" xlink:href="#mbdf2af6003" y="491.165217"/>
      </g>
     </g>
     <g id="text_23">
      <!-- 0.00 -->
      <g transform="translate(781.516984 494.964436)scale(0.1 -0.1)">
       <use xlink:href="#DejaVuSans-48"/>
       <use x="63.623047" xlink:href="#DejaVuSans-46"/>
       <use x="95.410156" xlink:href="#DejaVuSans-48"/>
       <use x="159.033203" xlink:href="#DejaVuSans-48"/>
      </g>
     </g>
    </g>
    <g id="ytick_8">
     <g id="line2d_20">
      <g>
       <use style="stroke:#000000;stroke-width:0.8;" x="810.782609" xlink:href="#mbdf2af6003" y="419.54087"/>
      </g>
     </g>
     <g id="text_24">
      <!-- 0.05 -->
      <g transform="translate(781.516984 423.340088)scale(0.1 -0.1)">
       <use xlink:href="#DejaVuSans-48"/>
       <use x="63.623047" xlink:href="#DejaVuSans-46"/>
       <use x="95.410156" xlink:href="#DejaVuSans-48"/>
       <use x="159.033203" xlink:href="#DejaVuSans-53"/>
      </g>
     </g>
    </g>
    <g id="ytick_9">
     <g id="line2d_21">
      <g>
       <use style="stroke:#000000;stroke-width:0.8;" x="810.782609" xlink:href="#mbdf2af6003" y="347.916522"/>
      </g>
     </g>
     <g id="text_25">
      <!-- 0.10 -->
      <g transform="translate(781.516984 351.71574)scale(0.1 -0.1)">
       <use xlink:href="#DejaVuSans-48"/>
       <use x="63.623047" xlink:href="#DejaVuSans-46"/>
       <use x="95.410156" xlink:href="#DejaVuSans-49"/>
       <use x="159.033203" xlink:href="#DejaVuSans-48"/>
      </g>
     </g>
    </g>
    <g id="ytick_10">
     <g id="line2d_22">
      <g>
       <use style="stroke:#000000;stroke-width:0.8;" x="810.782609" xlink:href="#mbdf2af6003" y="276.292174"/>
      </g>
     </g>
     <g id="text_26">
      <!-- 0.15 -->
      <g transform="translate(781.516984 280.091393)scale(0.1 -0.1)">
       <use xlink:href="#DejaVuSans-48"/>
       <use x="63.623047" xlink:href="#DejaVuSans-46"/>
       <use x="95.410156" xlink:href="#DejaVuSans-49"/>
       <use x="159.033203" xlink:href="#DejaVuSans-53"/>
      </g>
     </g>
    </g>
    <g id="ytick_11">
     <g id="line2d_23">
      <g>
       <use style="stroke:#000000;stroke-width:0.8;" x="810.782609" xlink:href="#mbdf2af6003" y="204.667826"/>
      </g>
     </g>
     <g id="text_27">
      <!-- 0.20 -->
      <g transform="translate(781.516984 208.467045)scale(0.1 -0.1)">
       <use xlink:href="#DejaVuSans-48"/>
       <use x="63.623047" xlink:href="#DejaVuSans-46"/>
       <use x="95.410156" xlink:href="#DejaVuSans-50"/>
       <use x="159.033203" xlink:href="#DejaVuSans-48"/>
      </g>
     </g>
    </g>
    <g id="ytick_12">
     <g id="line2d_24">
      <g>
       <use style="stroke:#000000;stroke-width:0.8;" x="810.782609" xlink:href="#mbdf2af6003" y="133.043478"/>
      </g>
     </g>
     <g id="text_28">
      <!-- 0.25 -->
      <g transform="translate(781.516984 136.842697)scale(0.1 -0.1)">
       <use xlink:href="#DejaVuSans-48"/>
       <use x="63.623047" xlink:href="#DejaVuSans-46"/>
       <use x="95.410156" xlink:href="#DejaVuSans-50"/>
       <use x="159.033203" xlink:href="#DejaVuSans-53"/>
      </g>
     </g>
    </g>
    <g id="text_29">
     <!-- Probability Density -->
     <g transform="translate(775.437296 357.606827)rotate(-90)scale(0.1 -0.1)">
      <use xlink:href="#DejaVuSans-80"/>
      <use x="60.287109" xlink:href="#DejaVuSans-114"/>
      <use x="101.369141" xlink:href="#DejaVuSans-111"/>
      <use x="162.550781" xlink:href="#DejaVuSans-98"/>
      <use x="226.027344" xlink:href="#DejaVuSans-97"/>
      <use x="287.306641" xlink:href="#DejaVuSans-98"/>
      <use x="350.783203" xlink:href="#DejaVuSans-105"/>
      <use x="378.566406" xlink:href="#DejaVuSans-108"/>
      <use x="406.349609" xlink:href="#DejaVuSans-105"/>
      <use x="434.132812" xlink:href="#DejaVuSans-116"/>
      <use x="473.341797" xlink:href="#DejaVuSans-121"/>
      <use x="532.521484" xlink:href="#DejaVuSans-32"/>
      <use x="564.308594" xlink:href="#DejaVuSans-68"/>
      <use x="641.310547" xlink:href="#DejaVuSans-101"/>
      <use x="702.833984" xlink:href="#DejaVuSans-110"/>
      <use x="766.212891" xlink:href="#DejaVuSans-115"/>
      <use x="818.3125" xlink:href="#DejaVuSans-105"/>
      <use x="846.095703" xlink:href="#DejaVuSans-116"/>
      <use x="885.304688" xlink:href="#DejaVuSans-121"/>
     </g>
    </g>
   </g>
   <g id="patch_58">
    <path d="M 810.782609 491.165217 
L 810.782609 129.6 
" style="fill:none;stroke:#000000;stroke-linecap:square;stroke-linejoin:miter;stroke-width:0.8;"/>
   </g>
   <g id="patch_59">
    <path d="M 1296 491.165217 
L 1296 129.6 
" style="fill:none;stroke:#000000;stroke-linecap:square;stroke-linejoin:miter;stroke-width:0.8;"/>
   </g>
   <g id="patch_60">
    <path d="M 810.782609 491.165217 
L 1296 491.165217 
" style="fill:none;stroke:#000000;stroke-linecap:square;stroke-linejoin:miter;stroke-width:0.8;"/>
   </g>
   <g id="patch_61">
    <path d="M 810.782609 129.6 
L 1296 129.6 
" style="fill:none;stroke:#000000;stroke-linecap:square;stroke-linejoin:miter;stroke-width:0.8;"/>
   </g>
   <g id="text_30">
    <!-- 3 Players (100 Iterations) $\mu=11.24,\ \sigma=1.68$ -->
    <g transform="translate(917.491304 123.6)scale(0.12 -0.12)">
     <use transform="translate(0 0.015625)" xlink:href="#DejaVuSans-51"/>
     <use transform="translate(63.623047 0.015625)" xlink:href="#DejaVuSans-32"/>
     <use transform="translate(95.410156 0.015625)" xlink:href="#DejaVuSans-80"/>
     <use transform="translate(155.712891 0.015625)" xlink:href="#DejaVuSans-108"/>
     <use transform="translate(183.496094 0.015625)" xlink:href="#DejaVuSans-97"/>
     <use transform="translate(244.775391 0.015625)" xlink:href="#DejaVuSans-121"/>
     <use transform="translate(303.955078 0.015625)" xlink:href="#DejaVuSans-101"/>
     <use transform="translate(365.478516 0.015625)" xlink:href="#DejaVuSans-114"/>
     <use transform="translate(406.591797 0.015625)" xlink:href="#DejaVuSans-115"/>
     <use transform="translate(458.691406 0.015625)" xlink:href="#DejaVuSans-32"/>
     <use transform="translate(490.478516 0.015625)" xlink:href="#DejaVuSans-40"/>
     <use transform="translate(529.492188 0.015625)" xlink:href="#DejaVuSans-49"/>
     <use transform="translate(593.115234 0.015625)" xlink:href="#DejaVuSans-48"/>
     <use transform="translate(656.738281 0.015625)" xlink:href="#DejaVuSans-48"/>
     <use transform="translate(720.361328 0.015625)" xlink:href="#DejaVuSans-32"/>
     <use transform="translate(752.148438 0.015625)" xlink:href="#DejaVuSans-73"/>
     <use transform="translate(781.640625 0.015625)" xlink:href="#DejaVuSans-116"/>
     <use transform="translate(820.849609 0.015625)" xlink:href="#DejaVuSans-101"/>
     <use transform="translate(882.373047 0.015625)" xlink:href="#DejaVuSans-114"/>
     <use transform="translate(923.486328 0.015625)" xlink:href="#DejaVuSans-97"/>
     <use transform="translate(984.765625 0.015625)" xlink:href="#DejaVuSans-116"/>
     <use transform="translate(1023.974609 0.015625)" xlink:href="#DejaVuSans-105"/>
     <use transform="translate(1051.757812 0.015625)" xlink:href="#DejaVuSans-111"/>
     <use transform="translate(1112.939453 0.015625)" xlink:href="#DejaVuSans-110"/>
     <use transform="translate(1176.318359 0.015625)" xlink:href="#DejaVuSans-115"/>
     <use transform="translate(1228.417969 0.015625)" xlink:href="#DejaVuSans-41"/>
     <use transform="translate(1267.431641 0.015625)" xlink:href="#DejaVuSans-32"/>
     <use transform="translate(1299.21875 0.015625)" xlink:href="#DejaVuSans-Oblique-956"/>
     <use transform="translate(1382.324219 0.015625)" xlink:href="#DejaVuSans-61"/>
     <use transform="translate(1485.595703 0.015625)" xlink:href="#DejaVuSans-49"/>
     <use transform="translate(1549.21875 0.015625)" xlink:href="#DejaVuSans-49"/>
     <use transform="translate(1612.841797 0.015625)" xlink:href="#DejaVuSans-46"/>
     <use transform="translate(1644.550781 0.015625)" xlink:href="#DejaVuSans-50"/>
     <use transform="translate(1708.173828 0.015625)" xlink:href="#DejaVuSans-52"/>
     <use transform="translate(1771.796875 0.015625)" xlink:href="#DejaVuSans-44"/>
     <use transform="translate(1855.536785 0.015625)" xlink:href="#DejaVuSans-Oblique-963"/>
     <use transform="translate(1938.398113 0.015625)" xlink:href="#DejaVuSans-61"/>
     <use transform="translate(2041.669597 0.015625)" xlink:href="#DejaVuSans-49"/>
     <use transform="translate(2105.292644 0.015625)" xlink:href="#DejaVuSans-46"/>
     <use transform="translate(2137.079753 0.015625)" xlink:href="#DejaVuSans-54"/>
     <use transform="translate(2200.7028 0.015625)" xlink:href="#DejaVuSans-56"/>
    </g>
   </g>
  </g>
  <g id="axes_3">
   <g id="patch_62">
    <path d="M 180 961.2 
L 665.217391 961.2 
L 665.217391 599.634783 
L 180 599.634783 
z
" style="fill:#ffffff;"/>
   </g>
   <g id="patch_63">
    <path clip-path="url(#pba21281087)" d="M 202.055336 961.2 
L 219.699605 961.2 
L 219.699605 961.2 
L 202.055336 961.2 
z
" style="fill:#1f77b4;"/>
   </g>
   <g id="patch_64">
    <path clip-path="url(#pba21281087)" d="M 219.699605 961.2 
L 237.343874 961.2 
L 237.343874 961.2 
L 219.699605 961.2 
z
" style="fill:#1f77b4;"/>
   </g>
   <g id="patch_65">
    <path clip-path="url(#pba21281087)" d="M 237.343874 961.2 
L 254.988142 961.2 
L 254.988142 961.2 
L 237.343874 961.2 
z
" style="fill:#1f77b4;"/>
   </g>
   <g id="patch_66">
    <path clip-path="url(#pba21281087)" d="M 254.988142 961.2 
L 272.632411 961.2 
L 272.632411 961.2 
L 254.988142 961.2 
z
" style="fill:#1f77b4;"/>
   </g>
   <g id="patch_67">
    <path clip-path="url(#pba21281087)" d="M 272.632411 961.2 
L 290.27668 961.2 
L 290.27668 961.2 
L 272.632411 961.2 
z
" style="fill:#1f77b4;"/>
   </g>
   <g id="patch_68">
    <path clip-path="url(#pba21281087)" d="M 290.27668 961.2 
L 307.920949 961.2 
L 307.920949 946.852174 
L 290.27668 946.852174 
z
" style="fill:#1f77b4;"/>
   </g>
   <g id="patch_69">
    <path clip-path="url(#pba21281087)" d="M 307.920949 961.2 
L 325.565217 961.2 
L 325.565217 946.852174 
L 307.920949 946.852174 
z
" style="fill:#1f77b4;"/>
   </g>
   <g id="patch_70">
    <path clip-path="url(#pba21281087)" d="M 325.565217 961.2 
L 343.209486 961.2 
L 343.209486 875.113043 
L 325.565217 875.113043 
z
" style="fill:#1f77b4;"/>
   </g>
   <g id="patch_71">
    <path clip-path="url(#pba21281087)" d="M 343.209486 961.2 
L 360.853755 961.2 
L 360.853755 860.765217 
L 343.209486 860.765217 
z
" style="fill:#1f77b4;"/>
   </g>
   <g id="patch_72">
    <path clip-path="url(#pba21281087)" d="M 360.853755 961.2 
L 378.498024 961.2 
L 378.498024 745.982609 
L 360.853755 745.982609 
z
" style="fill:#1f77b4;"/>
   </g>
   <g id="patch_73">
    <path clip-path="url(#pba21281087)" d="M 378.498024 961.2 
L 396.142292 961.2 
L 396.142292 616.852174 
L 378.498024 616.852174 
z
" style="fill:#1f77b4;"/>
   </g>
   <g id="patch_74">
    <path clip-path="url(#pba21281087)" d="M 396.142292 961.2 
L 413.786561 961.2 
L 413.786561 702.93913 
L 396.142292 702.93913 
z
" style="fill:#1f77b4;"/>
   </g>
   <g id="patch_75">
    <path clip-path="url(#pba21281087)" d="M 413.786561 961.2 
L 431.43083 961.2 
L 431.43083 659.895652 
L 413.786561 659.895652 
z
" style="fill:#1f77b4;"/>
   </g>
   <g id="patch_76">
    <path clip-path="url(#pba21281087)" d="M 431.43083 961.2 
L 449.075099 961.2 
L 449.075099 875.113043 
L 431.43083 875.113043 
z
" style="fill:#1f77b4;"/>
   </g>
   <g id="patch_77">
    <path clip-path="url(#pba21281087)" d="M 449.075099 961.2 
L 466.719368 961.2 
L 466.719368 946.852174 
L 449.075099 946.852174 
z
" style="fill:#1f77b4;"/>
   </g>
   <g id="patch_78">
    <path clip-path="url(#pba21281087)" d="M 466.719368 961.2 
L 484.363636 961.2 
L 484.363636 961.2 
L 466.719368 961.2 
z
" style="fill:#1f77b4;"/>
   </g>
   <g id="patch_79">
    <path clip-path="url(#pba21281087)" d="M 484.363636 961.2 
L 502.007905 961.2 
L 502.007905 961.2 
L 484.363636 961.2 
z
" style="fill:#1f77b4;"/>
   </g>
   <g id="patch_80">
    <path clip-path="url(#pba21281087)" d="M 502.007905 961.2 
L 519.652174 961.2 
L 519.652174 961.2 
L 502.007905 961.2 
z
" style="fill:#1f77b4;"/>
   </g>
   <g id="patch_81">
    <path clip-path="url(#pba21281087)" d="M 519.652174 961.2 
L 537.296443 961.2 
L 537.296443 961.2 
L 519.652174 961.2 
z
" style="fill:#1f77b4;"/>
   </g>
   <g id="patch_82">
    <path clip-path="url(#pba21281087)" d="M 537.296443 961.2 
L 554.940711 961.2 
L 554.940711 961.2 
L 537.296443 961.2 
z
" style="fill:#1f77b4;"/>
   </g>
   <g id="patch_83">
    <path clip-path="url(#pba21281087)" d="M 554.940711 961.2 
L 572.58498 961.2 
L 572.58498 961.2 
L 554.940711 961.2 
z
" style="fill:#1f77b4;"/>
   </g>
   <g id="patch_84">
    <path clip-path="url(#pba21281087)" d="M 572.58498 961.2 
L 590.229249 961.2 
L 590.229249 961.2 
L 572.58498 961.2 
z
" style="fill:#1f77b4;"/>
   </g>
   <g id="patch_85">
    <path clip-path="url(#pba21281087)" d="M 590.229249 961.2 
L 607.873518 961.2 
L 607.873518 961.2 
L 590.229249 961.2 
z
" style="fill:#1f77b4;"/>
   </g>
   <g id="patch_86">
    <path clip-path="url(#pba21281087)" d="M 607.873518 961.2 
L 625.517787 961.2 
L 625.517787 961.2 
L 607.873518 961.2 
z
" style="fill:#1f77b4;"/>
   </g>
   <g id="patch_87">
    <path clip-path="url(#pba21281087)" d="M 625.517787 961.2 
L 643.162055 961.2 
L 643.162055 961.2 
L 625.517787 961.2 
z
" style="fill:#1f77b4;"/>
   </g>
   <g id="matplotlib.axis_5">
    <g id="xtick_13">
     <g id="line2d_25">
      <g>
       <use style="stroke:#000000;stroke-width:0.8;" x="202.055336" xlink:href="#m8ac0bbf6b6" y="961.2"/>
      </g>
     </g>
     <g id="text_31">
      <!-- 0 -->
      <g transform="translate(198.874086 975.798437)scale(0.1 -0.1)">
       <use xlink:href="#DejaVuSans-48"/>
      </g>
     </g>
    </g>
    <g id="xtick_14">
     <g id="line2d_26">
      <g>
       <use style="stroke:#000000;stroke-width:0.8;" x="286.883551" xlink:href="#m8ac0bbf6b6" y="961.2"/>
      </g>
     </g>
     <g id="text_32">
      <!-- 5 -->
      <g transform="translate(283.702301 975.798437)scale(0.1 -0.1)">
       <use xlink:href="#DejaVuSans-53"/>
      </g>
     </g>
    </g>
    <g id="xtick_15">
     <g id="line2d_27">
      <g>
       <use style="stroke:#000000;stroke-width:0.8;" x="371.711766" xlink:href="#m8ac0bbf6b6" y="961.2"/>
      </g>
     </g>
     <g id="text_33">
      <!-- 10 -->
      <g transform="translate(365.349266 975.798437)scale(0.1 -0.1)">
       <use xlink:href="#DejaVuSans-49"/>
       <use x="63.623047" xlink:href="#DejaVuSans-48"/>
      </g>
     </g>
    </g>
    <g id="xtick_16">
     <g id="line2d_28">
      <g>
       <use style="stroke:#000000;stroke-width:0.8;" x="456.539982" xlink:href="#m8ac0bbf6b6" y="961.2"/>
      </g>
     </g>
     <g id="text_34">
      <!-- 15 -->
      <g transform="translate(450.177482 975.798437)scale(0.1 -0.1)">
       <use xlink:href="#DejaVuSans-49"/>
       <use x="63.623047" xlink:href="#DejaVuSans-53"/>
      </g>
     </g>
    </g>
    <g id="xtick_17">
     <g id="line2d_29">
      <g>
       <use style="stroke:#000000;stroke-width:0.8;" x="541.368197" xlink:href="#m8ac0bbf6b6" y="961.2"/>
      </g>
     </g>
     <g id="text_35">
      <!-- 20 -->
      <g transform="translate(535.005697 975.798437)scale(0.1 -0.1)">
       <use xlink:href="#DejaVuSans-50"/>
       <use x="63.623047" xlink:href="#DejaVuSans-48"/>
      </g>
     </g>
    </g>
    <g id="xtick_18">
     <g id="line2d_30">
      <g>
       <use style="stroke:#000000;stroke-width:0.8;" x="626.196412" xlink:href="#m8ac0bbf6b6" y="961.2"/>
      </g>
     </g>
     <g id="text_36">
      <!-- 25 -->
      <g transform="translate(619.833912 975.798437)scale(0.1 -0.1)">
       <use xlink:href="#DejaVuSans-50"/>
       <use x="63.623047" xlink:href="#DejaVuSans-53"/>
      </g>
     </g>
    </g>
    <g id="text_37">
     <!-- Scores -->
     <g transform="translate(405.890727 989.476562)scale(0.1 -0.1)">
      <use xlink:href="#DejaVuSans-83"/>
      <use x="63.476562" xlink:href="#DejaVuSans-99"/>
      <use x="118.457031" xlink:href="#DejaVuSans-111"/>
      <use x="179.638672" xlink:href="#DejaVuSans-114"/>
      <use x="220.720703" xlink:href="#DejaVuSans-101"/>
      <use x="282.244141" xlink:href="#DejaVuSans-115"/>
     </g>
    </g>
   </g>
   <g id="matplotlib.axis_6">
    <g id="ytick_13">
     <g id="line2d_31">
      <g>
       <use style="stroke:#000000;stroke-width:0.8;" x="180" xlink:href="#mbdf2af6003" y="961.2"/>
      </g>
     </g>
     <g id="text_38">
      <!-- 0.00 -->
      <g transform="translate(150.734375 964.999219)scale(0.1 -0.1)">
       <use xlink:href="#DejaVuSans-48"/>
       <use x="63.623047" xlink:href="#DejaVuSans-46"/>
       <use x="95.410156" xlink:href="#DejaVuSans-48"/>
       <use x="159.033203" xlink:href="#DejaVuSans-48"/>
      </g>
     </g>
    </g>
    <g id="ytick_14">
     <g id="line2d_32">
      <g>
       <use style="stroke:#000000;stroke-width:0.8;" x="180" xlink:href="#mbdf2af6003" y="886.591304"/>
      </g>
     </g>
     <g id="text_39">
      <!-- 0.05 -->
      <g transform="translate(150.734375 890.390523)scale(0.1 -0.1)">
       <use xlink:href="#DejaVuSans-48"/>
       <use x="63.623047" xlink:href="#DejaVuSans-46"/>
       <use x="95.410156" xlink:href="#DejaVuSans-48"/>
       <use x="159.033203" xlink:href="#DejaVuSans-53"/>
      </g>
     </g>
    </g>
    <g id="ytick_15">
     <g id="line2d_33">
      <g>
       <use style="stroke:#000000;stroke-width:0.8;" x="180" xlink:href="#mbdf2af6003" y="811.982609"/>
      </g>
     </g>
     <g id="text_40">
      <!-- 0.10 -->
      <g transform="translate(150.734375 815.781827)scale(0.1 -0.1)">
       <use xlink:href="#DejaVuSans-48"/>
       <use x="63.623047" xlink:href="#DejaVuSans-46"/>
       <use x="95.410156" xlink:href="#DejaVuSans-49"/>
       <use x="159.033203" xlink:href="#DejaVuSans-48"/>
      </g>
     </g>
    </g>
    <g id="ytick_16">
     <g id="line2d_34">
      <g>
       <use style="stroke:#000000;stroke-width:0.8;" x="180" xlink:href="#mbdf2af6003" y="737.373913"/>
      </g>
     </g>
     <g id="text_41">
      <!-- 0.15 -->
      <g transform="translate(150.734375 741.173132)scale(0.1 -0.1)">
       <use xlink:href="#DejaVuSans-48"/>
       <use x="63.623047" xlink:href="#DejaVuSans-46"/>
       <use x="95.410156" xlink:href="#DejaVuSans-49"/>
       <use x="159.033203" xlink:href="#DejaVuSans-53"/>
      </g>
     </g>
    </g>
    <g id="ytick_17">
     <g id="line2d_35">
      <g>
       <use style="stroke:#000000;stroke-width:0.8;" x="180" xlink:href="#mbdf2af6003" y="662.765217"/>
      </g>
     </g>
     <g id="text_42">
      <!-- 0.20 -->
      <g transform="translate(150.734375 666.564436)scale(0.1 -0.1)">
       <use xlink:href="#DejaVuSans-48"/>
       <use x="63.623047" xlink:href="#DejaVuSans-46"/>
       <use x="95.410156" xlink:href="#DejaVuSans-50"/>
       <use x="159.033203" xlink:href="#DejaVuSans-48"/>
      </g>
     </g>
    </g>
    <g id="text_43">
     <!-- Probability Density -->
     <g transform="translate(144.654687 827.64161)rotate(-90)scale(0.1 -0.1)">
      <use xlink:href="#DejaVuSans-80"/>
      <use x="60.287109" xlink:href="#DejaVuSans-114"/>
      <use x="101.369141" xlink:href="#DejaVuSans-111"/>
      <use x="162.550781" xlink:href="#DejaVuSans-98"/>
      <use x="226.027344" xlink:href="#DejaVuSans-97"/>
      <use x="287.306641" xlink:href="#DejaVuSans-98"/>
      <use x="350.783203" xlink:href="#DejaVuSans-105"/>
      <use x="378.566406" xlink:href="#DejaVuSans-108"/>
      <use x="406.349609" xlink:href="#DejaVuSans-105"/>
      <use x="434.132812" xlink:href="#DejaVuSans-116"/>
      <use x="473.341797" xlink:href="#DejaVuSans-121"/>
      <use x="532.521484" xlink:href="#DejaVuSans-32"/>
      <use x="564.308594" xlink:href="#DejaVuSans-68"/>
      <use x="641.310547" xlink:href="#DejaVuSans-101"/>
      <use x="702.833984" xlink:href="#DejaVuSans-110"/>
      <use x="766.212891" xlink:href="#DejaVuSans-115"/>
      <use x="818.3125" xlink:href="#DejaVuSans-105"/>
      <use x="846.095703" xlink:href="#DejaVuSans-116"/>
      <use x="885.304688" xlink:href="#DejaVuSans-121"/>
     </g>
    </g>
   </g>
   <g id="patch_88">
    <path d="M 180 961.2 
L 180 599.634783 
" style="fill:none;stroke:#000000;stroke-linecap:square;stroke-linejoin:miter;stroke-width:0.8;"/>
   </g>
   <g id="patch_89">
    <path d="M 665.217391 961.2 
L 665.217391 599.634783 
" style="fill:none;stroke:#000000;stroke-linecap:square;stroke-linejoin:miter;stroke-width:0.8;"/>
   </g>
   <g id="patch_90">
    <path d="M 180 961.2 
L 665.217391 961.2 
" style="fill:none;stroke:#000000;stroke-linecap:square;stroke-linejoin:miter;stroke-width:0.8;"/>
   </g>
   <g id="patch_91">
    <path d="M 180 599.634783 
L 665.217391 599.634783 
" style="fill:none;stroke:#000000;stroke-linecap:square;stroke-linejoin:miter;stroke-width:0.8;"/>
   </g>
   <g id="text_44">
    <!-- 4 Players (100 Iterations) $\mu=11.26,\ \sigma=1.741378764083219$ -->
    <g transform="translate(237.088696 593.634783)scale(0.12 -0.12)">
     <use transform="translate(0 0.015625)" xlink:href="#DejaVuSans-52"/>
     <use transform="translate(63.623047 0.015625)" xlink:href="#DejaVuSans-32"/>
     <use transform="translate(95.410156 0.015625)" xlink:href="#DejaVuSans-80"/>
     <use transform="translate(155.712891 0.015625)" xlink:href="#DejaVuSans-108"/>
     <use transform="translate(183.496094 0.015625)" xlink:href="#DejaVuSans-97"/>
     <use transform="translate(244.775391 0.015625)" xlink:href="#DejaVuSans-121"/>
     <use transform="translate(303.955078 0.015625)" xlink:href="#DejaVuSans-101"/>
     <use transform="translate(365.478516 0.015625)" xlink:href="#DejaVuSans-114"/>
     <use transform="translate(406.591797 0.015625)" xlink:href="#DejaVuSans-115"/>
     <use transform="translate(458.691406 0.015625)" xlink:href="#DejaVuSans-32"/>
     <use transform="translate(490.478516 0.015625)" xlink:href="#DejaVuSans-40"/>
     <use transform="translate(529.492188 0.015625)" xlink:href="#DejaVuSans-49"/>
     <use transform="translate(593.115234 0.015625)" xlink:href="#DejaVuSans-48"/>
     <use transform="translate(656.738281 0.015625)" xlink:href="#DejaVuSans-48"/>
     <use transform="translate(720.361328 0.015625)" xlink:href="#DejaVuSans-32"/>
     <use transform="translate(752.148438 0.015625)" xlink:href="#DejaVuSans-73"/>
     <use transform="translate(781.640625 0.015625)" xlink:href="#DejaVuSans-116"/>
     <use transform="translate(820.849609 0.015625)" xlink:href="#DejaVuSans-101"/>
     <use transform="translate(882.373047 0.015625)" xlink:href="#DejaVuSans-114"/>
     <use transform="translate(923.486328 0.015625)" xlink:href="#DejaVuSans-97"/>
     <use transform="translate(984.765625 0.015625)" xlink:href="#DejaVuSans-116"/>
     <use transform="translate(1023.974609 0.015625)" xlink:href="#DejaVuSans-105"/>
     <use transform="translate(1051.757812 0.015625)" xlink:href="#DejaVuSans-111"/>
     <use transform="translate(1112.939453 0.015625)" xlink:href="#DejaVuSans-110"/>
     <use transform="translate(1176.318359 0.015625)" xlink:href="#DejaVuSans-115"/>
     <use transform="translate(1228.417969 0.015625)" xlink:href="#DejaVuSans-41"/>
     <use transform="translate(1267.431641 0.015625)" xlink:href="#DejaVuSans-32"/>
     <use transform="translate(1299.21875 0.015625)" xlink:href="#DejaVuSans-Oblique-956"/>
     <use transform="translate(1382.324219 0.015625)" xlink:href="#DejaVuSans-61"/>
     <use transform="translate(1485.595703 0.015625)" xlink:href="#DejaVuSans-49"/>
     <use transform="translate(1549.21875 0.015625)" xlink:href="#DejaVuSans-49"/>
     <use transform="translate(1612.841797 0.015625)" xlink:href="#DejaVuSans-46"/>
     <use transform="translate(1644.550781 0.015625)" xlink:href="#DejaVuSans-50"/>
     <use transform="translate(1708.173828 0.015625)" xlink:href="#DejaVuSans-54"/>
     <use transform="translate(1771.796875 0.015625)" xlink:href="#DejaVuSans-44"/>
     <use transform="translate(1855.536785 0.015625)" xlink:href="#DejaVuSans-Oblique-963"/>
     <use transform="translate(1938.398113 0.015625)" xlink:href="#DejaVuSans-61"/>
     <use transform="translate(2041.669597 0.015625)" xlink:href="#DejaVuSans-49"/>
     <use transform="translate(2105.292644 0.015625)" xlink:href="#DejaVuSans-46"/>
     <use transform="translate(2136.970378 0.015625)" xlink:href="#DejaVuSans-55"/>
     <use transform="translate(2200.593425 0.015625)" xlink:href="#DejaVuSans-52"/>
     <use transform="translate(2264.216472 0.015625)" xlink:href="#DejaVuSans-49"/>
     <use transform="translate(2327.839519 0.015625)" xlink:href="#DejaVuSans-51"/>
     <use transform="translate(2391.462566 0.015625)" xlink:href="#DejaVuSans-55"/>
     <use transform="translate(2455.085613 0.015625)" xlink:href="#DejaVuSans-56"/>
     <use transform="translate(2518.70866 0.015625)" xlink:href="#DejaVuSans-55"/>
     <use transform="translate(2582.331707 0.015625)" xlink:href="#DejaVuSans-54"/>
     <use transform="translate(2645.954753 0.015625)" xlink:href="#DejaVuSans-52"/>
     <use transform="translate(2709.5778 0.015625)" xlink:href="#DejaVuSans-48"/>
     <use transform="translate(2773.200847 0.015625)" xlink:href="#DejaVuSans-56"/>
     <use transform="translate(2836.823894 0.015625)" xlink:href="#DejaVuSans-51"/>
     <use transform="translate(2900.446941 0.015625)" xlink:href="#DejaVuSans-50"/>
     <use transform="translate(2964.069988 0.015625)" xlink:href="#DejaVuSans-49"/>
     <use transform="translate(3027.693035 0.015625)" xlink:href="#DejaVuSans-57"/>
    </g>
   </g>
  </g>
  <g id="axes_4">
   <g id="patch_92">
    <path d="M 810.782609 961.2 
L 1296 961.2 
L 1296 599.634783 
L 810.782609 599.634783 
z
" style="fill:#ffffff;"/>
   </g>
   <g id="patch_93">
    <path clip-path="url(#pb97eb2bca9)" d="M 832.837945 961.2 
L 850.482213 961.2 
L 850.482213 961.2 
L 832.837945 961.2 
z
" style="fill:#1f77b4;"/>
   </g>
   <g id="patch_94">
    <path clip-path="url(#pb97eb2bca9)" d="M 850.482213 961.2 
L 868.126482 961.2 
L 868.126482 961.2 
L 850.482213 961.2 
z
" style="fill:#1f77b4;"/>
   </g>
   <g id="patch_95">
    <path clip-path="url(#pb97eb2bca9)" d="M 868.126482 961.2 
L 885.770751 961.2 
L 885.770751 961.2 
L 868.126482 961.2 
z
" style="fill:#1f77b4;"/>
   </g>
   <g id="patch_96">
    <path clip-path="url(#pb97eb2bca9)" d="M 885.770751 961.2 
L 903.41502 961.2 
L 903.41502 961.2 
L 885.770751 961.2 
z
" style="fill:#1f77b4;"/>
   </g>
   <g id="patch_97">
    <path clip-path="url(#pb97eb2bca9)" d="M 903.41502 961.2 
L 921.059289 961.2 
L 921.059289 947.426087 
L 903.41502 947.426087 
z
" style="fill:#1f77b4;"/>
   </g>
   <g id="patch_98">
    <path clip-path="url(#pb97eb2bca9)" d="M 921.059289 961.2 
L 938.703557 961.2 
L 938.703557 947.426087 
L 921.059289 947.426087 
z
" style="fill:#1f77b4;"/>
   </g>
   <g id="patch_99">
    <path clip-path="url(#pb97eb2bca9)" d="M 938.703557 961.2 
L 956.347826 961.2 
L 956.347826 919.878261 
L 938.703557 919.878261 
z
" style="fill:#1f77b4;"/>
   </g>
   <g id="patch_100">
    <path clip-path="url(#pb97eb2bca9)" d="M 956.347826 961.2 
L 973.992095 961.2 
L 973.992095 919.878261 
L 956.347826 919.878261 
z
" style="fill:#1f77b4;"/>
   </g>
   <g id="patch_101">
    <path clip-path="url(#pb97eb2bca9)" d="M 973.992095 961.2 
L 991.636364 961.2 
L 991.636364 823.46087 
L 973.992095 823.46087 
z
" style="fill:#1f77b4;"/>
   </g>
   <g id="patch_102">
    <path clip-path="url(#pb97eb2bca9)" d="M 991.636364 961.2 
L 1009.280632 961.2 
L 1009.280632 768.365217 
L 991.636364 768.365217 
z
" style="fill:#1f77b4;"/>
   </g>
   <g id="patch_103">
    <path clip-path="url(#pb97eb2bca9)" d="M 1009.280632 961.2 
L 1026.924901 961.2 
L 1026.924901 616.852174 
L 1009.280632 616.852174 
z
" style="fill:#1f77b4;"/>
   </g>
   <g id="patch_104">
    <path clip-path="url(#pb97eb2bca9)" d="M 1026.924901 961.2 
L 1044.56917 961.2 
L 1044.56917 699.495652 
L 1026.924901 699.495652 
z
" style="fill:#1f77b4;"/>
   </g>
   <g id="patch_105">
    <path clip-path="url(#pb97eb2bca9)" d="M 1044.56917 961.2 
L 1062.213439 961.2 
L 1062.213439 809.686957 
L 1044.56917 809.686957 
z
" style="fill:#1f77b4;"/>
   </g>
   <g id="patch_106">
    <path clip-path="url(#pb97eb2bca9)" d="M 1062.213439 961.2 
L 1079.857708 961.2 
L 1079.857708 823.46087 
L 1062.213439 823.46087 
z
" style="fill:#1f77b4;"/>
   </g>
   <g id="patch_107">
    <path clip-path="url(#pb97eb2bca9)" d="M 1079.857708 961.2 
L 1097.501976 961.2 
L 1097.501976 919.878261 
L 1079.857708 919.878261 
z
" style="fill:#1f77b4;"/>
   </g>
   <g id="patch_108">
    <path clip-path="url(#pb97eb2bca9)" d="M 1097.501976 961.2 
L 1115.146245 961.2 
L 1115.146245 961.2 
L 1097.501976 961.2 
z
" style="fill:#1f77b4;"/>
   </g>
   <g id="patch_109">
    <path clip-path="url(#pb97eb2bca9)" d="M 1115.146245 961.2 
L 1132.790514 961.2 
L 1132.790514 961.2 
L 1115.146245 961.2 
z
" style="fill:#1f77b4;"/>
   </g>
   <g id="patch_110">
    <path clip-path="url(#pb97eb2bca9)" d="M 1132.790514 961.2 
L 1150.434783 961.2 
L 1150.434783 961.2 
L 1132.790514 961.2 
z
" style="fill:#1f77b4;"/>
   </g>
   <g id="patch_111">
    <path clip-path="url(#pb97eb2bca9)" d="M 1150.434783 961.2 
L 1168.079051 961.2 
L 1168.079051 961.2 
L 1150.434783 961.2 
z
" style="fill:#1f77b4;"/>
   </g>
   <g id="patch_112">
    <path clip-path="url(#pb97eb2bca9)" d="M 1168.079051 961.2 
L 1185.72332 961.2 
L 1185.72332 961.2 
L 1168.079051 961.2 
z
" style="fill:#1f77b4;"/>
   </g>
   <g id="patch_113">
    <path clip-path="url(#pb97eb2bca9)" d="M 1185.72332 961.2 
L 1203.367589 961.2 
L 1203.367589 961.2 
L 1185.72332 961.2 
z
" style="fill:#1f77b4;"/>
   </g>
   <g id="patch_114">
    <path clip-path="url(#pb97eb2bca9)" d="M 1203.367589 961.2 
L 1221.011858 961.2 
L 1221.011858 961.2 
L 1203.367589 961.2 
z
" style="fill:#1f77b4;"/>
   </g>
   <g id="patch_115">
    <path clip-path="url(#pb97eb2bca9)" d="M 1221.011858 961.2 
L 1238.656126 961.2 
L 1238.656126 961.2 
L 1221.011858 961.2 
z
" style="fill:#1f77b4;"/>
   </g>
   <g id="patch_116">
    <path clip-path="url(#pb97eb2bca9)" d="M 1238.656126 961.2 
L 1256.300395 961.2 
L 1256.300395 961.2 
L 1238.656126 961.2 
z
" style="fill:#1f77b4;"/>
   </g>
   <g id="patch_117">
    <path clip-path="url(#pb97eb2bca9)" d="M 1256.300395 961.2 
L 1273.944664 961.2 
L 1273.944664 961.2 
L 1256.300395 961.2 
z
" style="fill:#1f77b4;"/>
   </g>
   <g id="matplotlib.axis_7">
    <g id="xtick_19">
     <g id="line2d_36">
      <g>
       <use style="stroke:#000000;stroke-width:0.8;" x="832.837945" xlink:href="#m8ac0bbf6b6" y="961.2"/>
      </g>
     </g>
     <g id="text_45">
      <!-- 0 -->
      <g transform="translate(829.656695 975.798437)scale(0.1 -0.1)">
       <use xlink:href="#DejaVuSans-48"/>
      </g>
     </g>
    </g>
    <g id="xtick_20">
     <g id="line2d_37">
      <g>
       <use style="stroke:#000000;stroke-width:0.8;" x="917.66616" xlink:href="#m8ac0bbf6b6" y="961.2"/>
      </g>
     </g>
     <g id="text_46">
      <!-- 5 -->
      <g transform="translate(914.48491 975.798437)scale(0.1 -0.1)">
       <use xlink:href="#DejaVuSans-53"/>
      </g>
     </g>
    </g>
    <g id="xtick_21">
     <g id="line2d_38">
      <g>
       <use style="stroke:#000000;stroke-width:0.8;" x="1002.494375" xlink:href="#m8ac0bbf6b6" y="961.2"/>
      </g>
     </g>
     <g id="text_47">
      <!-- 10 -->
      <g transform="translate(996.131875 975.798437)scale(0.1 -0.1)">
       <use xlink:href="#DejaVuSans-49"/>
       <use x="63.623047" xlink:href="#DejaVuSans-48"/>
      </g>
     </g>
    </g>
    <g id="xtick_22">
     <g id="line2d_39">
      <g>
       <use style="stroke:#000000;stroke-width:0.8;" x="1087.32259" xlink:href="#m8ac0bbf6b6" y="961.2"/>
      </g>
     </g>
     <g id="text_48">
      <!-- 15 -->
      <g transform="translate(1080.96009 975.798437)scale(0.1 -0.1)">
       <use xlink:href="#DejaVuSans-49"/>
       <use x="63.623047" xlink:href="#DejaVuSans-53"/>
      </g>
     </g>
    </g>
    <g id="xtick_23">
     <g id="line2d_40">
      <g>
       <use style="stroke:#000000;stroke-width:0.8;" x="1172.150806" xlink:href="#m8ac0bbf6b6" y="961.2"/>
      </g>
     </g>
     <g id="text_49">
      <!-- 20 -->
      <g transform="translate(1165.788306 975.798437)scale(0.1 -0.1)">
       <use xlink:href="#DejaVuSans-50"/>
       <use x="63.623047" xlink:href="#DejaVuSans-48"/>
      </g>
     </g>
    </g>
    <g id="xtick_24">
     <g id="line2d_41">
      <g>
       <use style="stroke:#000000;stroke-width:0.8;" x="1256.979021" xlink:href="#m8ac0bbf6b6" y="961.2"/>
      </g>
     </g>
     <g id="text_50">
      <!-- 25 -->
      <g transform="translate(1250.616521 975.798437)scale(0.1 -0.1)">
       <use xlink:href="#DejaVuSans-50"/>
       <use x="63.623047" xlink:href="#DejaVuSans-53"/>
      </g>
     </g>
    </g>
    <g id="text_51">
     <!-- Scores -->
     <g transform="translate(1036.673336 989.476562)scale(0.1 -0.1)">
      <use xlink:href="#DejaVuSans-83"/>
      <use x="63.476562" xlink:href="#DejaVuSans-99"/>
      <use x="118.457031" xlink:href="#DejaVuSans-111"/>
      <use x="179.638672" xlink:href="#DejaVuSans-114"/>
      <use x="220.720703" xlink:href="#DejaVuSans-101"/>
      <use x="282.244141" xlink:href="#DejaVuSans-115"/>
     </g>
    </g>
   </g>
   <g id="matplotlib.axis_8">
    <g id="ytick_18">
     <g id="line2d_42">
      <g>
       <use style="stroke:#000000;stroke-width:0.8;" x="810.782609" xlink:href="#mbdf2af6003" y="961.2"/>
      </g>
     </g>
     <g id="text_52">
      <!-- 0.00 -->
      <g transform="translate(781.516984 964.999219)scale(0.1 -0.1)">
       <use xlink:href="#DejaVuSans-48"/>
       <use x="63.623047" xlink:href="#DejaVuSans-46"/>
       <use x="95.410156" xlink:href="#DejaVuSans-48"/>
       <use x="159.033203" xlink:href="#DejaVuSans-48"/>
      </g>
     </g>
    </g>
    <g id="ytick_19">
     <g id="line2d_43">
      <g>
       <use style="stroke:#000000;stroke-width:0.8;" x="810.782609" xlink:href="#mbdf2af6003" y="889.575652"/>
      </g>
     </g>
     <g id="text_53">
      <!-- 0.05 -->
      <g transform="translate(781.516984 893.374871)scale(0.1 -0.1)">
       <use xlink:href="#DejaVuSans-48"/>
       <use x="63.623047" xlink:href="#DejaVuSans-46"/>
       <use x="95.410156" xlink:href="#DejaVuSans-48"/>
       <use x="159.033203" xlink:href="#DejaVuSans-53"/>
      </g>
     </g>
    </g>
    <g id="ytick_20">
     <g id="line2d_44">
      <g>
       <use style="stroke:#000000;stroke-width:0.8;" x="810.782609" xlink:href="#mbdf2af6003" y="817.951304"/>
      </g>
     </g>
     <g id="text_54">
      <!-- 0.10 -->
      <g transform="translate(781.516984 821.750523)scale(0.1 -0.1)">
       <use xlink:href="#DejaVuSans-48"/>
       <use x="63.623047" xlink:href="#DejaVuSans-46"/>
       <use x="95.410156" xlink:href="#DejaVuSans-49"/>
       <use x="159.033203" xlink:href="#DejaVuSans-48"/>
      </g>
     </g>
    </g>
    <g id="ytick_21">
     <g id="line2d_45">
      <g>
       <use style="stroke:#000000;stroke-width:0.8;" x="810.782609" xlink:href="#mbdf2af6003" y="746.326957"/>
      </g>
     </g>
     <g id="text_55">
      <!-- 0.15 -->
      <g transform="translate(781.516984 750.126175)scale(0.1 -0.1)">
       <use xlink:href="#DejaVuSans-48"/>
       <use x="63.623047" xlink:href="#DejaVuSans-46"/>
       <use x="95.410156" xlink:href="#DejaVuSans-49"/>
       <use x="159.033203" xlink:href="#DejaVuSans-53"/>
      </g>
     </g>
    </g>
    <g id="ytick_22">
     <g id="line2d_46">
      <g>
       <use style="stroke:#000000;stroke-width:0.8;" x="810.782609" xlink:href="#mbdf2af6003" y="674.702609"/>
      </g>
     </g>
     <g id="text_56">
      <!-- 0.20 -->
      <g transform="translate(781.516984 678.501827)scale(0.1 -0.1)">
       <use xlink:href="#DejaVuSans-48"/>
       <use x="63.623047" xlink:href="#DejaVuSans-46"/>
       <use x="95.410156" xlink:href="#DejaVuSans-50"/>
       <use x="159.033203" xlink:href="#DejaVuSans-48"/>
      </g>
     </g>
    </g>
    <g id="ytick_23">
     <g id="line2d_47">
      <g>
       <use style="stroke:#000000;stroke-width:0.8;" x="810.782609" xlink:href="#mbdf2af6003" y="603.078261"/>
      </g>
     </g>
     <g id="text_57">
      <!-- 0.25 -->
      <g transform="translate(781.516984 606.87748)scale(0.1 -0.1)">
       <use xlink:href="#DejaVuSans-48"/>
       <use x="63.623047" xlink:href="#DejaVuSans-46"/>
       <use x="95.410156" xlink:href="#DejaVuSans-50"/>
       <use x="159.033203" xlink:href="#DejaVuSans-53"/>
      </g>
     </g>
    </g>
    <g id="text_58">
     <!-- Probability Density -->
     <g transform="translate(775.437296 827.64161)rotate(-90)scale(0.1 -0.1)">
      <use xlink:href="#DejaVuSans-80"/>
      <use x="60.287109" xlink:href="#DejaVuSans-114"/>
      <use x="101.369141" xlink:href="#DejaVuSans-111"/>
      <use x="162.550781" xlink:href="#DejaVuSans-98"/>
      <use x="226.027344" xlink:href="#DejaVuSans-97"/>
      <use x="287.306641" xlink:href="#DejaVuSans-98"/>
      <use x="350.783203" xlink:href="#DejaVuSans-105"/>
      <use x="378.566406" xlink:href="#DejaVuSans-108"/>
      <use x="406.349609" xlink:href="#DejaVuSans-105"/>
      <use x="434.132812" xlink:href="#DejaVuSans-116"/>
      <use x="473.341797" xlink:href="#DejaVuSans-121"/>
      <use x="532.521484" xlink:href="#DejaVuSans-32"/>
      <use x="564.308594" xlink:href="#DejaVuSans-68"/>
      <use x="641.310547" xlink:href="#DejaVuSans-101"/>
      <use x="702.833984" xlink:href="#DejaVuSans-110"/>
      <use x="766.212891" xlink:href="#DejaVuSans-115"/>
      <use x="818.3125" xlink:href="#DejaVuSans-105"/>
      <use x="846.095703" xlink:href="#DejaVuSans-116"/>
      <use x="885.304688" xlink:href="#DejaVuSans-121"/>
     </g>
    </g>
   </g>
   <g id="patch_118">
    <path d="M 810.782609 961.2 
L 810.782609 599.634783 
" style="fill:none;stroke:#000000;stroke-linecap:square;stroke-linejoin:miter;stroke-width:0.8;"/>
   </g>
   <g id="patch_119">
    <path d="M 1296 961.2 
L 1296 599.634783 
" style="fill:none;stroke:#000000;stroke-linecap:square;stroke-linejoin:miter;stroke-width:0.8;"/>
   </g>
   <g id="patch_120">
    <path d="M 810.782609 961.2 
L 1296 961.2 
" style="fill:none;stroke:#000000;stroke-linecap:square;stroke-linejoin:miter;stroke-width:0.8;"/>
   </g>
   <g id="patch_121">
    <path d="M 810.782609 599.634783 
L 1296 599.634783 
" style="fill:none;stroke:#000000;stroke-linecap:square;stroke-linejoin:miter;stroke-width:0.8;"/>
   </g>
   <g id="text_59">
    <!-- 5 Players (100 Iterations) $\mu=11.17,\ \sigma=1.9700507607673463$ -->
    <g transform="translate(864.031304 593.634783)scale(0.12 -0.12)">
     <use transform="translate(0 0.015625)" xlink:href="#DejaVuSans-53"/>
     <use transform="translate(63.623047 0.015625)" xlink:href="#DejaVuSans-32"/>
     <use transform="translate(95.410156 0.015625)" xlink:href="#DejaVuSans-80"/>
     <use transform="translate(155.712891 0.015625)" xlink:href="#DejaVuSans-108"/>
     <use transform="translate(183.496094 0.015625)" xlink:href="#DejaVuSans-97"/>
     <use transform="translate(244.775391 0.015625)" xlink:href="#DejaVuSans-121"/>
     <use transform="translate(303.955078 0.015625)" xlink:href="#DejaVuSans-101"/>
     <use transform="translate(365.478516 0.015625)" xlink:href="#DejaVuSans-114"/>
     <use transform="translate(406.591797 0.015625)" xlink:href="#DejaVuSans-115"/>
     <use transform="translate(458.691406 0.015625)" xlink:href="#DejaVuSans-32"/>
     <use transform="translate(490.478516 0.015625)" xlink:href="#DejaVuSans-40"/>
     <use transform="translate(529.492188 0.015625)" xlink:href="#DejaVuSans-49"/>
     <use transform="translate(593.115234 0.015625)" xlink:href="#DejaVuSans-48"/>
     <use transform="translate(656.738281 0.015625)" xlink:href="#DejaVuSans-48"/>
     <use transform="translate(720.361328 0.015625)" xlink:href="#DejaVuSans-32"/>
     <use transform="translate(752.148438 0.015625)" xlink:href="#DejaVuSans-73"/>
     <use transform="translate(781.640625 0.015625)" xlink:href="#DejaVuSans-116"/>
     <use transform="translate(820.849609 0.015625)" xlink:href="#DejaVuSans-101"/>
     <use transform="translate(882.373047 0.015625)" xlink:href="#DejaVuSans-114"/>
     <use transform="translate(923.486328 0.015625)" xlink:href="#DejaVuSans-97"/>
     <use transform="translate(984.765625 0.015625)" xlink:href="#DejaVuSans-116"/>
     <use transform="translate(1023.974609 0.015625)" xlink:href="#DejaVuSans-105"/>
     <use transform="translate(1051.757812 0.015625)" xlink:href="#DejaVuSans-111"/>
     <use transform="translate(1112.939453 0.015625)" xlink:href="#DejaVuSans-110"/>
     <use transform="translate(1176.318359 0.015625)" xlink:href="#DejaVuSans-115"/>
     <use transform="translate(1228.417969 0.015625)" xlink:href="#DejaVuSans-41"/>
     <use transform="translate(1267.431641 0.015625)" xlink:href="#DejaVuSans-32"/>
     <use transform="translate(1299.21875 0.015625)" xlink:href="#DejaVuSans-Oblique-956"/>
     <use transform="translate(1382.324219 0.015625)" xlink:href="#DejaVuSans-61"/>
     <use transform="translate(1485.595703 0.015625)" xlink:href="#DejaVuSans-49"/>
     <use transform="translate(1549.21875 0.015625)" xlink:href="#DejaVuSans-49"/>
     <use transform="translate(1612.841797 0.015625)" xlink:href="#DejaVuSans-46"/>
     <use transform="translate(1644.628906 0.015625)" xlink:href="#DejaVuSans-49"/>
     <use transform="translate(1708.251953 0.015625)" xlink:href="#DejaVuSans-55"/>
     <use transform="translate(1771.875 0.015625)" xlink:href="#DejaVuSans-44"/>
     <use transform="translate(1855.61491 0.015625)" xlink:href="#DejaVuSans-Oblique-963"/>
     <use transform="translate(1938.476238 0.015625)" xlink:href="#DejaVuSans-61"/>
     <use transform="translate(2041.747722 0.015625)" xlink:href="#DejaVuSans-49"/>
     <use transform="translate(2105.370769 0.015625)" xlink:href="#DejaVuSans-46"/>
     <use transform="translate(2137.157878 0.015625)" xlink:href="#DejaVuSans-57"/>
     <use transform="translate(2200.780925 0.015625)" xlink:href="#DejaVuSans-55"/>
     <use transform="translate(2264.403972 0.015625)" xlink:href="#DejaVuSans-48"/>
     <use transform="translate(2328.027019 0.015625)" xlink:href="#DejaVuSans-48"/>
     <use transform="translate(2391.650066 0.015625)" xlink:href="#DejaVuSans-53"/>
     <use transform="translate(2455.273113 0.015625)" xlink:href="#DejaVuSans-48"/>
     <use transform="translate(2518.89616 0.015625)" xlink:href="#DejaVuSans-55"/>
     <use transform="translate(2582.519207 0.015625)" xlink:href="#DejaVuSans-54"/>
     <use transform="translate(2646.142253 0.015625)" xlink:href="#DejaVuSans-48"/>
     <use transform="translate(2709.7653 0.015625)" xlink:href="#DejaVuSans-55"/>
     <use transform="translate(2773.388347 0.015625)" xlink:href="#DejaVuSans-54"/>
     <use transform="translate(2837.011394 0.015625)" xlink:href="#DejaVuSans-55"/>
     <use transform="translate(2900.634441 0.015625)" xlink:href="#DejaVuSans-51"/>
     <use transform="translate(2964.257488 0.015625)" xlink:href="#DejaVuSans-52"/>
     <use transform="translate(3027.880535 0.015625)" xlink:href="#DejaVuSans-54"/>
     <use transform="translate(3091.503582 0.015625)" xlink:href="#DejaVuSans-51"/>
    </g>
   </g>
  </g>
 </g>
 <defs>
  <clipPath id="p9b622ae51a">
   <rect height="361.565217" width="485.217391" x="180" y="129.6"/>
  </clipPath>
  <clipPath id="pf517d0e96c">
   <rect height="361.565217" width="485.217391" x="810.782609" y="129.6"/>
  </clipPath>
  <clipPath id="pba21281087">
   <rect height="361.565217" width="485.217391" x="180" y="599.634783"/>
  </clipPath>
  <clipPath id="pb97eb2bca9">
   <rect height="361.565217" width="485.217391" x="810.782609" y="599.634783"/>
  </clipPath>
 </defs>
</svg>
