<?xml version="1.0" encoding="utf-8" standalone="no"?>
<!DOCTYPE svg PUBLIC "-//W3C//DTD SVG 1.1//EN"
  "http://www.w3.org/Graphics/SVG/1.1/DTD/svg11.dtd">
<!-- Created with matplotlib (https://matplotlib.org/) -->
<svg height="1080pt" version="1.1" viewBox="0 0 1440 1080" width="1440pt" xmlns="http://www.w3.org/2000/svg" xmlns:xlink="http://www.w3.org/1999/xlink">
 <defs>
  <style type="text/css">
*{stroke-linecap:butt;stroke-linejoin:round;}
  </style>
 </defs>
 <g id="figure_1">
  <g id="patch_1">
   <path d="M 0 1080 
L 1440 1080 
L 1440 0 
L 0 0 
z
" style="fill:#ffffff;"/>
  </g>
  <g id="axes_1">
   <g id="patch_2">
    <path d="M 180 437.6 
L 626.4 437.6 
L 626.4 129.6 
L 180 129.6 
z
" style="fill:#ffffff;"/>
   </g>
   <g id="patch_3">
    <path clip-path="url(#p02bde96a29)" d="M 200.290909 437.6 
L 216.523636 437.6 
L 216.523636 434.512281 
L 200.290909 434.512281 
z
" style="fill:#1f77b4;"/>
   </g>
   <g id="patch_4">
    <path clip-path="url(#p02bde96a29)" d="M 216.523636 437.6 
L 232.756364 437.6 
L 232.756364 431.424561 
L 216.523636 431.424561 
z
" style="fill:#1f77b4;"/>
   </g>
   <g id="patch_5">
    <path clip-path="url(#p02bde96a29)" d="M 232.756364 437.6 
L 248.989091 437.6 
L 248.989091 426.792982 
L 232.756364 426.792982 
z
" style="fill:#1f77b4;"/>
   </g>
   <g id="patch_6">
    <path clip-path="url(#p02bde96a29)" d="M 248.989091 437.6 
L 265.221818 437.6 
L 265.221818 406.722807 
L 248.989091 406.722807 
z
" style="fill:#1f77b4;"/>
   </g>
   <g id="patch_7">
    <path clip-path="url(#p02bde96a29)" d="M 265.221818 437.6 
L 281.454545 437.6 
L 281.454545 371.214035 
L 265.221818 371.214035 
z
" style="fill:#1f77b4;"/>
   </g>
   <g id="patch_8">
    <path clip-path="url(#p02bde96a29)" d="M 281.454545 437.6 
L 297.687273 437.6 
L 297.687273 269.319298 
L 281.454545 269.319298 
z
" style="fill:#1f77b4;"/>
   </g>
   <g id="patch_9">
    <path clip-path="url(#p02bde96a29)" d="M 297.687273 437.6 
L 313.92 437.6 
L 313.92 255.424561 
L 297.687273 255.424561 
z
" style="fill:#1f77b4;"/>
   </g>
   <g id="patch_10">
    <path clip-path="url(#p02bde96a29)" d="M 313.92 437.6 
L 330.152727 437.6 
L 330.152727 144.266667 
L 313.92 144.266667 
z
" style="fill:#1f77b4;"/>
   </g>
   <g id="patch_11">
    <path clip-path="url(#p02bde96a29)" d="M 330.152727 437.6 
L 346.385455 437.6 
L 346.385455 148.898246 
L 330.152727 148.898246 
z
" style="fill:#1f77b4;"/>
   </g>
   <g id="patch_12">
    <path clip-path="url(#p02bde96a29)" d="M 346.385455 437.6 
L 362.618182 437.6 
L 362.618182 192.126316 
L 346.385455 192.126316 
z
" style="fill:#1f77b4;"/>
   </g>
   <g id="patch_13">
    <path clip-path="url(#p02bde96a29)" d="M 362.618182 437.6 
L 378.850909 437.6 
L 378.850909 266.231579 
L 362.618182 266.231579 
z
" style="fill:#1f77b4;"/>
   </g>
   <g id="patch_14">
    <path clip-path="url(#p02bde96a29)" d="M 378.850909 437.6 
L 395.083636 437.6 
L 395.083636 386.652632 
L 378.850909 386.652632 
z
" style="fill:#1f77b4;"/>
   </g>
   <g id="patch_15">
    <path clip-path="url(#p02bde96a29)" d="M 395.083636 437.6 
L 411.316364 437.6 
L 411.316364 411.354386 
L 395.083636 411.354386 
z
" style="fill:#1f77b4;"/>
   </g>
   <g id="patch_16">
    <path clip-path="url(#p02bde96a29)" d="M 411.316364 437.6 
L 427.549091 437.6 
L 427.549091 437.6 
L 411.316364 437.6 
z
" style="fill:#1f77b4;"/>
   </g>
   <g id="patch_17">
    <path clip-path="url(#p02bde96a29)" d="M 427.549091 437.6 
L 443.781818 437.6 
L 443.781818 437.6 
L 427.549091 437.6 
z
" style="fill:#1f77b4;"/>
   </g>
   <g id="patch_18">
    <path clip-path="url(#p02bde96a29)" d="M 443.781818 437.6 
L 460.014545 437.6 
L 460.014545 437.6 
L 443.781818 437.6 
z
" style="fill:#1f77b4;"/>
   </g>
   <g id="patch_19">
    <path clip-path="url(#p02bde96a29)" d="M 460.014545 437.6 
L 476.247273 437.6 
L 476.247273 437.6 
L 460.014545 437.6 
z
" style="fill:#1f77b4;"/>
   </g>
   <g id="patch_20">
    <path clip-path="url(#p02bde96a29)" d="M 476.247273 437.6 
L 492.48 437.6 
L 492.48 437.6 
L 476.247273 437.6 
z
" style="fill:#1f77b4;"/>
   </g>
   <g id="patch_21">
    <path clip-path="url(#p02bde96a29)" d="M 492.48 437.6 
L 508.712727 437.6 
L 508.712727 437.6 
L 492.48 437.6 
z
" style="fill:#1f77b4;"/>
   </g>
   <g id="patch_22">
    <path clip-path="url(#p02bde96a29)" d="M 508.712727 437.6 
L 524.945455 437.6 
L 524.945455 437.6 
L 508.712727 437.6 
z
" style="fill:#1f77b4;"/>
   </g>
   <g id="patch_23">
    <path clip-path="url(#p02bde96a29)" d="M 524.945455 437.6 
L 541.178182 437.6 
L 541.178182 437.6 
L 524.945455 437.6 
z
" style="fill:#1f77b4;"/>
   </g>
   <g id="patch_24">
    <path clip-path="url(#p02bde96a29)" d="M 541.178182 437.6 
L 557.410909 437.6 
L 557.410909 437.6 
L 541.178182 437.6 
z
" style="fill:#1f77b4;"/>
   </g>
   <g id="patch_25">
    <path clip-path="url(#p02bde96a29)" d="M 557.410909 437.6 
L 573.643636 437.6 
L 573.643636 437.6 
L 557.410909 437.6 
z
" style="fill:#1f77b4;"/>
   </g>
   <g id="patch_26">
    <path clip-path="url(#p02bde96a29)" d="M 573.643636 437.6 
L 589.876364 437.6 
L 589.876364 437.6 
L 573.643636 437.6 
z
" style="fill:#1f77b4;"/>
   </g>
   <g id="patch_27">
    <path clip-path="url(#p02bde96a29)" d="M 589.876364 437.6 
L 606.109091 437.6 
L 606.109091 437.6 
L 589.876364 437.6 
z
" style="fill:#1f77b4;"/>
   </g>
   <g id="matplotlib.axis_1">
    <g id="xtick_1">
     <g id="line2d_1">
      <defs>
       <path d="M 0 0 
L 0 3.5 
" id="mafbac5ff3f" style="stroke:#000000;stroke-width:0.8;"/>
      </defs>
      <g>
       <use style="stroke:#000000;stroke-width:0.8;" x="200.290909" xlink:href="#mafbac5ff3f" y="437.6"/>
      </g>
     </g>
     <g id="text_1">
      <!-- 0 -->
      <defs>
       <path d="M 31.78125 66.40625 
Q 24.171875 66.40625 20.328125 58.90625 
Q 16.5 51.421875 16.5 36.375 
Q 16.5 21.390625 20.328125 13.890625 
Q 24.171875 6.390625 31.78125 6.390625 
Q 39.453125 6.390625 43.28125 13.890625 
Q 47.125 21.390625 47.125 36.375 
Q 47.125 51.421875 43.28125 58.90625 
Q 39.453125 66.40625 31.78125 66.40625 
z
M 31.78125 74.21875 
Q 44.046875 74.21875 50.515625 64.515625 
Q 56.984375 54.828125 56.984375 36.375 
Q 56.984375 17.96875 50.515625 8.265625 
Q 44.046875 -1.421875 31.78125 -1.421875 
Q 19.53125 -1.421875 13.0625 8.265625 
Q 6.59375 17.96875 6.59375 36.375 
Q 6.59375 54.828125 13.0625 64.515625 
Q 19.53125 74.21875 31.78125 74.21875 
z
" id="DejaVuSans-48"/>
      </defs>
      <g transform="translate(197.109659 452.198437)scale(0.1 -0.1)">
       <use xlink:href="#DejaVuSans-48"/>
      </g>
     </g>
    </g>
    <g id="xtick_2">
     <g id="line2d_2">
      <g>
       <use style="stroke:#000000;stroke-width:0.8;" x="278.332867" xlink:href="#mafbac5ff3f" y="437.6"/>
      </g>
     </g>
     <g id="text_2">
      <!-- 5 -->
      <defs>
       <path d="M 10.796875 72.90625 
L 49.515625 72.90625 
L 49.515625 64.59375 
L 19.828125 64.59375 
L 19.828125 46.734375 
Q 21.96875 47.46875 24.109375 47.828125 
Q 26.265625 48.1875 28.421875 48.1875 
Q 40.625 48.1875 47.75 41.5 
Q 54.890625 34.8125 54.890625 23.390625 
Q 54.890625 11.625 47.5625 5.09375 
Q 40.234375 -1.421875 26.90625 -1.421875 
Q 22.3125 -1.421875 17.546875 -0.640625 
Q 12.796875 0.140625 7.71875 1.703125 
L 7.71875 11.625 
Q 12.109375 9.234375 16.796875 8.0625 
Q 21.484375 6.890625 26.703125 6.890625 
Q 35.15625 6.890625 40.078125 11.328125 
Q 45.015625 15.765625 45.015625 23.390625 
Q 45.015625 31 40.078125 35.4375 
Q 35.15625 39.890625 26.703125 39.890625 
Q 22.75 39.890625 18.8125 39.015625 
Q 14.890625 38.140625 10.796875 36.28125 
z
" id="DejaVuSans-53"/>
      </defs>
      <g transform="translate(275.151617 452.198437)scale(0.1 -0.1)">
       <use xlink:href="#DejaVuSans-53"/>
      </g>
     </g>
    </g>
    <g id="xtick_3">
     <g id="line2d_3">
      <g>
       <use style="stroke:#000000;stroke-width:0.8;" x="356.374825" xlink:href="#mafbac5ff3f" y="437.6"/>
      </g>
     </g>
     <g id="text_3">
      <!-- 10 -->
      <defs>
       <path d="M 12.40625 8.296875 
L 28.515625 8.296875 
L 28.515625 63.921875 
L 10.984375 60.40625 
L 10.984375 69.390625 
L 28.421875 72.90625 
L 38.28125 72.90625 
L 38.28125 8.296875 
L 54.390625 8.296875 
L 54.390625 0 
L 12.40625 0 
z
" id="DejaVuSans-49"/>
      </defs>
      <g transform="translate(350.012325 452.198437)scale(0.1 -0.1)">
       <use xlink:href="#DejaVuSans-49"/>
       <use x="63.623047" xlink:href="#DejaVuSans-48"/>
      </g>
     </g>
    </g>
    <g id="xtick_4">
     <g id="line2d_4">
      <g>
       <use style="stroke:#000000;stroke-width:0.8;" x="434.416783" xlink:href="#mafbac5ff3f" y="437.6"/>
      </g>
     </g>
     <g id="text_4">
      <!-- 15 -->
      <g transform="translate(428.054283 452.198437)scale(0.1 -0.1)">
       <use xlink:href="#DejaVuSans-49"/>
       <use x="63.623047" xlink:href="#DejaVuSans-53"/>
      </g>
     </g>
    </g>
    <g id="xtick_5">
     <g id="line2d_5">
      <g>
       <use style="stroke:#000000;stroke-width:0.8;" x="512.458741" xlink:href="#mafbac5ff3f" y="437.6"/>
      </g>
     </g>
     <g id="text_5">
      <!-- 20 -->
      <defs>
       <path d="M 19.1875 8.296875 
L 53.609375 8.296875 
L 53.609375 0 
L 7.328125 0 
L 7.328125 8.296875 
Q 12.9375 14.109375 22.625 23.890625 
Q 32.328125 33.6875 34.8125 36.53125 
Q 39.546875 41.84375 41.421875 45.53125 
Q 43.3125 49.21875 43.3125 52.78125 
Q 43.3125 58.59375 39.234375 62.25 
Q 35.15625 65.921875 28.609375 65.921875 
Q 23.96875 65.921875 18.8125 64.3125 
Q 13.671875 62.703125 7.8125 59.421875 
L 7.8125 69.390625 
Q 13.765625 71.78125 18.9375 73 
Q 24.125 74.21875 28.421875 74.21875 
Q 39.75 74.21875 46.484375 68.546875 
Q 53.21875 62.890625 53.21875 53.421875 
Q 53.21875 48.921875 51.53125 44.890625 
Q 49.859375 40.875 45.40625 35.40625 
Q 44.1875 33.984375 37.640625 27.21875 
Q 31.109375 20.453125 19.1875 8.296875 
z
" id="DejaVuSans-50"/>
      </defs>
      <g transform="translate(506.096241 452.198437)scale(0.1 -0.1)">
       <use xlink:href="#DejaVuSans-50"/>
       <use x="63.623047" xlink:href="#DejaVuSans-48"/>
      </g>
     </g>
    </g>
    <g id="xtick_6">
     <g id="line2d_6">
      <g>
       <use style="stroke:#000000;stroke-width:0.8;" x="590.500699" xlink:href="#mafbac5ff3f" y="437.6"/>
      </g>
     </g>
     <g id="text_6">
      <!-- 25 -->
      <g transform="translate(584.138199 452.198437)scale(0.1 -0.1)">
       <use xlink:href="#DejaVuSans-50"/>
       <use x="63.623047" xlink:href="#DejaVuSans-53"/>
      </g>
     </g>
    </g>
    <g id="text_7">
     <!-- Scores -->
     <defs>
      <path d="M 53.515625 70.515625 
L 53.515625 60.890625 
Q 47.90625 63.578125 42.921875 64.890625 
Q 37.9375 66.21875 33.296875 66.21875 
Q 25.25 66.21875 20.875 63.09375 
Q 16.5 59.96875 16.5 54.203125 
Q 16.5 49.359375 19.40625 46.890625 
Q 22.3125 44.4375 30.421875 42.921875 
L 36.375 41.703125 
Q 47.40625 39.59375 52.65625 34.296875 
Q 57.90625 29 57.90625 20.125 
Q 57.90625 9.515625 50.796875 4.046875 
Q 43.703125 -1.421875 29.984375 -1.421875 
Q 24.8125 -1.421875 18.96875 -0.25 
Q 13.140625 0.921875 6.890625 3.21875 
L 6.890625 13.375 
Q 12.890625 10.015625 18.65625 8.296875 
Q 24.421875 6.59375 29.984375 6.59375 
Q 38.421875 6.59375 43.015625 9.90625 
Q 47.609375 13.234375 47.609375 19.390625 
Q 47.609375 24.75 44.3125 27.78125 
Q 41.015625 30.8125 33.5 32.328125 
L 27.484375 33.5 
Q 16.453125 35.6875 11.515625 40.375 
Q 6.59375 45.0625 6.59375 53.421875 
Q 6.59375 63.09375 13.40625 68.65625 
Q 20.21875 74.21875 32.171875 74.21875 
Q 37.3125 74.21875 42.625 73.28125 
Q 47.953125 72.359375 53.515625 70.515625 
z
" id="DejaVuSans-83"/>
      <path d="M 48.78125 52.59375 
L 48.78125 44.1875 
Q 44.96875 46.296875 41.140625 47.34375 
Q 37.3125 48.390625 33.40625 48.390625 
Q 24.65625 48.390625 19.8125 42.84375 
Q 14.984375 37.3125 14.984375 27.296875 
Q 14.984375 17.28125 19.8125 11.734375 
Q 24.65625 6.203125 33.40625 6.203125 
Q 37.3125 6.203125 41.140625 7.25 
Q 44.96875 8.296875 48.78125 10.40625 
L 48.78125 2.09375 
Q 45.015625 0.34375 40.984375 -0.53125 
Q 36.96875 -1.421875 32.421875 -1.421875 
Q 20.0625 -1.421875 12.78125 6.34375 
Q 5.515625 14.109375 5.515625 27.296875 
Q 5.515625 40.671875 12.859375 48.328125 
Q 20.21875 56 33.015625 56 
Q 37.15625 56 41.109375 55.140625 
Q 45.0625 54.296875 48.78125 52.59375 
z
" id="DejaVuSans-99"/>
      <path d="M 30.609375 48.390625 
Q 23.390625 48.390625 19.1875 42.75 
Q 14.984375 37.109375 14.984375 27.296875 
Q 14.984375 17.484375 19.15625 11.84375 
Q 23.34375 6.203125 30.609375 6.203125 
Q 37.796875 6.203125 41.984375 11.859375 
Q 46.1875 17.53125 46.1875 27.296875 
Q 46.1875 37.015625 41.984375 42.703125 
Q 37.796875 48.390625 30.609375 48.390625 
z
M 30.609375 56 
Q 42.328125 56 49.015625 48.375 
Q 55.71875 40.765625 55.71875 27.296875 
Q 55.71875 13.875 49.015625 6.21875 
Q 42.328125 -1.421875 30.609375 -1.421875 
Q 18.84375 -1.421875 12.171875 6.21875 
Q 5.515625 13.875 5.515625 27.296875 
Q 5.515625 40.765625 12.171875 48.375 
Q 18.84375 56 30.609375 56 
z
" id="DejaVuSans-111"/>
      <path d="M 41.109375 46.296875 
Q 39.59375 47.171875 37.8125 47.578125 
Q 36.03125 48 33.890625 48 
Q 26.265625 48 22.1875 43.046875 
Q 18.109375 38.09375 18.109375 28.8125 
L 18.109375 0 
L 9.078125 0 
L 9.078125 54.6875 
L 18.109375 54.6875 
L 18.109375 46.1875 
Q 20.953125 51.171875 25.484375 53.578125 
Q 30.03125 56 36.53125 56 
Q 37.453125 56 38.578125 55.875 
Q 39.703125 55.765625 41.0625 55.515625 
z
" id="DejaVuSans-114"/>
      <path d="M 56.203125 29.59375 
L 56.203125 25.203125 
L 14.890625 25.203125 
Q 15.484375 15.921875 20.484375 11.0625 
Q 25.484375 6.203125 34.421875 6.203125 
Q 39.59375 6.203125 44.453125 7.46875 
Q 49.3125 8.734375 54.109375 11.28125 
L 54.109375 2.78125 
Q 49.265625 0.734375 44.1875 -0.34375 
Q 39.109375 -1.421875 33.890625 -1.421875 
Q 20.796875 -1.421875 13.15625 6.1875 
Q 5.515625 13.8125 5.515625 26.8125 
Q 5.515625 40.234375 12.765625 48.109375 
Q 20.015625 56 32.328125 56 
Q 43.359375 56 49.78125 48.890625 
Q 56.203125 41.796875 56.203125 29.59375 
z
M 47.21875 32.234375 
Q 47.125 39.59375 43.09375 43.984375 
Q 39.0625 48.390625 32.421875 48.390625 
Q 24.90625 48.390625 20.390625 44.140625 
Q 15.875 39.890625 15.1875 32.171875 
z
" id="DejaVuSans-101"/>
      <path d="M 44.28125 53.078125 
L 44.28125 44.578125 
Q 40.484375 46.53125 36.375 47.5 
Q 32.28125 48.484375 27.875 48.484375 
Q 21.1875 48.484375 17.84375 46.4375 
Q 14.5 44.390625 14.5 40.28125 
Q 14.5 37.15625 16.890625 35.375 
Q 19.28125 33.59375 26.515625 31.984375 
L 29.59375 31.296875 
Q 39.15625 29.25 43.1875 25.515625 
Q 47.21875 21.78125 47.21875 15.09375 
Q 47.21875 7.46875 41.1875 3.015625 
Q 35.15625 -1.421875 24.609375 -1.421875 
Q 20.21875 -1.421875 15.453125 -0.5625 
Q 10.6875 0.296875 5.421875 2 
L 5.421875 11.28125 
Q 10.40625 8.6875 15.234375 7.390625 
Q 20.0625 6.109375 24.8125 6.109375 
Q 31.15625 6.109375 34.5625 8.28125 
Q 37.984375 10.453125 37.984375 14.40625 
Q 37.984375 18.0625 35.515625 20.015625 
Q 33.0625 21.96875 24.703125 23.78125 
L 21.578125 24.515625 
Q 13.234375 26.265625 9.515625 29.90625 
Q 5.8125 33.546875 5.8125 39.890625 
Q 5.8125 47.609375 11.28125 51.796875 
Q 16.75 56 26.8125 56 
Q 31.78125 56 36.171875 55.265625 
Q 40.578125 54.546875 44.28125 53.078125 
z
" id="DejaVuSans-115"/>
     </defs>
     <g transform="translate(386.482031 465.876562)scale(0.1 -0.1)">
      <use xlink:href="#DejaVuSans-83"/>
      <use x="63.476562" xlink:href="#DejaVuSans-99"/>
      <use x="118.457031" xlink:href="#DejaVuSans-111"/>
      <use x="179.638672" xlink:href="#DejaVuSans-114"/>
      <use x="220.720703" xlink:href="#DejaVuSans-101"/>
      <use x="282.244141" xlink:href="#DejaVuSans-115"/>
     </g>
    </g>
   </g>
   <g id="matplotlib.axis_2">
    <g id="ytick_1">
     <g id="line2d_7">
      <defs>
       <path d="M 0 0 
L -3.5 0 
" id="m715f038226" style="stroke:#000000;stroke-width:0.8;"/>
      </defs>
      <g>
       <use style="stroke:#000000;stroke-width:0.8;" x="180" xlink:href="#m715f038226" y="437.6"/>
      </g>
     </g>
     <g id="text_8">
      <!-- 0.000 -->
      <defs>
       <path d="M 10.6875 12.40625 
L 21 12.40625 
L 21 0 
L 10.6875 0 
z
" id="DejaVuSans-46"/>
      </defs>
      <g transform="translate(144.371875 441.399219)scale(0.1 -0.1)">
       <use xlink:href="#DejaVuSans-48"/>
       <use x="63.623047" xlink:href="#DejaVuSans-46"/>
       <use x="95.410156" xlink:href="#DejaVuSans-48"/>
       <use x="159.033203" xlink:href="#DejaVuSans-48"/>
       <use x="222.65625" xlink:href="#DejaVuSans-48"/>
      </g>
     </g>
    </g>
    <g id="ytick_2">
     <g id="line2d_8">
      <g>
       <use style="stroke:#000000;stroke-width:0.8;" x="180" xlink:href="#m715f038226" y="397.459649"/>
      </g>
     </g>
     <g id="text_9">
      <!-- 0.025 -->
      <g transform="translate(144.371875 401.258868)scale(0.1 -0.1)">
       <use xlink:href="#DejaVuSans-48"/>
       <use x="63.623047" xlink:href="#DejaVuSans-46"/>
       <use x="95.410156" xlink:href="#DejaVuSans-48"/>
       <use x="159.033203" xlink:href="#DejaVuSans-50"/>
       <use x="222.65625" xlink:href="#DejaVuSans-53"/>
      </g>
     </g>
    </g>
    <g id="ytick_3">
     <g id="line2d_9">
      <g>
       <use style="stroke:#000000;stroke-width:0.8;" x="180" xlink:href="#m715f038226" y="357.319298"/>
      </g>
     </g>
     <g id="text_10">
      <!-- 0.050 -->
      <g transform="translate(144.371875 361.118517)scale(0.1 -0.1)">
       <use xlink:href="#DejaVuSans-48"/>
       <use x="63.623047" xlink:href="#DejaVuSans-46"/>
       <use x="95.410156" xlink:href="#DejaVuSans-48"/>
       <use x="159.033203" xlink:href="#DejaVuSans-53"/>
       <use x="222.65625" xlink:href="#DejaVuSans-48"/>
      </g>
     </g>
    </g>
    <g id="ytick_4">
     <g id="line2d_10">
      <g>
       <use style="stroke:#000000;stroke-width:0.8;" x="180" xlink:href="#m715f038226" y="317.178947"/>
      </g>
     </g>
     <g id="text_11">
      <!-- 0.075 -->
      <defs>
       <path d="M 8.203125 72.90625 
L 55.078125 72.90625 
L 55.078125 68.703125 
L 28.609375 0 
L 18.3125 0 
L 43.21875 64.59375 
L 8.203125 64.59375 
z
" id="DejaVuSans-55"/>
      </defs>
      <g transform="translate(144.371875 320.978166)scale(0.1 -0.1)">
       <use xlink:href="#DejaVuSans-48"/>
       <use x="63.623047" xlink:href="#DejaVuSans-46"/>
       <use x="95.410156" xlink:href="#DejaVuSans-48"/>
       <use x="159.033203" xlink:href="#DejaVuSans-55"/>
       <use x="222.65625" xlink:href="#DejaVuSans-53"/>
      </g>
     </g>
    </g>
    <g id="ytick_5">
     <g id="line2d_11">
      <g>
       <use style="stroke:#000000;stroke-width:0.8;" x="180" xlink:href="#m715f038226" y="277.038596"/>
      </g>
     </g>
     <g id="text_12">
      <!-- 0.100 -->
      <g transform="translate(144.371875 280.837815)scale(0.1 -0.1)">
       <use xlink:href="#DejaVuSans-48"/>
       <use x="63.623047" xlink:href="#DejaVuSans-46"/>
       <use x="95.410156" xlink:href="#DejaVuSans-49"/>
       <use x="159.033203" xlink:href="#DejaVuSans-48"/>
       <use x="222.65625" xlink:href="#DejaVuSans-48"/>
      </g>
     </g>
    </g>
    <g id="ytick_6">
     <g id="line2d_12">
      <g>
       <use style="stroke:#000000;stroke-width:0.8;" x="180" xlink:href="#m715f038226" y="236.898246"/>
      </g>
     </g>
     <g id="text_13">
      <!-- 0.125 -->
      <g transform="translate(144.371875 240.697464)scale(0.1 -0.1)">
       <use xlink:href="#DejaVuSans-48"/>
       <use x="63.623047" xlink:href="#DejaVuSans-46"/>
       <use x="95.410156" xlink:href="#DejaVuSans-49"/>
       <use x="159.033203" xlink:href="#DejaVuSans-50"/>
       <use x="222.65625" xlink:href="#DejaVuSans-53"/>
      </g>
     </g>
    </g>
    <g id="ytick_7">
     <g id="line2d_13">
      <g>
       <use style="stroke:#000000;stroke-width:0.8;" x="180" xlink:href="#m715f038226" y="196.757895"/>
      </g>
     </g>
     <g id="text_14">
      <!-- 0.150 -->
      <g transform="translate(144.371875 200.557113)scale(0.1 -0.1)">
       <use xlink:href="#DejaVuSans-48"/>
       <use x="63.623047" xlink:href="#DejaVuSans-46"/>
       <use x="95.410156" xlink:href="#DejaVuSans-49"/>
       <use x="159.033203" xlink:href="#DejaVuSans-53"/>
       <use x="222.65625" xlink:href="#DejaVuSans-48"/>
      </g>
     </g>
    </g>
    <g id="ytick_8">
     <g id="line2d_14">
      <g>
       <use style="stroke:#000000;stroke-width:0.8;" x="180" xlink:href="#m715f038226" y="156.617544"/>
      </g>
     </g>
     <g id="text_15">
      <!-- 0.175 -->
      <g transform="translate(144.371875 160.416763)scale(0.1 -0.1)">
       <use xlink:href="#DejaVuSans-48"/>
       <use x="63.623047" xlink:href="#DejaVuSans-46"/>
       <use x="95.410156" xlink:href="#DejaVuSans-49"/>
       <use x="159.033203" xlink:href="#DejaVuSans-55"/>
       <use x="222.65625" xlink:href="#DejaVuSans-53"/>
      </g>
     </g>
    </g>
    <g id="text_16">
     <!-- Probability Density -->
     <defs>
      <path d="M 19.671875 64.796875 
L 19.671875 37.40625 
L 32.078125 37.40625 
Q 38.96875 37.40625 42.71875 40.96875 
Q 46.484375 44.53125 46.484375 51.125 
Q 46.484375 57.671875 42.71875 61.234375 
Q 38.96875 64.796875 32.078125 64.796875 
z
M 9.8125 72.90625 
L 32.078125 72.90625 
Q 44.34375 72.90625 50.609375 67.359375 
Q 56.890625 61.8125 56.890625 51.125 
Q 56.890625 40.328125 50.609375 34.8125 
Q 44.34375 29.296875 32.078125 29.296875 
L 19.671875 29.296875 
L 19.671875 0 
L 9.8125 0 
z
" id="DejaVuSans-80"/>
      <path d="M 48.6875 27.296875 
Q 48.6875 37.203125 44.609375 42.84375 
Q 40.53125 48.484375 33.40625 48.484375 
Q 26.265625 48.484375 22.1875 42.84375 
Q 18.109375 37.203125 18.109375 27.296875 
Q 18.109375 17.390625 22.1875 11.75 
Q 26.265625 6.109375 33.40625 6.109375 
Q 40.53125 6.109375 44.609375 11.75 
Q 48.6875 17.390625 48.6875 27.296875 
z
M 18.109375 46.390625 
Q 20.953125 51.265625 25.265625 53.625 
Q 29.59375 56 35.59375 56 
Q 45.5625 56 51.78125 48.09375 
Q 58.015625 40.1875 58.015625 27.296875 
Q 58.015625 14.40625 51.78125 6.484375 
Q 45.5625 -1.421875 35.59375 -1.421875 
Q 29.59375 -1.421875 25.265625 0.953125 
Q 20.953125 3.328125 18.109375 8.203125 
L 18.109375 0 
L 9.078125 0 
L 9.078125 75.984375 
L 18.109375 75.984375 
z
" id="DejaVuSans-98"/>
      <path d="M 34.28125 27.484375 
Q 23.390625 27.484375 19.1875 25 
Q 14.984375 22.515625 14.984375 16.5 
Q 14.984375 11.71875 18.140625 8.90625 
Q 21.296875 6.109375 26.703125 6.109375 
Q 34.1875 6.109375 38.703125 11.40625 
Q 43.21875 16.703125 43.21875 25.484375 
L 43.21875 27.484375 
z
M 52.203125 31.203125 
L 52.203125 0 
L 43.21875 0 
L 43.21875 8.296875 
Q 40.140625 3.328125 35.546875 0.953125 
Q 30.953125 -1.421875 24.3125 -1.421875 
Q 15.921875 -1.421875 10.953125 3.296875 
Q 6 8.015625 6 15.921875 
Q 6 25.140625 12.171875 29.828125 
Q 18.359375 34.515625 30.609375 34.515625 
L 43.21875 34.515625 
L 43.21875 35.40625 
Q 43.21875 41.609375 39.140625 45 
Q 35.0625 48.390625 27.6875 48.390625 
Q 23 48.390625 18.546875 47.265625 
Q 14.109375 46.140625 10.015625 43.890625 
L 10.015625 52.203125 
Q 14.9375 54.109375 19.578125 55.046875 
Q 24.21875 56 28.609375 56 
Q 40.484375 56 46.34375 49.84375 
Q 52.203125 43.703125 52.203125 31.203125 
z
" id="DejaVuSans-97"/>
      <path d="M 9.421875 54.6875 
L 18.40625 54.6875 
L 18.40625 0 
L 9.421875 0 
z
M 9.421875 75.984375 
L 18.40625 75.984375 
L 18.40625 64.59375 
L 9.421875 64.59375 
z
" id="DejaVuSans-105"/>
      <path d="M 9.421875 75.984375 
L 18.40625 75.984375 
L 18.40625 0 
L 9.421875 0 
z
" id="DejaVuSans-108"/>
      <path d="M 18.3125 70.21875 
L 18.3125 54.6875 
L 36.8125 54.6875 
L 36.8125 47.703125 
L 18.3125 47.703125 
L 18.3125 18.015625 
Q 18.3125 11.328125 20.140625 9.421875 
Q 21.96875 7.515625 27.59375 7.515625 
L 36.8125 7.515625 
L 36.8125 0 
L 27.59375 0 
Q 17.1875 0 13.234375 3.875 
Q 9.28125 7.765625 9.28125 18.015625 
L 9.28125 47.703125 
L 2.6875 47.703125 
L 2.6875 54.6875 
L 9.28125 54.6875 
L 9.28125 70.21875 
z
" id="DejaVuSans-116"/>
      <path d="M 32.171875 -5.078125 
Q 28.375 -14.84375 24.75 -17.8125 
Q 21.140625 -20.796875 15.09375 -20.796875 
L 7.90625 -20.796875 
L 7.90625 -13.28125 
L 13.1875 -13.28125 
Q 16.890625 -13.28125 18.9375 -11.515625 
Q 21 -9.765625 23.484375 -3.21875 
L 25.09375 0.875 
L 2.984375 54.6875 
L 12.5 54.6875 
L 29.59375 11.921875 
L 46.6875 54.6875 
L 56.203125 54.6875 
z
" id="DejaVuSans-121"/>
      <path id="DejaVuSans-32"/>
      <path d="M 19.671875 64.796875 
L 19.671875 8.109375 
L 31.59375 8.109375 
Q 46.6875 8.109375 53.6875 14.9375 
Q 60.6875 21.78125 60.6875 36.53125 
Q 60.6875 51.171875 53.6875 57.984375 
Q 46.6875 64.796875 31.59375 64.796875 
z
M 9.8125 72.90625 
L 30.078125 72.90625 
Q 51.265625 72.90625 61.171875 64.09375 
Q 71.09375 55.28125 71.09375 36.53125 
Q 71.09375 17.671875 61.125 8.828125 
Q 51.171875 0 30.078125 0 
L 9.8125 0 
z
" id="DejaVuSans-68"/>
      <path d="M 54.890625 33.015625 
L 54.890625 0 
L 45.90625 0 
L 45.90625 32.71875 
Q 45.90625 40.484375 42.875 44.328125 
Q 39.84375 48.1875 33.796875 48.1875 
Q 26.515625 48.1875 22.3125 43.546875 
Q 18.109375 38.921875 18.109375 30.90625 
L 18.109375 0 
L 9.078125 0 
L 9.078125 54.6875 
L 18.109375 54.6875 
L 18.109375 46.1875 
Q 21.34375 51.125 25.703125 53.5625 
Q 30.078125 56 35.796875 56 
Q 45.21875 56 50.046875 50.171875 
Q 54.890625 44.34375 54.890625 33.015625 
z
" id="DejaVuSans-110"/>
     </defs>
     <g transform="translate(138.292187 330.824219)rotate(-90)scale(0.1 -0.1)">
      <use xlink:href="#DejaVuSans-80"/>
      <use x="60.287109" xlink:href="#DejaVuSans-114"/>
      <use x="101.369141" xlink:href="#DejaVuSans-111"/>
      <use x="162.550781" xlink:href="#DejaVuSans-98"/>
      <use x="226.027344" xlink:href="#DejaVuSans-97"/>
      <use x="287.306641" xlink:href="#DejaVuSans-98"/>
      <use x="350.783203" xlink:href="#DejaVuSans-105"/>
      <use x="378.566406" xlink:href="#DejaVuSans-108"/>
      <use x="406.349609" xlink:href="#DejaVuSans-105"/>
      <use x="434.132812" xlink:href="#DejaVuSans-116"/>
      <use x="473.341797" xlink:href="#DejaVuSans-121"/>
      <use x="532.521484" xlink:href="#DejaVuSans-32"/>
      <use x="564.308594" xlink:href="#DejaVuSans-68"/>
      <use x="641.310547" xlink:href="#DejaVuSans-101"/>
      <use x="702.833984" xlink:href="#DejaVuSans-110"/>
      <use x="766.212891" xlink:href="#DejaVuSans-115"/>
      <use x="818.3125" xlink:href="#DejaVuSans-105"/>
      <use x="846.095703" xlink:href="#DejaVuSans-116"/>
      <use x="885.304688" xlink:href="#DejaVuSans-121"/>
     </g>
    </g>
   </g>
   <g id="patch_28">
    <path d="M 180 437.6 
L 180 129.6 
" style="fill:none;stroke:#000000;stroke-linecap:square;stroke-linejoin:miter;stroke-width:0.8;"/>
   </g>
   <g id="patch_29">
    <path d="M 626.4 437.6 
L 626.4 129.6 
" style="fill:none;stroke:#000000;stroke-linecap:square;stroke-linejoin:miter;stroke-width:0.8;"/>
   </g>
   <g id="patch_30">
    <path d="M 180 437.6 
L 626.4 437.6 
" style="fill:none;stroke:#000000;stroke-linecap:square;stroke-linejoin:miter;stroke-width:0.8;"/>
   </g>
   <g id="patch_31">
    <path d="M 180 129.6 
L 626.4 129.6 
" style="fill:none;stroke:#000000;stroke-linecap:square;stroke-linejoin:miter;stroke-width:0.8;"/>
   </g>
   <g id="text_17">
    <!-- $\mu=8.437,\ \sigma=2.0644686967837513$ -->
    <defs>
     <path d="M -1.3125 -20.796875 
L 13.375 54.6875 
L 22.40625 54.6875 
L 15.765625 20.65625 
Q 15.578125 19.625 15.421875 18.359375 
Q 15.28125 17.09375 15.28125 15.828125 
Q 15.28125 11.28125 18.140625 8.828125 
Q 21 6.390625 26.3125 6.390625 
Q 33.546875 6.390625 37.984375 10.484375 
Q 42.4375 14.59375 44 22.796875 
L 50.203125 54.6875 
L 59.1875 54.6875 
L 51.03125 12.640625 
Q 50.828125 11.71875 50.75 11.03125 
Q 50.6875 10.359375 50.6875 9.8125 
Q 50.6875 8.296875 51.296875 7.59375 
Q 51.90625 6.890625 53.21875 6.890625 
Q 53.71875 6.890625 54.5625 7.125 
Q 55.421875 7.375 56.984375 8.015625 
L 55.609375 0.78125 
Q 53.46875 -0.296875 51.515625 -0.859375 
Q 49.5625 -1.421875 47.703125 -1.421875 
Q 44.484375 -1.421875 42.65625 0.625 
Q 40.828125 2.6875 40.828125 6.296875 
Q 38.09375 2.390625 34.296875 0.484375 
Q 30.515625 -1.421875 25.390625 -1.421875 
Q 20.84375 -1.421875 17.453125 0.671875 
Q 14.0625 2.78125 12.984375 6.203125 
L 7.71875 -20.796875 
z
" id="DejaVuSans-Oblique-956"/>
     <path d="M 10.59375 45.40625 
L 73.1875 45.40625 
L 73.1875 37.203125 
L 10.59375 37.203125 
z
M 10.59375 25.484375 
L 73.1875 25.484375 
L 73.1875 17.1875 
L 10.59375 17.1875 
z
" id="DejaVuSans-61"/>
     <path d="M 31.78125 34.625 
Q 24.75 34.625 20.71875 30.859375 
Q 16.703125 27.09375 16.703125 20.515625 
Q 16.703125 13.921875 20.71875 10.15625 
Q 24.75 6.390625 31.78125 6.390625 
Q 38.8125 6.390625 42.859375 10.171875 
Q 46.921875 13.96875 46.921875 20.515625 
Q 46.921875 27.09375 42.890625 30.859375 
Q 38.875 34.625 31.78125 34.625 
z
M 21.921875 38.8125 
Q 15.578125 40.375 12.03125 44.71875 
Q 8.5 49.078125 8.5 55.328125 
Q 8.5 64.0625 14.71875 69.140625 
Q 20.953125 74.21875 31.78125 74.21875 
Q 42.671875 74.21875 48.875 69.140625 
Q 55.078125 64.0625 55.078125 55.328125 
Q 55.078125 49.078125 51.53125 44.71875 
Q 48 40.375 41.703125 38.8125 
Q 48.828125 37.15625 52.796875 32.3125 
Q 56.78125 27.484375 56.78125 20.515625 
Q 56.78125 9.90625 50.3125 4.234375 
Q 43.84375 -1.421875 31.78125 -1.421875 
Q 19.734375 -1.421875 13.25 4.234375 
Q 6.78125 9.90625 6.78125 20.515625 
Q 6.78125 27.484375 10.78125 32.3125 
Q 14.796875 37.15625 21.921875 38.8125 
z
M 18.3125 54.390625 
Q 18.3125 48.734375 21.84375 45.5625 
Q 25.390625 42.390625 31.78125 42.390625 
Q 38.140625 42.390625 41.71875 45.5625 
Q 45.3125 48.734375 45.3125 54.390625 
Q 45.3125 60.0625 41.71875 63.234375 
Q 38.140625 66.40625 31.78125 66.40625 
Q 25.390625 66.40625 21.84375 63.234375 
Q 18.3125 60.0625 18.3125 54.390625 
z
" id="DejaVuSans-56"/>
     <path d="M 37.796875 64.3125 
L 12.890625 25.390625 
L 37.796875 25.390625 
z
M 35.203125 72.90625 
L 47.609375 72.90625 
L 47.609375 25.390625 
L 58.015625 25.390625 
L 58.015625 17.1875 
L 47.609375 17.1875 
L 47.609375 0 
L 37.796875 0 
L 37.796875 17.1875 
L 4.890625 17.1875 
L 4.890625 26.703125 
z
" id="DejaVuSans-52"/>
     <path d="M 40.578125 39.3125 
Q 47.65625 37.796875 51.625 33 
Q 55.609375 28.21875 55.609375 21.1875 
Q 55.609375 10.40625 48.1875 4.484375 
Q 40.765625 -1.421875 27.09375 -1.421875 
Q 22.515625 -1.421875 17.65625 -0.515625 
Q 12.796875 0.390625 7.625 2.203125 
L 7.625 11.71875 
Q 11.71875 9.328125 16.59375 8.109375 
Q 21.484375 6.890625 26.8125 6.890625 
Q 36.078125 6.890625 40.9375 10.546875 
Q 45.796875 14.203125 45.796875 21.1875 
Q 45.796875 27.640625 41.28125 31.265625 
Q 36.765625 34.90625 28.71875 34.90625 
L 20.21875 34.90625 
L 20.21875 43.015625 
L 29.109375 43.015625 
Q 36.375 43.015625 40.234375 45.921875 
Q 44.09375 48.828125 44.09375 54.296875 
Q 44.09375 59.90625 40.109375 62.90625 
Q 36.140625 65.921875 28.71875 65.921875 
Q 24.65625 65.921875 20.015625 65.03125 
Q 15.375 64.15625 9.8125 62.3125 
L 9.8125 71.09375 
Q 15.4375 72.65625 20.34375 73.4375 
Q 25.25 74.21875 29.59375 74.21875 
Q 40.828125 74.21875 47.359375 69.109375 
Q 53.90625 64.015625 53.90625 55.328125 
Q 53.90625 49.265625 50.4375 45.09375 
Q 46.96875 40.921875 40.578125 39.3125 
z
" id="DejaVuSans-51"/>
     <path d="M 11.71875 12.40625 
L 22.015625 12.40625 
L 22.015625 4 
L 14.015625 -11.625 
L 7.71875 -11.625 
L 11.71875 4 
z
" id="DejaVuSans-44"/>
     <path d="M 34.671875 47.5625 
Q 27.25 47.5625 22.21875 42.1875 
Q 16.890625 36.578125 15.140625 27.296875 
Q 13.1875 17.484375 16.3125 11.8125 
Q 19.390625 6.203125 26.65625 6.203125 
Q 33.84375 6.203125 39.109375 11.859375 
Q 44.4375 17.53125 46.34375 27.296875 
Q 48.046875 36.234375 45.015625 42.1875 
Q 42.1875 47.5625 34.671875 47.5625 
z
M 36.078125 54.734375 
L 65.921875 54.6875 
L 64.15625 45.703125 
L 54.109375 45.703125 
Q 57.90625 38.09375 55.859375 27.296875 
Q 53.21875 13.875 45.0625 6.25 
Q 36.859375 -1.421875 25.140625 -1.421875 
Q 13.375 -1.421875 8.203125 6.25 
Q 3.03125 13.875 5.671875 27.296875 
Q 8.25 40.765625 16.40625 48.390625 
Q 23.1875 54.734375 36.078125 54.734375 
z
" id="DejaVuSans-Oblique-963"/>
     <path d="M 33.015625 40.375 
Q 26.375 40.375 22.484375 35.828125 
Q 18.609375 31.296875 18.609375 23.390625 
Q 18.609375 15.53125 22.484375 10.953125 
Q 26.375 6.390625 33.015625 6.390625 
Q 39.65625 6.390625 43.53125 10.953125 
Q 47.40625 15.53125 47.40625 23.390625 
Q 47.40625 31.296875 43.53125 35.828125 
Q 39.65625 40.375 33.015625 40.375 
z
M 52.59375 71.296875 
L 52.59375 62.3125 
Q 48.875 64.0625 45.09375 64.984375 
Q 41.3125 65.921875 37.59375 65.921875 
Q 27.828125 65.921875 22.671875 59.328125 
Q 17.53125 52.734375 16.796875 39.40625 
Q 19.671875 43.65625 24.015625 45.921875 
Q 28.375 48.1875 33.59375 48.1875 
Q 44.578125 48.1875 50.953125 41.515625 
Q 57.328125 34.859375 57.328125 23.390625 
Q 57.328125 12.15625 50.6875 5.359375 
Q 44.046875 -1.421875 33.015625 -1.421875 
Q 20.359375 -1.421875 13.671875 8.265625 
Q 6.984375 17.96875 6.984375 36.375 
Q 6.984375 53.65625 15.1875 63.9375 
Q 23.390625 74.21875 37.203125 74.21875 
Q 40.921875 74.21875 44.703125 73.484375 
Q 48.484375 72.75 52.59375 71.296875 
z
" id="DejaVuSans-54"/>
     <path d="M 10.984375 1.515625 
L 10.984375 10.5 
Q 14.703125 8.734375 18.5 7.8125 
Q 22.3125 6.890625 25.984375 6.890625 
Q 35.75 6.890625 40.890625 13.453125 
Q 46.046875 20.015625 46.78125 33.40625 
Q 43.953125 29.203125 39.59375 26.953125 
Q 35.25 24.703125 29.984375 24.703125 
Q 19.046875 24.703125 12.671875 31.3125 
Q 6.296875 37.9375 6.296875 49.421875 
Q 6.296875 60.640625 12.9375 67.421875 
Q 19.578125 74.21875 30.609375 74.21875 
Q 43.265625 74.21875 49.921875 64.515625 
Q 56.59375 54.828125 56.59375 36.375 
Q 56.59375 19.140625 48.40625 8.859375 
Q 40.234375 -1.421875 26.421875 -1.421875 
Q 22.703125 -1.421875 18.890625 -0.6875 
Q 15.09375 0.046875 10.984375 1.515625 
z
M 30.609375 32.421875 
Q 37.25 32.421875 41.125 36.953125 
Q 45.015625 41.5 45.015625 49.421875 
Q 45.015625 57.28125 41.125 61.84375 
Q 37.25 66.40625 30.609375 66.40625 
Q 23.96875 66.40625 20.09375 61.84375 
Q 16.21875 57.28125 16.21875 49.421875 
Q 16.21875 41.5 20.09375 36.953125 
Q 23.96875 32.421875 30.609375 32.421875 
z
" id="DejaVuSans-57"/>
    </defs>
    <g transform="translate(512.458741 -1007.452632)scale(0.1 -0.1)">
     <use transform="translate(0 0.78125)" xlink:href="#DejaVuSans-Oblique-956"/>
     <use transform="translate(83.105469 0.78125)" xlink:href="#DejaVuSans-61"/>
     <use transform="translate(186.376953 0.78125)" xlink:href="#DejaVuSans-56"/>
     <use transform="translate(250 0.78125)" xlink:href="#DejaVuSans-46"/>
     <use transform="translate(281.787109 0.78125)" xlink:href="#DejaVuSans-52"/>
     <use transform="translate(345.410156 0.78125)" xlink:href="#DejaVuSans-51"/>
     <use transform="translate(409.033203 0.78125)" xlink:href="#DejaVuSans-55"/>
     <use transform="translate(472.65625 0.78125)" xlink:href="#DejaVuSans-44"/>
     <use transform="translate(556.39616 0.78125)" xlink:href="#DejaVuSans-Oblique-963"/>
     <use transform="translate(639.257488 0.78125)" xlink:href="#DejaVuSans-61"/>
     <use transform="translate(742.528972 0.78125)" xlink:href="#DejaVuSans-50"/>
     <use transform="translate(806.152019 0.78125)" xlink:href="#DejaVuSans-46"/>
     <use transform="translate(837.939128 0.78125)" xlink:href="#DejaVuSans-48"/>
     <use transform="translate(901.562175 0.78125)" xlink:href="#DejaVuSans-54"/>
     <use transform="translate(965.185222 0.78125)" xlink:href="#DejaVuSans-52"/>
     <use transform="translate(1028.808269 0.78125)" xlink:href="#DejaVuSans-52"/>
     <use transform="translate(1092.431316 0.78125)" xlink:href="#DejaVuSans-54"/>
     <use transform="translate(1156.054363 0.78125)" xlink:href="#DejaVuSans-56"/>
     <use transform="translate(1219.67741 0.78125)" xlink:href="#DejaVuSans-54"/>
     <use transform="translate(1283.300457 0.78125)" xlink:href="#DejaVuSans-57"/>
     <use transform="translate(1346.923503 0.78125)" xlink:href="#DejaVuSans-54"/>
     <use transform="translate(1410.54655 0.78125)" xlink:href="#DejaVuSans-55"/>
     <use transform="translate(1474.169597 0.78125)" xlink:href="#DejaVuSans-56"/>
     <use transform="translate(1537.792644 0.78125)" xlink:href="#DejaVuSans-51"/>
     <use transform="translate(1601.415691 0.78125)" xlink:href="#DejaVuSans-55"/>
     <use transform="translate(1665.038738 0.78125)" xlink:href="#DejaVuSans-53"/>
     <use transform="translate(1728.661785 0.78125)" xlink:href="#DejaVuSans-49"/>
     <use transform="translate(1792.284832 0.78125)" xlink:href="#DejaVuSans-51"/>
    </g>
   </g>
   <g id="text_18">
    <!-- 2 Players (1000 Iterations) -->
    <defs>
     <path d="M 31 75.875 
Q 24.46875 64.65625 21.28125 53.65625 
Q 18.109375 42.671875 18.109375 31.390625 
Q 18.109375 20.125 21.3125 9.0625 
Q 24.515625 -2 31 -13.1875 
L 23.1875 -13.1875 
Q 15.875 -1.703125 12.234375 9.375 
Q 8.59375 20.453125 8.59375 31.390625 
Q 8.59375 42.28125 12.203125 53.3125 
Q 15.828125 64.359375 23.1875 75.875 
z
" id="DejaVuSans-40"/>
     <path d="M 9.8125 72.90625 
L 19.671875 72.90625 
L 19.671875 0 
L 9.8125 0 
z
" id="DejaVuSans-73"/>
     <path d="M 8.015625 75.875 
L 15.828125 75.875 
Q 23.140625 64.359375 26.78125 53.3125 
Q 30.421875 42.28125 30.421875 31.390625 
Q 30.421875 20.453125 26.78125 9.375 
Q 23.140625 -1.703125 15.828125 -13.1875 
L 8.015625 -13.1875 
Q 14.5 -2 17.703125 9.0625 
Q 20.90625 20.125 20.90625 31.390625 
Q 20.90625 42.671875 17.703125 53.65625 
Q 14.5 64.65625 8.015625 75.875 
z
" id="DejaVuSans-41"/>
    </defs>
    <g transform="translate(323.337187 123.6)scale(0.12 -0.12)">
     <use xlink:href="#DejaVuSans-50"/>
     <use x="63.623047" xlink:href="#DejaVuSans-32"/>
     <use x="95.410156" xlink:href="#DejaVuSans-80"/>
     <use x="155.712891" xlink:href="#DejaVuSans-108"/>
     <use x="183.496094" xlink:href="#DejaVuSans-97"/>
     <use x="244.775391" xlink:href="#DejaVuSans-121"/>
     <use x="303.955078" xlink:href="#DejaVuSans-101"/>
     <use x="365.478516" xlink:href="#DejaVuSans-114"/>
     <use x="406.591797" xlink:href="#DejaVuSans-115"/>
     <use x="458.691406" xlink:href="#DejaVuSans-32"/>
     <use x="490.478516" xlink:href="#DejaVuSans-40"/>
     <use x="529.492188" xlink:href="#DejaVuSans-49"/>
     <use x="593.115234" xlink:href="#DejaVuSans-48"/>
     <use x="656.738281" xlink:href="#DejaVuSans-48"/>
     <use x="720.361328" xlink:href="#DejaVuSans-48"/>
     <use x="783.984375" xlink:href="#DejaVuSans-32"/>
     <use x="815.771484" xlink:href="#DejaVuSans-73"/>
     <use x="845.263672" xlink:href="#DejaVuSans-116"/>
     <use x="884.472656" xlink:href="#DejaVuSans-101"/>
     <use x="945.996094" xlink:href="#DejaVuSans-114"/>
     <use x="987.109375" xlink:href="#DejaVuSans-97"/>
     <use x="1048.388672" xlink:href="#DejaVuSans-116"/>
     <use x="1087.597656" xlink:href="#DejaVuSans-105"/>
     <use x="1115.380859" xlink:href="#DejaVuSans-111"/>
     <use x="1176.5625" xlink:href="#DejaVuSans-110"/>
     <use x="1239.941406" xlink:href="#DejaVuSans-115"/>
     <use x="1292.041016" xlink:href="#DejaVuSans-41"/>
    </g>
   </g>
  </g>
  <g id="axes_2">
   <g id="patch_32">
    <path d="M 849.6 437.6 
L 1296 437.6 
L 1296 129.6 
L 849.6 129.6 
z
" style="fill:#ffffff;"/>
   </g>
   <g id="patch_33">
    <path clip-path="url(#padc664c5b6)" d="M 869.890909 437.6 
L 886.123636 437.6 
L 886.123636 429.496869 
L 869.890909 429.496869 
z
" style="fill:#1f77b4;"/>
   </g>
   <g id="patch_34">
    <path clip-path="url(#padc664c5b6)" d="M 886.123636 437.6 
L 902.356364 437.6 
L 902.356364 432.738122 
L 886.123636 432.738122 
z
" style="fill:#1f77b4;"/>
   </g>
   <g id="patch_35">
    <path clip-path="url(#padc664c5b6)" d="M 902.356364 437.6 
L 918.589091 437.6 
L 918.589091 419.773112 
L 902.356364 419.773112 
z
" style="fill:#1f77b4;"/>
   </g>
   <g id="patch_36">
    <path clip-path="url(#padc664c5b6)" d="M 918.589091 437.6 
L 934.821818 437.6 
L 934.821818 405.187477 
L 918.589091 405.187477 
z
" style="fill:#1f77b4;"/>
   </g>
   <g id="patch_37">
    <path clip-path="url(#padc664c5b6)" d="M 934.821818 437.6 
L 951.054545 437.6 
L 951.054545 361.430571 
L 934.821818 361.430571 
z
" style="fill:#1f77b4;"/>
   </g>
   <g id="patch_38">
    <path clip-path="url(#padc664c5b6)" d="M 951.054545 437.6 
L 967.287273 437.6 
L 967.287273 286.881768 
L 951.054545 286.881768 
z
" style="fill:#1f77b4;"/>
   </g>
   <g id="patch_39">
    <path clip-path="url(#padc664c5b6)" d="M 967.287273 437.6 
L 983.52 437.6 
L 983.52 202.609208 
L 967.287273 202.609208 
z
" style="fill:#1f77b4;"/>
   </g>
   <g id="patch_40">
    <path clip-path="url(#padc664c5b6)" d="M 983.52 437.6 
L 999.752727 437.6 
L 999.752727 152.369797 
L 983.52 152.369797 
z
" style="fill:#1f77b4;"/>
   </g>
   <g id="patch_41">
    <path clip-path="url(#padc664c5b6)" d="M 999.752727 437.6 
L 1015.985455 437.6 
L 1015.985455 144.266667 
L 999.752727 144.266667 
z
" style="fill:#1f77b4;"/>
   </g>
   <g id="patch_42">
    <path clip-path="url(#padc664c5b6)" d="M 1015.985455 437.6 
L 1032.218182 437.6 
L 1032.218182 189.644199 
L 1015.985455 189.644199 
z
" style="fill:#1f77b4;"/>
   </g>
   <g id="patch_43">
    <path clip-path="url(#padc664c5b6)" d="M 1032.218182 437.6 
L 1048.450909 437.6 
L 1048.450909 270.675506 
L 1032.218182 270.675506 
z
" style="fill:#1f77b4;"/>
   </g>
   <g id="patch_44">
    <path clip-path="url(#padc664c5b6)" d="M 1048.450909 437.6 
L 1064.683636 437.6 
L 1064.683636 364.671823 
L 1048.450909 364.671823 
z
" style="fill:#1f77b4;"/>
   </g>
   <g id="patch_45">
    <path clip-path="url(#padc664c5b6)" d="M 1064.683636 437.6 
L 1080.916364 437.6 
L 1080.916364 410.049355 
L 1064.683636 410.049355 
z
" style="fill:#1f77b4;"/>
   </g>
   <g id="patch_46">
    <path clip-path="url(#padc664c5b6)" d="M 1080.916364 437.6 
L 1097.149091 437.6 
L 1097.149091 435.979374 
L 1080.916364 435.979374 
z
" style="fill:#1f77b4;"/>
   </g>
   <g id="patch_47">
    <path clip-path="url(#padc664c5b6)" d="M 1097.149091 437.6 
L 1113.381818 437.6 
L 1113.381818 437.6 
L 1097.149091 437.6 
z
" style="fill:#1f77b4;"/>
   </g>
   <g id="patch_48">
    <path clip-path="url(#padc664c5b6)" d="M 1113.381818 437.6 
L 1129.614545 437.6 
L 1129.614545 437.6 
L 1113.381818 437.6 
z
" style="fill:#1f77b4;"/>
   </g>
   <g id="patch_49">
    <path clip-path="url(#padc664c5b6)" d="M 1129.614545 437.6 
L 1145.847273 437.6 
L 1145.847273 437.6 
L 1129.614545 437.6 
z
" style="fill:#1f77b4;"/>
   </g>
   <g id="patch_50">
    <path clip-path="url(#padc664c5b6)" d="M 1145.847273 437.6 
L 1162.08 437.6 
L 1162.08 437.6 
L 1145.847273 437.6 
z
" style="fill:#1f77b4;"/>
   </g>
   <g id="patch_51">
    <path clip-path="url(#padc664c5b6)" d="M 1162.08 437.6 
L 1178.312727 437.6 
L 1178.312727 437.6 
L 1162.08 437.6 
z
" style="fill:#1f77b4;"/>
   </g>
   <g id="patch_52">
    <path clip-path="url(#padc664c5b6)" d="M 1178.312727 437.6 
L 1194.545455 437.6 
L 1194.545455 437.6 
L 1178.312727 437.6 
z
" style="fill:#1f77b4;"/>
   </g>
   <g id="patch_53">
    <path clip-path="url(#padc664c5b6)" d="M 1194.545455 437.6 
L 1210.778182 437.6 
L 1210.778182 437.6 
L 1194.545455 437.6 
z
" style="fill:#1f77b4;"/>
   </g>
   <g id="patch_54">
    <path clip-path="url(#padc664c5b6)" d="M 1210.778182 437.6 
L 1227.010909 437.6 
L 1227.010909 437.6 
L 1210.778182 437.6 
z
" style="fill:#1f77b4;"/>
   </g>
   <g id="patch_55">
    <path clip-path="url(#padc664c5b6)" d="M 1227.010909 437.6 
L 1243.243636 437.6 
L 1243.243636 437.6 
L 1227.010909 437.6 
z
" style="fill:#1f77b4;"/>
   </g>
   <g id="patch_56">
    <path clip-path="url(#padc664c5b6)" d="M 1243.243636 437.6 
L 1259.476364 437.6 
L 1259.476364 437.6 
L 1243.243636 437.6 
z
" style="fill:#1f77b4;"/>
   </g>
   <g id="patch_57">
    <path clip-path="url(#padc664c5b6)" d="M 1259.476364 437.6 
L 1275.709091 437.6 
L 1275.709091 437.6 
L 1259.476364 437.6 
z
" style="fill:#1f77b4;"/>
   </g>
   <g id="matplotlib.axis_3">
    <g id="xtick_7">
     <g id="line2d_15">
      <g>
       <use style="stroke:#000000;stroke-width:0.8;" x="869.890909" xlink:href="#mafbac5ff3f" y="437.6"/>
      </g>
     </g>
     <g id="text_19">
      <!-- 0 -->
      <g transform="translate(866.709659 452.198437)scale(0.1 -0.1)">
       <use xlink:href="#DejaVuSans-48"/>
      </g>
     </g>
    </g>
    <g id="xtick_8">
     <g id="line2d_16">
      <g>
       <use style="stroke:#000000;stroke-width:0.8;" x="947.932867" xlink:href="#mafbac5ff3f" y="437.6"/>
      </g>
     </g>
     <g id="text_20">
      <!-- 5 -->
      <g transform="translate(944.751617 452.198437)scale(0.1 -0.1)">
       <use xlink:href="#DejaVuSans-53"/>
      </g>
     </g>
    </g>
    <g id="xtick_9">
     <g id="line2d_17">
      <g>
       <use style="stroke:#000000;stroke-width:0.8;" x="1025.974825" xlink:href="#mafbac5ff3f" y="437.6"/>
      </g>
     </g>
     <g id="text_21">
      <!-- 10 -->
      <g transform="translate(1019.612325 452.198437)scale(0.1 -0.1)">
       <use xlink:href="#DejaVuSans-49"/>
       <use x="63.623047" xlink:href="#DejaVuSans-48"/>
      </g>
     </g>
    </g>
    <g id="xtick_10">
     <g id="line2d_18">
      <g>
       <use style="stroke:#000000;stroke-width:0.8;" x="1104.016783" xlink:href="#mafbac5ff3f" y="437.6"/>
      </g>
     </g>
     <g id="text_22">
      <!-- 15 -->
      <g transform="translate(1097.654283 452.198437)scale(0.1 -0.1)">
       <use xlink:href="#DejaVuSans-49"/>
       <use x="63.623047" xlink:href="#DejaVuSans-53"/>
      </g>
     </g>
    </g>
    <g id="xtick_11">
     <g id="line2d_19">
      <g>
       <use style="stroke:#000000;stroke-width:0.8;" x="1182.058741" xlink:href="#mafbac5ff3f" y="437.6"/>
      </g>
     </g>
     <g id="text_23">
      <!-- 20 -->
      <g transform="translate(1175.696241 452.198437)scale(0.1 -0.1)">
       <use xlink:href="#DejaVuSans-50"/>
       <use x="63.623047" xlink:href="#DejaVuSans-48"/>
      </g>
     </g>
    </g>
    <g id="xtick_12">
     <g id="line2d_20">
      <g>
       <use style="stroke:#000000;stroke-width:0.8;" x="1260.100699" xlink:href="#mafbac5ff3f" y="437.6"/>
      </g>
     </g>
     <g id="text_24">
      <!-- 25 -->
      <g transform="translate(1253.738199 452.198437)scale(0.1 -0.1)">
       <use xlink:href="#DejaVuSans-50"/>
       <use x="63.623047" xlink:href="#DejaVuSans-53"/>
      </g>
     </g>
    </g>
    <g id="text_25">
     <!-- Scores -->
     <g transform="translate(1056.082031 465.876562)scale(0.1 -0.1)">
      <use xlink:href="#DejaVuSans-83"/>
      <use x="63.476562" xlink:href="#DejaVuSans-99"/>
      <use x="118.457031" xlink:href="#DejaVuSans-111"/>
      <use x="179.638672" xlink:href="#DejaVuSans-114"/>
      <use x="220.720703" xlink:href="#DejaVuSans-101"/>
      <use x="282.244141" xlink:href="#DejaVuSans-115"/>
     </g>
    </g>
   </g>
   <g id="matplotlib.axis_4">
    <g id="ytick_9">
     <g id="line2d_21">
      <g>
       <use style="stroke:#000000;stroke-width:0.8;" x="849.6" xlink:href="#m715f038226" y="437.6"/>
      </g>
     </g>
     <g id="text_26">
      <!-- 0.000 -->
      <g transform="translate(813.971875 441.399219)scale(0.1 -0.1)">
       <use xlink:href="#DejaVuSans-48"/>
       <use x="63.623047" xlink:href="#DejaVuSans-46"/>
       <use x="95.410156" xlink:href="#DejaVuSans-48"/>
       <use x="159.033203" xlink:href="#DejaVuSans-48"/>
       <use x="222.65625" xlink:href="#DejaVuSans-48"/>
      </g>
     </g>
    </g>
    <g id="ytick_10">
     <g id="line2d_22">
      <g>
       <use style="stroke:#000000;stroke-width:0.8;" x="849.6" xlink:href="#m715f038226" y="395.46372"/>
      </g>
     </g>
     <g id="text_27">
      <!-- 0.025 -->
      <g transform="translate(813.971875 399.262939)scale(0.1 -0.1)">
       <use xlink:href="#DejaVuSans-48"/>
       <use x="63.623047" xlink:href="#DejaVuSans-46"/>
       <use x="95.410156" xlink:href="#DejaVuSans-48"/>
       <use x="159.033203" xlink:href="#DejaVuSans-50"/>
       <use x="222.65625" xlink:href="#DejaVuSans-53"/>
      </g>
     </g>
    </g>
    <g id="ytick_11">
     <g id="line2d_23">
      <g>
       <use style="stroke:#000000;stroke-width:0.8;" x="849.6" xlink:href="#m715f038226" y="353.32744"/>
      </g>
     </g>
     <g id="text_28">
      <!-- 0.050 -->
      <g transform="translate(813.971875 357.126659)scale(0.1 -0.1)">
       <use xlink:href="#DejaVuSans-48"/>
       <use x="63.623047" xlink:href="#DejaVuSans-46"/>
       <use x="95.410156" xlink:href="#DejaVuSans-48"/>
       <use x="159.033203" xlink:href="#DejaVuSans-53"/>
       <use x="222.65625" xlink:href="#DejaVuSans-48"/>
      </g>
     </g>
    </g>
    <g id="ytick_12">
     <g id="line2d_24">
      <g>
       <use style="stroke:#000000;stroke-width:0.8;" x="849.6" xlink:href="#m715f038226" y="311.19116"/>
      </g>
     </g>
     <g id="text_29">
      <!-- 0.075 -->
      <g transform="translate(813.971875 314.990379)scale(0.1 -0.1)">
       <use xlink:href="#DejaVuSans-48"/>
       <use x="63.623047" xlink:href="#DejaVuSans-46"/>
       <use x="95.410156" xlink:href="#DejaVuSans-48"/>
       <use x="159.033203" xlink:href="#DejaVuSans-55"/>
       <use x="222.65625" xlink:href="#DejaVuSans-53"/>
      </g>
     </g>
    </g>
    <g id="ytick_13">
     <g id="line2d_25">
      <g>
       <use style="stroke:#000000;stroke-width:0.8;" x="849.6" xlink:href="#m715f038226" y="269.05488"/>
      </g>
     </g>
     <g id="text_30">
      <!-- 0.100 -->
      <g transform="translate(813.971875 272.854099)scale(0.1 -0.1)">
       <use xlink:href="#DejaVuSans-48"/>
       <use x="63.623047" xlink:href="#DejaVuSans-46"/>
       <use x="95.410156" xlink:href="#DejaVuSans-49"/>
       <use x="159.033203" xlink:href="#DejaVuSans-48"/>
       <use x="222.65625" xlink:href="#DejaVuSans-48"/>
      </g>
     </g>
    </g>
    <g id="ytick_14">
     <g id="line2d_26">
      <g>
       <use style="stroke:#000000;stroke-width:0.8;" x="849.6" xlink:href="#m715f038226" y="226.9186"/>
      </g>
     </g>
     <g id="text_31">
      <!-- 0.125 -->
      <g transform="translate(813.971875 230.717819)scale(0.1 -0.1)">
       <use xlink:href="#DejaVuSans-48"/>
       <use x="63.623047" xlink:href="#DejaVuSans-46"/>
       <use x="95.410156" xlink:href="#DejaVuSans-49"/>
       <use x="159.033203" xlink:href="#DejaVuSans-50"/>
       <use x="222.65625" xlink:href="#DejaVuSans-53"/>
      </g>
     </g>
    </g>
    <g id="ytick_15">
     <g id="line2d_27">
      <g>
       <use style="stroke:#000000;stroke-width:0.8;" x="849.6" xlink:href="#m715f038226" y="184.78232"/>
      </g>
     </g>
     <g id="text_32">
      <!-- 0.150 -->
      <g transform="translate(813.971875 188.581539)scale(0.1 -0.1)">
       <use xlink:href="#DejaVuSans-48"/>
       <use x="63.623047" xlink:href="#DejaVuSans-46"/>
       <use x="95.410156" xlink:href="#DejaVuSans-49"/>
       <use x="159.033203" xlink:href="#DejaVuSans-53"/>
       <use x="222.65625" xlink:href="#DejaVuSans-48"/>
      </g>
     </g>
    </g>
    <g id="ytick_16">
     <g id="line2d_28">
      <g>
       <use style="stroke:#000000;stroke-width:0.8;" x="849.6" xlink:href="#m715f038226" y="142.646041"/>
      </g>
     </g>
     <g id="text_33">
      <!-- 0.175 -->
      <g transform="translate(813.971875 146.445259)scale(0.1 -0.1)">
       <use xlink:href="#DejaVuSans-48"/>
       <use x="63.623047" xlink:href="#DejaVuSans-46"/>
       <use x="95.410156" xlink:href="#DejaVuSans-49"/>
       <use x="159.033203" xlink:href="#DejaVuSans-55"/>
       <use x="222.65625" xlink:href="#DejaVuSans-53"/>
      </g>
     </g>
    </g>
    <g id="text_34">
     <!-- Probability Density -->
     <g transform="translate(807.892187 330.824219)rotate(-90)scale(0.1 -0.1)">
      <use xlink:href="#DejaVuSans-80"/>
      <use x="60.287109" xlink:href="#DejaVuSans-114"/>
      <use x="101.369141" xlink:href="#DejaVuSans-111"/>
      <use x="162.550781" xlink:href="#DejaVuSans-98"/>
      <use x="226.027344" xlink:href="#DejaVuSans-97"/>
      <use x="287.306641" xlink:href="#DejaVuSans-98"/>
      <use x="350.783203" xlink:href="#DejaVuSans-105"/>
      <use x="378.566406" xlink:href="#DejaVuSans-108"/>
      <use x="406.349609" xlink:href="#DejaVuSans-105"/>
      <use x="434.132812" xlink:href="#DejaVuSans-116"/>
      <use x="473.341797" xlink:href="#DejaVuSans-121"/>
      <use x="532.521484" xlink:href="#DejaVuSans-32"/>
      <use x="564.308594" xlink:href="#DejaVuSans-68"/>
      <use x="641.310547" xlink:href="#DejaVuSans-101"/>
      <use x="702.833984" xlink:href="#DejaVuSans-110"/>
      <use x="766.212891" xlink:href="#DejaVuSans-115"/>
      <use x="818.3125" xlink:href="#DejaVuSans-105"/>
      <use x="846.095703" xlink:href="#DejaVuSans-116"/>
      <use x="885.304688" xlink:href="#DejaVuSans-121"/>
     </g>
    </g>
   </g>
   <g id="patch_58">
    <path d="M 849.6 437.6 
L 849.6 129.6 
" style="fill:none;stroke:#000000;stroke-linecap:square;stroke-linejoin:miter;stroke-width:0.8;"/>
   </g>
   <g id="patch_59">
    <path d="M 1296 437.6 
L 1296 129.6 
" style="fill:none;stroke:#000000;stroke-linecap:square;stroke-linejoin:miter;stroke-width:0.8;"/>
   </g>
   <g id="patch_60">
    <path d="M 849.6 437.6 
L 1296 437.6 
" style="fill:none;stroke:#000000;stroke-linecap:square;stroke-linejoin:miter;stroke-width:0.8;"/>
   </g>
   <g id="patch_61">
    <path d="M 849.6 129.6 
L 1296 129.6 
" style="fill:none;stroke:#000000;stroke-linecap:square;stroke-linejoin:miter;stroke-width:0.8;"/>
   </g>
   <g id="text_35">
    <!-- $\mu=8.407,\ \sigma=2.1501978978689382$ -->
    <g transform="translate(1182.058741 -1079.306077)scale(0.1 -0.1)">
     <use transform="translate(0 0.78125)" xlink:href="#DejaVuSans-Oblique-956"/>
     <use transform="translate(83.105469 0.78125)" xlink:href="#DejaVuSans-61"/>
     <use transform="translate(186.376953 0.78125)" xlink:href="#DejaVuSans-56"/>
     <use transform="translate(250 0.78125)" xlink:href="#DejaVuSans-46"/>
     <use transform="translate(281.787109 0.78125)" xlink:href="#DejaVuSans-52"/>
     <use transform="translate(345.410156 0.78125)" xlink:href="#DejaVuSans-48"/>
     <use transform="translate(409.033203 0.78125)" xlink:href="#DejaVuSans-55"/>
     <use transform="translate(472.65625 0.78125)" xlink:href="#DejaVuSans-44"/>
     <use transform="translate(556.39616 0.78125)" xlink:href="#DejaVuSans-Oblique-963"/>
     <use transform="translate(639.257488 0.78125)" xlink:href="#DejaVuSans-61"/>
     <use transform="translate(742.528972 0.78125)" xlink:href="#DejaVuSans-50"/>
     <use transform="translate(806.152019 0.78125)" xlink:href="#DejaVuSans-46"/>
     <use transform="translate(837.939128 0.78125)" xlink:href="#DejaVuSans-49"/>
     <use transform="translate(901.562175 0.78125)" xlink:href="#DejaVuSans-53"/>
     <use transform="translate(965.185222 0.78125)" xlink:href="#DejaVuSans-48"/>
     <use transform="translate(1028.808269 0.78125)" xlink:href="#DejaVuSans-49"/>
     <use transform="translate(1092.431316 0.78125)" xlink:href="#DejaVuSans-57"/>
     <use transform="translate(1156.054363 0.78125)" xlink:href="#DejaVuSans-55"/>
     <use transform="translate(1219.67741 0.78125)" xlink:href="#DejaVuSans-56"/>
     <use transform="translate(1283.300457 0.78125)" xlink:href="#DejaVuSans-57"/>
     <use transform="translate(1346.923503 0.78125)" xlink:href="#DejaVuSans-55"/>
     <use transform="translate(1410.54655 0.78125)" xlink:href="#DejaVuSans-56"/>
     <use transform="translate(1474.169597 0.78125)" xlink:href="#DejaVuSans-54"/>
     <use transform="translate(1537.792644 0.78125)" xlink:href="#DejaVuSans-56"/>
     <use transform="translate(1601.415691 0.78125)" xlink:href="#DejaVuSans-57"/>
     <use transform="translate(1665.038738 0.78125)" xlink:href="#DejaVuSans-51"/>
     <use transform="translate(1728.661785 0.78125)" xlink:href="#DejaVuSans-56"/>
     <use transform="translate(1792.284832 0.78125)" xlink:href="#DejaVuSans-50"/>
    </g>
   </g>
   <g id="text_36">
    <!-- 3 Players (1000 Iterations) -->
    <g transform="translate(992.937187 123.6)scale(0.12 -0.12)">
     <use xlink:href="#DejaVuSans-51"/>
     <use x="63.623047" xlink:href="#DejaVuSans-32"/>
     <use x="95.410156" xlink:href="#DejaVuSans-80"/>
     <use x="155.712891" xlink:href="#DejaVuSans-108"/>
     <use x="183.496094" xlink:href="#DejaVuSans-97"/>
     <use x="244.775391" xlink:href="#DejaVuSans-121"/>
     <use x="303.955078" xlink:href="#DejaVuSans-101"/>
     <use x="365.478516" xlink:href="#DejaVuSans-114"/>
     <use x="406.591797" xlink:href="#DejaVuSans-115"/>
     <use x="458.691406" xlink:href="#DejaVuSans-32"/>
     <use x="490.478516" xlink:href="#DejaVuSans-40"/>
     <use x="529.492188" xlink:href="#DejaVuSans-49"/>
     <use x="593.115234" xlink:href="#DejaVuSans-48"/>
     <use x="656.738281" xlink:href="#DejaVuSans-48"/>
     <use x="720.361328" xlink:href="#DejaVuSans-48"/>
     <use x="783.984375" xlink:href="#DejaVuSans-32"/>
     <use x="815.771484" xlink:href="#DejaVuSans-73"/>
     <use x="845.263672" xlink:href="#DejaVuSans-116"/>
     <use x="884.472656" xlink:href="#DejaVuSans-101"/>
     <use x="945.996094" xlink:href="#DejaVuSans-114"/>
     <use x="987.109375" xlink:href="#DejaVuSans-97"/>
     <use x="1048.388672" xlink:href="#DejaVuSans-116"/>
     <use x="1087.597656" xlink:href="#DejaVuSans-105"/>
     <use x="1115.380859" xlink:href="#DejaVuSans-111"/>
     <use x="1176.5625" xlink:href="#DejaVuSans-110"/>
     <use x="1239.941406" xlink:href="#DejaVuSans-115"/>
     <use x="1292.041016" xlink:href="#DejaVuSans-41"/>
    </g>
   </g>
  </g>
  <g id="axes_3">
   <g id="patch_62">
    <path d="M 180 961.2 
L 626.4 961.2 
L 626.4 653.2 
L 180 653.2 
z
" style="fill:#ffffff;"/>
   </g>
   <g id="patch_63">
    <path clip-path="url(#pc01a1426c1)" d="M 200.290909 961.2 
L 216.523636 961.2 
L 216.523636 951.52967 
L 200.290909 951.52967 
z
" style="fill:#1f77b4;"/>
   </g>
   <g id="patch_64">
    <path clip-path="url(#pc01a1426c1)" d="M 216.523636 961.2 
L 232.756364 961.2 
L 232.756364 948.306227 
L 216.523636 948.306227 
z
" style="fill:#1f77b4;"/>
   </g>
   <g id="patch_65">
    <path clip-path="url(#pc01a1426c1)" d="M 232.756364 961.2 
L 248.989091 961.2 
L 248.989091 948.306227 
L 232.756364 948.306227 
z
" style="fill:#1f77b4;"/>
   </g>
   <g id="patch_66">
    <path clip-path="url(#pc01a1426c1)" d="M 248.989091 961.2 
L 265.221818 961.2 
L 265.221818 916.071795 
L 248.989091 916.071795 
z
" style="fill:#1f77b4;"/>
   </g>
   <g id="patch_67">
    <path clip-path="url(#pc01a1426c1)" d="M 265.221818 961.2 
L 281.454545 961.2 
L 281.454545 893.507692 
L 265.221818 893.507692 
z
" style="fill:#1f77b4;"/>
   </g>
   <g id="patch_68">
    <path clip-path="url(#pc01a1426c1)" d="M 281.454545 961.2 
L 297.687273 961.2 
L 297.687273 804.863004 
L 281.454545 804.863004 
z
" style="fill:#1f77b4;"/>
   </g>
   <g id="patch_69">
    <path clip-path="url(#pc01a1426c1)" d="M 297.687273 961.2 
L 313.92 961.2 
L 313.92 725.888645 
L 297.687273 725.888645 
z
" style="fill:#1f77b4;"/>
   </g>
   <g id="patch_70">
    <path clip-path="url(#pc01a1426c1)" d="M 313.92 961.2 
L 330.152727 961.2 
L 330.152727 675.925275 
L 313.92 675.925275 
z
" style="fill:#1f77b4;"/>
   </g>
   <g id="patch_71">
    <path clip-path="url(#pc01a1426c1)" d="M 330.152727 961.2 
L 346.385455 961.2 
L 346.385455 667.866667 
L 330.152727 667.866667 
z
" style="fill:#1f77b4;"/>
   </g>
   <g id="patch_72">
    <path clip-path="url(#pc01a1426c1)" d="M 346.385455 961.2 
L 362.618182 961.2 
L 362.618182 700.101099 
L 346.385455 700.101099 
z
" style="fill:#1f77b4;"/>
   </g>
   <g id="patch_73">
    <path clip-path="url(#pc01a1426c1)" d="M 362.618182 961.2 
L 378.850909 961.2 
L 378.850909 808.086447 
L 362.618182 808.086447 
z
" style="fill:#1f77b4;"/>
   </g>
   <g id="patch_74">
    <path clip-path="url(#pc01a1426c1)" d="M 378.850909 961.2 
L 395.083636 961.2 
L 395.083636 893.507692 
L 378.850909 893.507692 
z
" style="fill:#1f77b4;"/>
   </g>
   <g id="patch_75">
    <path clip-path="url(#pc01a1426c1)" d="M 395.083636 961.2 
L 411.316364 961.2 
L 411.316364 951.52967 
L 395.083636 951.52967 
z
" style="fill:#1f77b4;"/>
   </g>
   <g id="patch_76">
    <path clip-path="url(#pc01a1426c1)" d="M 411.316364 961.2 
L 427.549091 961.2 
L 427.549091 959.588278 
L 411.316364 959.588278 
z
" style="fill:#1f77b4;"/>
   </g>
   <g id="patch_77">
    <path clip-path="url(#pc01a1426c1)" d="M 427.549091 961.2 
L 443.781818 961.2 
L 443.781818 961.2 
L 427.549091 961.2 
z
" style="fill:#1f77b4;"/>
   </g>
   <g id="patch_78">
    <path clip-path="url(#pc01a1426c1)" d="M 443.781818 961.2 
L 460.014545 961.2 
L 460.014545 961.2 
L 443.781818 961.2 
z
" style="fill:#1f77b4;"/>
   </g>
   <g id="patch_79">
    <path clip-path="url(#pc01a1426c1)" d="M 460.014545 961.2 
L 476.247273 961.2 
L 476.247273 961.2 
L 460.014545 961.2 
z
" style="fill:#1f77b4;"/>
   </g>
   <g id="patch_80">
    <path clip-path="url(#pc01a1426c1)" d="M 476.247273 961.2 
L 492.48 961.2 
L 492.48 961.2 
L 476.247273 961.2 
z
" style="fill:#1f77b4;"/>
   </g>
   <g id="patch_81">
    <path clip-path="url(#pc01a1426c1)" d="M 492.48 961.2 
L 508.712727 961.2 
L 508.712727 961.2 
L 492.48 961.2 
z
" style="fill:#1f77b4;"/>
   </g>
   <g id="patch_82">
    <path clip-path="url(#pc01a1426c1)" d="M 508.712727 961.2 
L 524.945455 961.2 
L 524.945455 961.2 
L 508.712727 961.2 
z
" style="fill:#1f77b4;"/>
   </g>
   <g id="patch_83">
    <path clip-path="url(#pc01a1426c1)" d="M 524.945455 961.2 
L 541.178182 961.2 
L 541.178182 961.2 
L 524.945455 961.2 
z
" style="fill:#1f77b4;"/>
   </g>
   <g id="patch_84">
    <path clip-path="url(#pc01a1426c1)" d="M 541.178182 961.2 
L 557.410909 961.2 
L 557.410909 961.2 
L 541.178182 961.2 
z
" style="fill:#1f77b4;"/>
   </g>
   <g id="patch_85">
    <path clip-path="url(#pc01a1426c1)" d="M 557.410909 961.2 
L 573.643636 961.2 
L 573.643636 961.2 
L 557.410909 961.2 
z
" style="fill:#1f77b4;"/>
   </g>
   <g id="patch_86">
    <path clip-path="url(#pc01a1426c1)" d="M 573.643636 961.2 
L 589.876364 961.2 
L 589.876364 961.2 
L 573.643636 961.2 
z
" style="fill:#1f77b4;"/>
   </g>
   <g id="patch_87">
    <path clip-path="url(#pc01a1426c1)" d="M 589.876364 961.2 
L 606.109091 961.2 
L 606.109091 961.2 
L 589.876364 961.2 
z
" style="fill:#1f77b4;"/>
   </g>
   <g id="matplotlib.axis_5">
    <g id="xtick_13">
     <g id="line2d_29">
      <g>
       <use style="stroke:#000000;stroke-width:0.8;" x="200.290909" xlink:href="#mafbac5ff3f" y="961.2"/>
      </g>
     </g>
     <g id="text_37">
      <!-- 0 -->
      <g transform="translate(197.109659 975.798437)scale(0.1 -0.1)">
       <use xlink:href="#DejaVuSans-48"/>
      </g>
     </g>
    </g>
    <g id="xtick_14">
     <g id="line2d_30">
      <g>
       <use style="stroke:#000000;stroke-width:0.8;" x="278.332867" xlink:href="#mafbac5ff3f" y="961.2"/>
      </g>
     </g>
     <g id="text_38">
      <!-- 5 -->
      <g transform="translate(275.151617 975.798437)scale(0.1 -0.1)">
       <use xlink:href="#DejaVuSans-53"/>
      </g>
     </g>
    </g>
    <g id="xtick_15">
     <g id="line2d_31">
      <g>
       <use style="stroke:#000000;stroke-width:0.8;" x="356.374825" xlink:href="#mafbac5ff3f" y="961.2"/>
      </g>
     </g>
     <g id="text_39">
      <!-- 10 -->
      <g transform="translate(350.012325 975.798437)scale(0.1 -0.1)">
       <use xlink:href="#DejaVuSans-49"/>
       <use x="63.623047" xlink:href="#DejaVuSans-48"/>
      </g>
     </g>
    </g>
    <g id="xtick_16">
     <g id="line2d_32">
      <g>
       <use style="stroke:#000000;stroke-width:0.8;" x="434.416783" xlink:href="#mafbac5ff3f" y="961.2"/>
      </g>
     </g>
     <g id="text_40">
      <!-- 15 -->
      <g transform="translate(428.054283 975.798437)scale(0.1 -0.1)">
       <use xlink:href="#DejaVuSans-49"/>
       <use x="63.623047" xlink:href="#DejaVuSans-53"/>
      </g>
     </g>
    </g>
    <g id="xtick_17">
     <g id="line2d_33">
      <g>
       <use style="stroke:#000000;stroke-width:0.8;" x="512.458741" xlink:href="#mafbac5ff3f" y="961.2"/>
      </g>
     </g>
     <g id="text_41">
      <!-- 20 -->
      <g transform="translate(506.096241 975.798437)scale(0.1 -0.1)">
       <use xlink:href="#DejaVuSans-50"/>
       <use x="63.623047" xlink:href="#DejaVuSans-48"/>
      </g>
     </g>
    </g>
    <g id="xtick_18">
     <g id="line2d_34">
      <g>
       <use style="stroke:#000000;stroke-width:0.8;" x="590.500699" xlink:href="#mafbac5ff3f" y="961.2"/>
      </g>
     </g>
     <g id="text_42">
      <!-- 25 -->
      <g transform="translate(584.138199 975.798437)scale(0.1 -0.1)">
       <use xlink:href="#DejaVuSans-50"/>
       <use x="63.623047" xlink:href="#DejaVuSans-53"/>
      </g>
     </g>
    </g>
    <g id="text_43">
     <!-- Scores -->
     <g transform="translate(386.482031 989.476562)scale(0.1 -0.1)">
      <use xlink:href="#DejaVuSans-83"/>
      <use x="63.476562" xlink:href="#DejaVuSans-99"/>
      <use x="118.457031" xlink:href="#DejaVuSans-111"/>
      <use x="179.638672" xlink:href="#DejaVuSans-114"/>
      <use x="220.720703" xlink:href="#DejaVuSans-101"/>
      <use x="282.244141" xlink:href="#DejaVuSans-115"/>
     </g>
    </g>
   </g>
   <g id="matplotlib.axis_6">
    <g id="ytick_17">
     <g id="line2d_35">
      <g>
       <use style="stroke:#000000;stroke-width:0.8;" x="180" xlink:href="#m715f038226" y="961.2"/>
      </g>
     </g>
     <g id="text_44">
      <!-- 0.000 -->
      <g transform="translate(144.371875 964.999219)scale(0.1 -0.1)">
       <use xlink:href="#DejaVuSans-48"/>
       <use x="63.623047" xlink:href="#DejaVuSans-46"/>
       <use x="95.410156" xlink:href="#DejaVuSans-48"/>
       <use x="159.033203" xlink:href="#DejaVuSans-48"/>
       <use x="222.65625" xlink:href="#DejaVuSans-48"/>
      </g>
     </g>
    </g>
    <g id="ytick_18">
     <g id="line2d_36">
      <g>
       <use style="stroke:#000000;stroke-width:0.8;" x="180" xlink:href="#m715f038226" y="919.295238"/>
      </g>
     </g>
     <g id="text_45">
      <!-- 0.025 -->
      <g transform="translate(144.371875 923.094457)scale(0.1 -0.1)">
       <use xlink:href="#DejaVuSans-48"/>
       <use x="63.623047" xlink:href="#DejaVuSans-46"/>
       <use x="95.410156" xlink:href="#DejaVuSans-48"/>
       <use x="159.033203" xlink:href="#DejaVuSans-50"/>
       <use x="222.65625" xlink:href="#DejaVuSans-53"/>
      </g>
     </g>
    </g>
    <g id="ytick_19">
     <g id="line2d_37">
      <g>
       <use style="stroke:#000000;stroke-width:0.8;" x="180" xlink:href="#m715f038226" y="877.390476"/>
      </g>
     </g>
     <g id="text_46">
      <!-- 0.050 -->
      <g transform="translate(144.371875 881.189695)scale(0.1 -0.1)">
       <use xlink:href="#DejaVuSans-48"/>
       <use x="63.623047" xlink:href="#DejaVuSans-46"/>
       <use x="95.410156" xlink:href="#DejaVuSans-48"/>
       <use x="159.033203" xlink:href="#DejaVuSans-53"/>
       <use x="222.65625" xlink:href="#DejaVuSans-48"/>
      </g>
     </g>
    </g>
    <g id="ytick_20">
     <g id="line2d_38">
      <g>
       <use style="stroke:#000000;stroke-width:0.8;" x="180" xlink:href="#m715f038226" y="835.485714"/>
      </g>
     </g>
     <g id="text_47">
      <!-- 0.075 -->
      <g transform="translate(144.371875 839.284933)scale(0.1 -0.1)">
       <use xlink:href="#DejaVuSans-48"/>
       <use x="63.623047" xlink:href="#DejaVuSans-46"/>
       <use x="95.410156" xlink:href="#DejaVuSans-48"/>
       <use x="159.033203" xlink:href="#DejaVuSans-55"/>
       <use x="222.65625" xlink:href="#DejaVuSans-53"/>
      </g>
     </g>
    </g>
    <g id="ytick_21">
     <g id="line2d_39">
      <g>
       <use style="stroke:#000000;stroke-width:0.8;" x="180" xlink:href="#m715f038226" y="793.580952"/>
      </g>
     </g>
     <g id="text_48">
      <!-- 0.100 -->
      <g transform="translate(144.371875 797.380171)scale(0.1 -0.1)">
       <use xlink:href="#DejaVuSans-48"/>
       <use x="63.623047" xlink:href="#DejaVuSans-46"/>
       <use x="95.410156" xlink:href="#DejaVuSans-49"/>
       <use x="159.033203" xlink:href="#DejaVuSans-48"/>
       <use x="222.65625" xlink:href="#DejaVuSans-48"/>
      </g>
     </g>
    </g>
    <g id="ytick_22">
     <g id="line2d_40">
      <g>
       <use style="stroke:#000000;stroke-width:0.8;" x="180" xlink:href="#m715f038226" y="751.67619"/>
      </g>
     </g>
     <g id="text_49">
      <!-- 0.125 -->
      <g transform="translate(144.371875 755.475409)scale(0.1 -0.1)">
       <use xlink:href="#DejaVuSans-48"/>
       <use x="63.623047" xlink:href="#DejaVuSans-46"/>
       <use x="95.410156" xlink:href="#DejaVuSans-49"/>
       <use x="159.033203" xlink:href="#DejaVuSans-50"/>
       <use x="222.65625" xlink:href="#DejaVuSans-53"/>
      </g>
     </g>
    </g>
    <g id="ytick_23">
     <g id="line2d_41">
      <g>
       <use style="stroke:#000000;stroke-width:0.8;" x="180" xlink:href="#m715f038226" y="709.771429"/>
      </g>
     </g>
     <g id="text_50">
      <!-- 0.150 -->
      <g transform="translate(144.371875 713.570647)scale(0.1 -0.1)">
       <use xlink:href="#DejaVuSans-48"/>
       <use x="63.623047" xlink:href="#DejaVuSans-46"/>
       <use x="95.410156" xlink:href="#DejaVuSans-49"/>
       <use x="159.033203" xlink:href="#DejaVuSans-53"/>
       <use x="222.65625" xlink:href="#DejaVuSans-48"/>
      </g>
     </g>
    </g>
    <g id="ytick_24">
     <g id="line2d_42">
      <g>
       <use style="stroke:#000000;stroke-width:0.8;" x="180" xlink:href="#m715f038226" y="667.866667"/>
      </g>
     </g>
     <g id="text_51">
      <!-- 0.175 -->
      <g transform="translate(144.371875 671.665885)scale(0.1 -0.1)">
       <use xlink:href="#DejaVuSans-48"/>
       <use x="63.623047" xlink:href="#DejaVuSans-46"/>
       <use x="95.410156" xlink:href="#DejaVuSans-49"/>
       <use x="159.033203" xlink:href="#DejaVuSans-55"/>
       <use x="222.65625" xlink:href="#DejaVuSans-53"/>
      </g>
     </g>
    </g>
    <g id="text_52">
     <!-- Probability Density -->
     <g transform="translate(138.292187 854.424219)rotate(-90)scale(0.1 -0.1)">
      <use xlink:href="#DejaVuSans-80"/>
      <use x="60.287109" xlink:href="#DejaVuSans-114"/>
      <use x="101.369141" xlink:href="#DejaVuSans-111"/>
      <use x="162.550781" xlink:href="#DejaVuSans-98"/>
      <use x="226.027344" xlink:href="#DejaVuSans-97"/>
      <use x="287.306641" xlink:href="#DejaVuSans-98"/>
      <use x="350.783203" xlink:href="#DejaVuSans-105"/>
      <use x="378.566406" xlink:href="#DejaVuSans-108"/>
      <use x="406.349609" xlink:href="#DejaVuSans-105"/>
      <use x="434.132812" xlink:href="#DejaVuSans-116"/>
      <use x="473.341797" xlink:href="#DejaVuSans-121"/>
      <use x="532.521484" xlink:href="#DejaVuSans-32"/>
      <use x="564.308594" xlink:href="#DejaVuSans-68"/>
      <use x="641.310547" xlink:href="#DejaVuSans-101"/>
      <use x="702.833984" xlink:href="#DejaVuSans-110"/>
      <use x="766.212891" xlink:href="#DejaVuSans-115"/>
      <use x="818.3125" xlink:href="#DejaVuSans-105"/>
      <use x="846.095703" xlink:href="#DejaVuSans-116"/>
      <use x="885.304688" xlink:href="#DejaVuSans-121"/>
     </g>
    </g>
   </g>
   <g id="patch_88">
    <path d="M 180 961.2 
L 180 653.2 
" style="fill:none;stroke:#000000;stroke-linecap:square;stroke-linejoin:miter;stroke-width:0.8;"/>
   </g>
   <g id="patch_89">
    <path d="M 626.4 961.2 
L 626.4 653.2 
" style="fill:none;stroke:#000000;stroke-linecap:square;stroke-linejoin:miter;stroke-width:0.8;"/>
   </g>
   <g id="patch_90">
    <path d="M 180 961.2 
L 626.4 961.2 
" style="fill:none;stroke:#000000;stroke-linecap:square;stroke-linejoin:miter;stroke-width:0.8;"/>
   </g>
   <g id="patch_91">
    <path d="M 180 653.2 
L 626.4 653.2 
" style="fill:none;stroke:#000000;stroke-linecap:square;stroke-linejoin:miter;stroke-width:0.8;"/>
   </g>
   <g id="text_53">
    <!-- $\mu=8.287,\ \sigma=2.1453743263123104$ -->
    <g transform="translate(512.458741 -547.371429)scale(0.1 -0.1)">
     <use transform="translate(0 0.78125)" xlink:href="#DejaVuSans-Oblique-956"/>
     <use transform="translate(83.105469 0.78125)" xlink:href="#DejaVuSans-61"/>
     <use transform="translate(186.376953 0.78125)" xlink:href="#DejaVuSans-56"/>
     <use transform="translate(250 0.78125)" xlink:href="#DejaVuSans-46"/>
     <use transform="translate(281.708984 0.78125)" xlink:href="#DejaVuSans-50"/>
     <use transform="translate(345.332031 0.78125)" xlink:href="#DejaVuSans-56"/>
     <use transform="translate(408.955078 0.78125)" xlink:href="#DejaVuSans-55"/>
     <use transform="translate(472.578125 0.78125)" xlink:href="#DejaVuSans-44"/>
     <use transform="translate(556.318035 0.78125)" xlink:href="#DejaVuSans-Oblique-963"/>
     <use transform="translate(639.179363 0.78125)" xlink:href="#DejaVuSans-61"/>
     <use transform="translate(742.450847 0.78125)" xlink:href="#DejaVuSans-50"/>
     <use transform="translate(806.073894 0.78125)" xlink:href="#DejaVuSans-46"/>
     <use transform="translate(837.861003 0.78125)" xlink:href="#DejaVuSans-49"/>
     <use transform="translate(901.48405 0.78125)" xlink:href="#DejaVuSans-52"/>
     <use transform="translate(965.107097 0.78125)" xlink:href="#DejaVuSans-53"/>
     <use transform="translate(1028.730144 0.78125)" xlink:href="#DejaVuSans-51"/>
     <use transform="translate(1092.353191 0.78125)" xlink:href="#DejaVuSans-55"/>
     <use transform="translate(1155.976238 0.78125)" xlink:href="#DejaVuSans-52"/>
     <use transform="translate(1219.599285 0.78125)" xlink:href="#DejaVuSans-51"/>
     <use transform="translate(1283.222332 0.78125)" xlink:href="#DejaVuSans-50"/>
     <use transform="translate(1346.845378 0.78125)" xlink:href="#DejaVuSans-54"/>
     <use transform="translate(1410.468425 0.78125)" xlink:href="#DejaVuSans-51"/>
     <use transform="translate(1474.091472 0.78125)" xlink:href="#DejaVuSans-49"/>
     <use transform="translate(1537.714519 0.78125)" xlink:href="#DejaVuSans-50"/>
     <use transform="translate(1601.337566 0.78125)" xlink:href="#DejaVuSans-51"/>
     <use transform="translate(1664.960613 0.78125)" xlink:href="#DejaVuSans-49"/>
     <use transform="translate(1728.58366 0.78125)" xlink:href="#DejaVuSans-48"/>
     <use transform="translate(1792.206707 0.78125)" xlink:href="#DejaVuSans-52"/>
    </g>
   </g>
   <g id="text_54">
    <!-- 4 Players (1000 Iterations) -->
    <g transform="translate(323.337187 647.2)scale(0.12 -0.12)">
     <use xlink:href="#DejaVuSans-52"/>
     <use x="63.623047" xlink:href="#DejaVuSans-32"/>
     <use x="95.410156" xlink:href="#DejaVuSans-80"/>
     <use x="155.712891" xlink:href="#DejaVuSans-108"/>
     <use x="183.496094" xlink:href="#DejaVuSans-97"/>
     <use x="244.775391" xlink:href="#DejaVuSans-121"/>
     <use x="303.955078" xlink:href="#DejaVuSans-101"/>
     <use x="365.478516" xlink:href="#DejaVuSans-114"/>
     <use x="406.591797" xlink:href="#DejaVuSans-115"/>
     <use x="458.691406" xlink:href="#DejaVuSans-32"/>
     <use x="490.478516" xlink:href="#DejaVuSans-40"/>
     <use x="529.492188" xlink:href="#DejaVuSans-49"/>
     <use x="593.115234" xlink:href="#DejaVuSans-48"/>
     <use x="656.738281" xlink:href="#DejaVuSans-48"/>
     <use x="720.361328" xlink:href="#DejaVuSans-48"/>
     <use x="783.984375" xlink:href="#DejaVuSans-32"/>
     <use x="815.771484" xlink:href="#DejaVuSans-73"/>
     <use x="845.263672" xlink:href="#DejaVuSans-116"/>
     <use x="884.472656" xlink:href="#DejaVuSans-101"/>
     <use x="945.996094" xlink:href="#DejaVuSans-114"/>
     <use x="987.109375" xlink:href="#DejaVuSans-97"/>
     <use x="1048.388672" xlink:href="#DejaVuSans-116"/>
     <use x="1087.597656" xlink:href="#DejaVuSans-105"/>
     <use x="1115.380859" xlink:href="#DejaVuSans-111"/>
     <use x="1176.5625" xlink:href="#DejaVuSans-110"/>
     <use x="1239.941406" xlink:href="#DejaVuSans-115"/>
     <use x="1292.041016" xlink:href="#DejaVuSans-41"/>
    </g>
   </g>
  </g>
  <g id="axes_4">
   <g id="patch_92">
    <path d="M 849.6 961.2 
L 1296 961.2 
L 1296 653.2 
L 849.6 653.2 
z
" style="fill:#ffffff;"/>
   </g>
   <g id="patch_93">
    <path clip-path="url(#p97c6bd2801)" d="M 869.890909 961.2 
L 886.123636 961.2 
L 886.123636 955.15189 
L 869.890909 955.15189 
z
" style="fill:#1f77b4;"/>
   </g>
   <g id="patch_94">
    <path clip-path="url(#p97c6bd2801)" d="M 886.123636 961.2 
L 902.356364 961.2 
L 902.356364 950.615808 
L 886.123636 950.615808 
z
" style="fill:#1f77b4;"/>
   </g>
   <g id="patch_95">
    <path clip-path="url(#p97c6bd2801)" d="M 902.356364 961.2 
L 918.589091 961.2 
L 918.589091 947.591753 
L 902.356364 947.591753 
z
" style="fill:#1f77b4;"/>
   </g>
   <g id="patch_96">
    <path clip-path="url(#p97c6bd2801)" d="M 918.589091 961.2 
L 934.821818 961.2 
L 934.821818 941.543643 
L 918.589091 941.543643 
z
" style="fill:#1f77b4;"/>
   </g>
   <g id="patch_97">
    <path clip-path="url(#p97c6bd2801)" d="M 934.821818 961.2 
L 951.054545 961.2 
L 951.054545 900.7189 
L 934.821818 900.7189 
z
" style="fill:#1f77b4;"/>
   </g>
   <g id="patch_98">
    <path clip-path="url(#p97c6bd2801)" d="M 951.054545 961.2 
L 967.287273 961.2 
L 967.287273 840.237801 
L 951.054545 840.237801 
z
" style="fill:#1f77b4;"/>
   </g>
   <g id="patch_99">
    <path clip-path="url(#p97c6bd2801)" d="M 967.287273 961.2 
L 983.52 961.2 
L 983.52 743.468041 
L 967.287273 743.468041 
z
" style="fill:#1f77b4;"/>
   </g>
   <g id="patch_100">
    <path clip-path="url(#p97c6bd2801)" d="M 983.52 961.2 
L 999.752727 961.2 
L 999.752727 667.866667 
L 983.52 667.866667 
z
" style="fill:#1f77b4;"/>
   </g>
   <g id="patch_101">
    <path clip-path="url(#p97c6bd2801)" d="M 999.752727 961.2 
L 1015.985455 961.2 
L 1015.985455 678.450859 
L 999.752727 678.450859 
z
" style="fill:#1f77b4;"/>
   </g>
   <g id="patch_102">
    <path clip-path="url(#p97c6bd2801)" d="M 1015.985455 961.2 
L 1032.218182 961.2 
L 1032.218182 704.155326 
L 1015.985455 704.155326 
z
" style="fill:#1f77b4;"/>
   </g>
   <g id="patch_103">
    <path clip-path="url(#p97c6bd2801)" d="M 1032.218182 961.2 
L 1048.450909 961.2 
L 1048.450909 823.605498 
L 1032.218182 823.605498 
z
" style="fill:#1f77b4;"/>
   </g>
   <g id="patch_104">
    <path clip-path="url(#p97c6bd2801)" d="M 1048.450909 961.2 
L 1064.683636 961.2 
L 1064.683636 891.646735 
L 1048.450909 891.646735 
z
" style="fill:#1f77b4;"/>
   </g>
   <g id="patch_105">
    <path clip-path="url(#p97c6bd2801)" d="M 1064.683636 961.2 
L 1080.916364 961.2 
L 1080.916364 947.591753 
L 1064.683636 947.591753 
z
" style="fill:#1f77b4;"/>
   </g>
   <g id="patch_106">
    <path clip-path="url(#p97c6bd2801)" d="M 1080.916364 961.2 
L 1097.149091 961.2 
L 1097.149091 955.15189 
L 1080.916364 955.15189 
z
" style="fill:#1f77b4;"/>
   </g>
   <g id="patch_107">
    <path clip-path="url(#p97c6bd2801)" d="M 1097.149091 961.2 
L 1113.381818 961.2 
L 1113.381818 958.175945 
L 1097.149091 958.175945 
z
" style="fill:#1f77b4;"/>
   </g>
   <g id="patch_108">
    <path clip-path="url(#p97c6bd2801)" d="M 1113.381818 961.2 
L 1129.614545 961.2 
L 1129.614545 961.2 
L 1113.381818 961.2 
z
" style="fill:#1f77b4;"/>
   </g>
   <g id="patch_109">
    <path clip-path="url(#p97c6bd2801)" d="M 1129.614545 961.2 
L 1145.847273 961.2 
L 1145.847273 961.2 
L 1129.614545 961.2 
z
" style="fill:#1f77b4;"/>
   </g>
   <g id="patch_110">
    <path clip-path="url(#p97c6bd2801)" d="M 1145.847273 961.2 
L 1162.08 961.2 
L 1162.08 961.2 
L 1145.847273 961.2 
z
" style="fill:#1f77b4;"/>
   </g>
   <g id="patch_111">
    <path clip-path="url(#p97c6bd2801)" d="M 1162.08 961.2 
L 1178.312727 961.2 
L 1178.312727 961.2 
L 1162.08 961.2 
z
" style="fill:#1f77b4;"/>
   </g>
   <g id="patch_112">
    <path clip-path="url(#p97c6bd2801)" d="M 1178.312727 961.2 
L 1194.545455 961.2 
L 1194.545455 961.2 
L 1178.312727 961.2 
z
" style="fill:#1f77b4;"/>
   </g>
   <g id="patch_113">
    <path clip-path="url(#p97c6bd2801)" d="M 1194.545455 961.2 
L 1210.778182 961.2 
L 1210.778182 961.2 
L 1194.545455 961.2 
z
" style="fill:#1f77b4;"/>
   </g>
   <g id="patch_114">
    <path clip-path="url(#p97c6bd2801)" d="M 1210.778182 961.2 
L 1227.010909 961.2 
L 1227.010909 961.2 
L 1210.778182 961.2 
z
" style="fill:#1f77b4;"/>
   </g>
   <g id="patch_115">
    <path clip-path="url(#p97c6bd2801)" d="M 1227.010909 961.2 
L 1243.243636 961.2 
L 1243.243636 961.2 
L 1227.010909 961.2 
z
" style="fill:#1f77b4;"/>
   </g>
   <g id="patch_116">
    <path clip-path="url(#p97c6bd2801)" d="M 1243.243636 961.2 
L 1259.476364 961.2 
L 1259.476364 961.2 
L 1243.243636 961.2 
z
" style="fill:#1f77b4;"/>
   </g>
   <g id="patch_117">
    <path clip-path="url(#p97c6bd2801)" d="M 1259.476364 961.2 
L 1275.709091 961.2 
L 1275.709091 961.2 
L 1259.476364 961.2 
z
" style="fill:#1f77b4;"/>
   </g>
   <g id="matplotlib.axis_7">
    <g id="xtick_19">
     <g id="line2d_43">
      <g>
       <use style="stroke:#000000;stroke-width:0.8;" x="869.890909" xlink:href="#mafbac5ff3f" y="961.2"/>
      </g>
     </g>
     <g id="text_55">
      <!-- 0 -->
      <g transform="translate(866.709659 975.798437)scale(0.1 -0.1)">
       <use xlink:href="#DejaVuSans-48"/>
      </g>
     </g>
    </g>
    <g id="xtick_20">
     <g id="line2d_44">
      <g>
       <use style="stroke:#000000;stroke-width:0.8;" x="947.932867" xlink:href="#mafbac5ff3f" y="961.2"/>
      </g>
     </g>
     <g id="text_56">
      <!-- 5 -->
      <g transform="translate(944.751617 975.798437)scale(0.1 -0.1)">
       <use xlink:href="#DejaVuSans-53"/>
      </g>
     </g>
    </g>
    <g id="xtick_21">
     <g id="line2d_45">
      <g>
       <use style="stroke:#000000;stroke-width:0.8;" x="1025.974825" xlink:href="#mafbac5ff3f" y="961.2"/>
      </g>
     </g>
     <g id="text_57">
      <!-- 10 -->
      <g transform="translate(1019.612325 975.798437)scale(0.1 -0.1)">
       <use xlink:href="#DejaVuSans-49"/>
       <use x="63.623047" xlink:href="#DejaVuSans-48"/>
      </g>
     </g>
    </g>
    <g id="xtick_22">
     <g id="line2d_46">
      <g>
       <use style="stroke:#000000;stroke-width:0.8;" x="1104.016783" xlink:href="#mafbac5ff3f" y="961.2"/>
      </g>
     </g>
     <g id="text_58">
      <!-- 15 -->
      <g transform="translate(1097.654283 975.798437)scale(0.1 -0.1)">
       <use xlink:href="#DejaVuSans-49"/>
       <use x="63.623047" xlink:href="#DejaVuSans-53"/>
      </g>
     </g>
    </g>
    <g id="xtick_23">
     <g id="line2d_47">
      <g>
       <use style="stroke:#000000;stroke-width:0.8;" x="1182.058741" xlink:href="#mafbac5ff3f" y="961.2"/>
      </g>
     </g>
     <g id="text_59">
      <!-- 20 -->
      <g transform="translate(1175.696241 975.798437)scale(0.1 -0.1)">
       <use xlink:href="#DejaVuSans-50"/>
       <use x="63.623047" xlink:href="#DejaVuSans-48"/>
      </g>
     </g>
    </g>
    <g id="xtick_24">
     <g id="line2d_48">
      <g>
       <use style="stroke:#000000;stroke-width:0.8;" x="1260.100699" xlink:href="#mafbac5ff3f" y="961.2"/>
      </g>
     </g>
     <g id="text_60">
      <!-- 25 -->
      <g transform="translate(1253.738199 975.798437)scale(0.1 -0.1)">
       <use xlink:href="#DejaVuSans-50"/>
       <use x="63.623047" xlink:href="#DejaVuSans-53"/>
      </g>
     </g>
    </g>
    <g id="text_61">
     <!-- Scores -->
     <g transform="translate(1056.082031 989.476562)scale(0.1 -0.1)">
      <use xlink:href="#DejaVuSans-83"/>
      <use x="63.476562" xlink:href="#DejaVuSans-99"/>
      <use x="118.457031" xlink:href="#DejaVuSans-111"/>
      <use x="179.638672" xlink:href="#DejaVuSans-114"/>
      <use x="220.720703" xlink:href="#DejaVuSans-101"/>
      <use x="282.244141" xlink:href="#DejaVuSans-115"/>
     </g>
    </g>
   </g>
   <g id="matplotlib.axis_8">
    <g id="ytick_25">
     <g id="line2d_49">
      <g>
       <use style="stroke:#000000;stroke-width:0.8;" x="849.6" xlink:href="#m715f038226" y="961.2"/>
      </g>
     </g>
     <g id="text_62">
      <!-- 0.000 -->
      <g transform="translate(813.971875 964.999219)scale(0.1 -0.1)">
       <use xlink:href="#DejaVuSans-48"/>
       <use x="63.623047" xlink:href="#DejaVuSans-46"/>
       <use x="95.410156" xlink:href="#DejaVuSans-48"/>
       <use x="159.033203" xlink:href="#DejaVuSans-48"/>
       <use x="222.65625" xlink:href="#DejaVuSans-48"/>
      </g>
     </g>
    </g>
    <g id="ytick_26">
     <g id="line2d_50">
      <g>
       <use style="stroke:#000000;stroke-width:0.8;" x="849.6" xlink:href="#m715f038226" y="921.887285"/>
      </g>
     </g>
     <g id="text_63">
      <!-- 0.025 -->
      <g transform="translate(813.971875 925.686504)scale(0.1 -0.1)">
       <use xlink:href="#DejaVuSans-48"/>
       <use x="63.623047" xlink:href="#DejaVuSans-46"/>
       <use x="95.410156" xlink:href="#DejaVuSans-48"/>
       <use x="159.033203" xlink:href="#DejaVuSans-50"/>
       <use x="222.65625" xlink:href="#DejaVuSans-53"/>
      </g>
     </g>
    </g>
    <g id="ytick_27">
     <g id="line2d_51">
      <g>
       <use style="stroke:#000000;stroke-width:0.8;" x="849.6" xlink:href="#m715f038226" y="882.57457"/>
      </g>
     </g>
     <g id="text_64">
      <!-- 0.050 -->
      <g transform="translate(813.971875 886.373789)scale(0.1 -0.1)">
       <use xlink:href="#DejaVuSans-48"/>
       <use x="63.623047" xlink:href="#DejaVuSans-46"/>
       <use x="95.410156" xlink:href="#DejaVuSans-48"/>
       <use x="159.033203" xlink:href="#DejaVuSans-53"/>
       <use x="222.65625" xlink:href="#DejaVuSans-48"/>
      </g>
     </g>
    </g>
    <g id="ytick_28">
     <g id="line2d_52">
      <g>
       <use style="stroke:#000000;stroke-width:0.8;" x="849.6" xlink:href="#m715f038226" y="843.261856"/>
      </g>
     </g>
     <g id="text_65">
      <!-- 0.075 -->
      <g transform="translate(813.971875 847.061074)scale(0.1 -0.1)">
       <use xlink:href="#DejaVuSans-48"/>
       <use x="63.623047" xlink:href="#DejaVuSans-46"/>
       <use x="95.410156" xlink:href="#DejaVuSans-48"/>
       <use x="159.033203" xlink:href="#DejaVuSans-55"/>
       <use x="222.65625" xlink:href="#DejaVuSans-53"/>
      </g>
     </g>
    </g>
    <g id="ytick_29">
     <g id="line2d_53">
      <g>
       <use style="stroke:#000000;stroke-width:0.8;" x="849.6" xlink:href="#m715f038226" y="803.949141"/>
      </g>
     </g>
     <g id="text_66">
      <!-- 0.100 -->
      <g transform="translate(813.971875 807.74836)scale(0.1 -0.1)">
       <use xlink:href="#DejaVuSans-48"/>
       <use x="63.623047" xlink:href="#DejaVuSans-46"/>
       <use x="95.410156" xlink:href="#DejaVuSans-49"/>
       <use x="159.033203" xlink:href="#DejaVuSans-48"/>
       <use x="222.65625" xlink:href="#DejaVuSans-48"/>
      </g>
     </g>
    </g>
    <g id="ytick_30">
     <g id="line2d_54">
      <g>
       <use style="stroke:#000000;stroke-width:0.8;" x="849.6" xlink:href="#m715f038226" y="764.636426"/>
      </g>
     </g>
     <g id="text_67">
      <!-- 0.125 -->
      <g transform="translate(813.971875 768.435645)scale(0.1 -0.1)">
       <use xlink:href="#DejaVuSans-48"/>
       <use x="63.623047" xlink:href="#DejaVuSans-46"/>
       <use x="95.410156" xlink:href="#DejaVuSans-49"/>
       <use x="159.033203" xlink:href="#DejaVuSans-50"/>
       <use x="222.65625" xlink:href="#DejaVuSans-53"/>
      </g>
     </g>
    </g>
    <g id="ytick_31">
     <g id="line2d_55">
      <g>
       <use style="stroke:#000000;stroke-width:0.8;" x="849.6" xlink:href="#m715f038226" y="725.323711"/>
      </g>
     </g>
     <g id="text_68">
      <!-- 0.150 -->
      <g transform="translate(813.971875 729.12293)scale(0.1 -0.1)">
       <use xlink:href="#DejaVuSans-48"/>
       <use x="63.623047" xlink:href="#DejaVuSans-46"/>
       <use x="95.410156" xlink:href="#DejaVuSans-49"/>
       <use x="159.033203" xlink:href="#DejaVuSans-53"/>
       <use x="222.65625" xlink:href="#DejaVuSans-48"/>
      </g>
     </g>
    </g>
    <g id="ytick_32">
     <g id="line2d_56">
      <g>
       <use style="stroke:#000000;stroke-width:0.8;" x="849.6" xlink:href="#m715f038226" y="686.010997"/>
      </g>
     </g>
     <g id="text_69">
      <!-- 0.175 -->
      <g transform="translate(813.971875 689.810215)scale(0.1 -0.1)">
       <use xlink:href="#DejaVuSans-48"/>
       <use x="63.623047" xlink:href="#DejaVuSans-46"/>
       <use x="95.410156" xlink:href="#DejaVuSans-49"/>
       <use x="159.033203" xlink:href="#DejaVuSans-55"/>
       <use x="222.65625" xlink:href="#DejaVuSans-53"/>
      </g>
     </g>
    </g>
    <g id="text_70">
     <!-- Probability Density -->
     <g transform="translate(807.892187 854.424219)rotate(-90)scale(0.1 -0.1)">
      <use xlink:href="#DejaVuSans-80"/>
      <use x="60.287109" xlink:href="#DejaVuSans-114"/>
      <use x="101.369141" xlink:href="#DejaVuSans-111"/>
      <use x="162.550781" xlink:href="#DejaVuSans-98"/>
      <use x="226.027344" xlink:href="#DejaVuSans-97"/>
      <use x="287.306641" xlink:href="#DejaVuSans-98"/>
      <use x="350.783203" xlink:href="#DejaVuSans-105"/>
      <use x="378.566406" xlink:href="#DejaVuSans-108"/>
      <use x="406.349609" xlink:href="#DejaVuSans-105"/>
      <use x="434.132812" xlink:href="#DejaVuSans-116"/>
      <use x="473.341797" xlink:href="#DejaVuSans-121"/>
      <use x="532.521484" xlink:href="#DejaVuSans-32"/>
      <use x="564.308594" xlink:href="#DejaVuSans-68"/>
      <use x="641.310547" xlink:href="#DejaVuSans-101"/>
      <use x="702.833984" xlink:href="#DejaVuSans-110"/>
      <use x="766.212891" xlink:href="#DejaVuSans-115"/>
      <use x="818.3125" xlink:href="#DejaVuSans-105"/>
      <use x="846.095703" xlink:href="#DejaVuSans-116"/>
      <use x="885.304688" xlink:href="#DejaVuSans-121"/>
     </g>
    </g>
   </g>
   <g id="patch_118">
    <path d="M 849.6 961.2 
L 849.6 653.2 
" style="fill:none;stroke:#000000;stroke-linecap:square;stroke-linejoin:miter;stroke-width:0.8;"/>
   </g>
   <g id="patch_119">
    <path d="M 1296 961.2 
L 1296 653.2 
" style="fill:none;stroke:#000000;stroke-linecap:square;stroke-linejoin:miter;stroke-width:0.8;"/>
   </g>
   <g id="patch_120">
    <path d="M 849.6 961.2 
L 1296 961.2 
" style="fill:none;stroke:#000000;stroke-linecap:square;stroke-linejoin:miter;stroke-width:0.8;"/>
   </g>
   <g id="patch_121">
    <path d="M 849.6 653.2 
L 1296 653.2 
" style="fill:none;stroke:#000000;stroke-linecap:square;stroke-linejoin:miter;stroke-width:0.8;"/>
   </g>
   <g id="text_71">
    <!-- $\mu=8.476,\ \sigma=2.0898382712545005$ -->
    <g transform="translate(1182.058741 -454.057732)scale(0.1 -0.1)">
     <use transform="translate(0 0.78125)" xlink:href="#DejaVuSans-Oblique-956"/>
     <use transform="translate(83.105469 0.78125)" xlink:href="#DejaVuSans-61"/>
     <use transform="translate(186.376953 0.78125)" xlink:href="#DejaVuSans-56"/>
     <use transform="translate(250 0.78125)" xlink:href="#DejaVuSans-46"/>
     <use transform="translate(281.787109 0.78125)" xlink:href="#DejaVuSans-52"/>
     <use transform="translate(345.410156 0.78125)" xlink:href="#DejaVuSans-55"/>
     <use transform="translate(409.033203 0.78125)" xlink:href="#DejaVuSans-54"/>
     <use transform="translate(472.65625 0.78125)" xlink:href="#DejaVuSans-44"/>
     <use transform="translate(556.39616 0.78125)" xlink:href="#DejaVuSans-Oblique-963"/>
     <use transform="translate(639.257488 0.78125)" xlink:href="#DejaVuSans-61"/>
     <use transform="translate(742.528972 0.78125)" xlink:href="#DejaVuSans-50"/>
     <use transform="translate(806.152019 0.78125)" xlink:href="#DejaVuSans-46"/>
     <use transform="translate(837.939128 0.78125)" xlink:href="#DejaVuSans-48"/>
     <use transform="translate(901.562175 0.78125)" xlink:href="#DejaVuSans-56"/>
     <use transform="translate(965.185222 0.78125)" xlink:href="#DejaVuSans-57"/>
     <use transform="translate(1028.808269 0.78125)" xlink:href="#DejaVuSans-56"/>
     <use transform="translate(1092.431316 0.78125)" xlink:href="#DejaVuSans-51"/>
     <use transform="translate(1156.054363 0.78125)" xlink:href="#DejaVuSans-56"/>
     <use transform="translate(1219.67741 0.78125)" xlink:href="#DejaVuSans-50"/>
     <use transform="translate(1283.300457 0.78125)" xlink:href="#DejaVuSans-55"/>
     <use transform="translate(1346.923503 0.78125)" xlink:href="#DejaVuSans-49"/>
     <use transform="translate(1410.54655 0.78125)" xlink:href="#DejaVuSans-50"/>
     <use transform="translate(1474.169597 0.78125)" xlink:href="#DejaVuSans-53"/>
     <use transform="translate(1537.792644 0.78125)" xlink:href="#DejaVuSans-52"/>
     <use transform="translate(1601.415691 0.78125)" xlink:href="#DejaVuSans-53"/>
     <use transform="translate(1665.038738 0.78125)" xlink:href="#DejaVuSans-48"/>
     <use transform="translate(1728.661785 0.78125)" xlink:href="#DejaVuSans-48"/>
     <use transform="translate(1792.284832 0.78125)" xlink:href="#DejaVuSans-53"/>
    </g>
   </g>
   <g id="text_72">
    <!-- 5 Players (1000 Iterations) -->
    <g transform="translate(992.937187 647.2)scale(0.12 -0.12)">
     <use xlink:href="#DejaVuSans-53"/>
     <use x="63.623047" xlink:href="#DejaVuSans-32"/>
     <use x="95.410156" xlink:href="#DejaVuSans-80"/>
     <use x="155.712891" xlink:href="#DejaVuSans-108"/>
     <use x="183.496094" xlink:href="#DejaVuSans-97"/>
     <use x="244.775391" xlink:href="#DejaVuSans-121"/>
     <use x="303.955078" xlink:href="#DejaVuSans-101"/>
     <use x="365.478516" xlink:href="#DejaVuSans-114"/>
     <use x="406.591797" xlink:href="#DejaVuSans-115"/>
     <use x="458.691406" xlink:href="#DejaVuSans-32"/>
     <use x="490.478516" xlink:href="#DejaVuSans-40"/>
     <use x="529.492188" xlink:href="#DejaVuSans-49"/>
     <use x="593.115234" xlink:href="#DejaVuSans-48"/>
     <use x="656.738281" xlink:href="#DejaVuSans-48"/>
     <use x="720.361328" xlink:href="#DejaVuSans-48"/>
     <use x="783.984375" xlink:href="#DejaVuSans-32"/>
     <use x="815.771484" xlink:href="#DejaVuSans-73"/>
     <use x="845.263672" xlink:href="#DejaVuSans-116"/>
     <use x="884.472656" xlink:href="#DejaVuSans-101"/>
     <use x="945.996094" xlink:href="#DejaVuSans-114"/>
     <use x="987.109375" xlink:href="#DejaVuSans-97"/>
     <use x="1048.388672" xlink:href="#DejaVuSans-116"/>
     <use x="1087.597656" xlink:href="#DejaVuSans-105"/>
     <use x="1115.380859" xlink:href="#DejaVuSans-111"/>
     <use x="1176.5625" xlink:href="#DejaVuSans-110"/>
     <use x="1239.941406" xlink:href="#DejaVuSans-115"/>
     <use x="1292.041016" xlink:href="#DejaVuSans-41"/>
    </g>
   </g>
  </g>
 </g>
 <defs>
  <clipPath id="p02bde96a29">
   <rect height="308" width="446.4" x="180" y="129.6"/>
  </clipPath>
  <clipPath id="padc664c5b6">
   <rect height="308" width="446.4" x="849.6" y="129.6"/>
  </clipPath>
  <clipPath id="pc01a1426c1">
   <rect height="308" width="446.4" x="180" y="653.2"/>
  </clipPath>
  <clipPath id="p97c6bd2801">
   <rect height="308" width="446.4" x="849.6" y="653.2"/>
  </clipPath>
 </defs>
</svg>
